<?xml version="1.0" encoding="UTF-8"?>
<svg version="1.1" viewBox="0 0 2048 1536" width="1280" height="1280" xmlns="http://www.w3.org/2000/svg">
<path transform="translate(0)" d="m0 0h2048v1536h-2048z" fill="#E7E7E7"/>
<path transform="translate(945,637)" d="m0 0h24l4 2-23 1v3h-2v2l19 1 15 3 10 4 6 5 9 20 2 6v15l-3 11h-2l-1 5-4 4 1 4-6 5h-2v3h4v2l3-1 6 2 4 10 4 7v7l-1 2 7-2h43l20 3 18 6 6 4 4 1v2l4 2 5 8 12 31 4 10 1 5v14l-6 25-5 8-7 6-7 1v2l-9 2h-31l-7-1-6-2-6-1v-2h-5l-1-3-5-2-7-5-3-1-7-7-4-1 9 8 2 1 1 14 3 9 4 13 7 10 6 5 5 2 5 7 1 12-3 19-2 5v34l-5 27-5 15-8 10-1 11 3 19 4 21 3 16 5 13 5 4 9 4-3 2-10 1h-20l-45-2-77-8-37-5-20-4-2-3 4-2 22-1 16-1-1-5-6-2-2-5v-3h-5l-2-5 2-5-5-1-1-5 3-3h11l8 1v-3h-12l-4-2-1 3-6-5v-6l5-5 2-1h19l6-1h14l22 4h4l-15-15-8-7-67-67-8-7-10-9-8-8-8-14-4-19-4-9v-15l5-8 7-4h3v-62l13-13 8-7 10-9 5-4h2l1 104 6 2 16 9 21 12 23 12v-42l-3-22-7-24-2-10v-4l-22-1-13-15-9-10-8-9-1-4h52l1-11 2-20 5-4 5-2-6-9-8-10-9-19-5-16-1-7v-10l4-16 6-11 7-8 11-7z" fill="#7D7E7D"/>
<path transform="translate(1951,301)" d="m0 0h13l1 1v410h-15l-27-27-4-3-1-31-31-31v-224l25-25 5-6 1-32 29-29z" fill="#020102"/>
<path transform="translate(909,1369)" d="m0 0h227l30 30 32 1 29 29 2 3v14h-410v-15l23-23 7-8 31-1 28-28z" fill="#020101"/>
<path transform="translate(1670,114)" d="m0 0h156l1 2v14l4 3 12-1 1 2 22 1 11 10 4 4v2h2l5 6v18l-2 4-8 7-12 12h-21v2l-8 7-12 12h-154v-2l-3-1-7-8-8-8-7-2h-16l-8-7-13-13-1-2v-18l3-5 18-18 21-1 17-17z" fill="#030203"/>
<path transform="translate(1011,1180)" d="m0 0h26l15 4 12 6 12 9 10 10 7 10 6 14 3 12v25l-5 18-6 10-3 6h-2l-2 4-5 6-12 9-5 3-10 5-14 4h-28l-16-5-11-6-12-9-9-10-5-7-6-12-2-9-2-6v-27l5-16 5-10 8-12 8-7 13-10 11-5z" fill="#020102"/>
<path transform="translate(147,789)" d="m0 0h177v2l4 2 11 12 19 19 8 7 13 12 8 7 10 9 2 2v35l-1 2-38 1-36 36h-101l-1-1v-36h-38v-69l5 2 10 9 8 7 10 9 5 4v37l138-1v-69h-177l-7-8-25-25-4-3z" fill="#151415"/>
<path transform="translate(1650,789)" d="m0 0h176l36 36 8 7 13 12 14 12 5 5v37l-38 1-3 1-2 4-16 15-17 17h-101v-38h-37v-69l4 2 11 10 8 7 10 9 4 4 1 37 137-1v-68l-1-1-175-1-30-30-7-6z" fill="#060506"/>
<path transform="translate(1018,861)" d="m0 0 6 2 1 3 5 2 1 3 4 1 11 7 1 2 5 1v2l11 1 1 3 9 2v2l3 1 1 10 3 4v4h2v6h2l6 10 3 8-1 9-5 5-2 6h-6l-2 13-1 5-1 11-1 6v11l-2 25v18l-1 11 5 16 5 10 2 32 2 12 6 6v2l7-3 10-7 5 2 7 1-1-3-5-3 2-5 8-14 4-10 6-12 4-5 3-6h6l4 5 9 14 10 10 7 15 3 11 4 9-2 4-6 3-5 1-80 1-13 3-18 2h-40l-50-1-76-4-40-3-17-2-26-2-39-5-10-2-10-5-1-5 6-4 6-2 11-1 26-1h19l16-1h17l9-1 8-1 14 3 6 1v2l6 2 1 5-16 2-22 1-3 2 7 2 14 3 37 5 77 8 45 2h20l10-1 1-1-7-3-6-5-5-13-6-33-3-14-1-13 1-7 8-10 5-15 5-27v-34l2-5 3-19-1-12-4-5v-2l-6-2-7-6-6-9-4-13-3-11-1-10 1-2-4-2-9-8z" fill="#BCBDBD"/>
<path transform="translate(1019,758)" d="m0 0h43l20 3 18 6 6 4 4 1v2l4 2 5 8 12 31 4 10 1 5v14l-6 25-5 8-7 6-7 1v2l-9 2h-31l-7-1-6-2-6-1v-2h-5l-1-3-5-2-7-5-3-1-7-7-4-2-5-5-9-8-6-9-5-11-2-13v-13l2-13 4-13 6-10 9-6h2v-2z" fill="#020102"/>
<path transform="translate(1689,827)" d="m0 0h173l2 2v68l-1 1h-137l-1-3-1-34-5-5-14-13-11-9-5-5z" fill="#E7E7E7"/>
<path transform="translate(186,827)" d="m0 0h174l1 69-1 1h-138l-1-37-11-10-8-7-14-12-2-1z" fill="#E7E7E7"/>
<path transform="translate(945,637)" d="m0 0h24l4 2-23 1v3h-2v2l19 1 15 3 10 4 6 5 9 20 2 6v15l-3 11h-2v3l-7 5h-3l-1 3 5 1-1 2-9 3-8 4-5 5h-2l-2 4-6 10h-2v2h-2l-2 7-2 5h-2v2l-8 7-1 2-6 1-3 3h-2v2l-4 2h-7v-11l1-12 5-4 5-2-6-9-8-10-9-19-5-16-1-7v-10l4-16 6-11 7-8 11-7z" fill="#7C7D7C"/>
<path transform="translate(576,751)" d="m0 0h38v38l-70 1-5 5-11 12-7 8-10 12h-97l7 8 11 10 11 9 6 6v38h-37l-1-71 7-8 10-11 9-11 7-8 98-1 8-7 13-14 9-11z" fill="#010001"/>
<path transform="translate(1592,751)" d="m0 0h37l1 1v37l-71 1-11 12-9 11-13 14h-97l5 5 16 15 11 9 4 4v37h-37v-72l8-8 7-8 9-10 7-8 2-2 95-1 5-2 9-9 7-8 12-14z" fill="#050405"/>
<path transform="translate(646,789)" d="m0 0h137l14 13 8 7 12 11 3 2v38h-36l-1-1v-67l-4 1-12 14-7 8-10 12h-137l2-4 12-13 7-8 10-12z" fill="#030203"/>
<path transform="translate(1371,831)" d="m0 0h38v37l-1 1h-70v41l-18 20-7 8-8 9h-106v-3l5-5 15-16 9-11 3-3 104-1-2-4-11-9-12-11-8-7-3-5v-3l35-1 6-2 13-14 7-8z" fill="#040304"/>
<path transform="translate(147,789)" d="m0 0h177v2l4 2 11 12 20 20v1h-176l-32-32-4-3z" fill="#010001"/>
<path transform="translate(869,791)" d="m0 0 2 1 3 5 12 13 12 14 3 4 20 1 2 1 6 25 4 13 3 22v43l-16-8-21-11-22-13-8-4-1-4-1-101z" fill="#E5E5E5"/>
<path transform="translate(907,1066)" d="m0 0h14l22 4v2l9 1 12 9 14 11 16 15 11 10 1 3h-19l-22 1v2l46 3 1-3 10 6 21 10 8 2-2 2-27-1-37-4-10-3-1-2 13-1h30l-2-3-5-1-10 1-42-1-22-2-29-3-8-2-4-6v-2l-6-2-2-5v-3h-5l-2-5 2-5-5-1-1-5 3-3h11l8 1v-3h-12l-4-2-1 3-6-5v-6l5-5 2-1h19z" fill="#444343"/>
<path transform="translate(936,874)" d="m0 0 1 2 4 2 6 9 4 5 3 3 4 3v2l4-3 1-7 3-7h2l1-3 2 1v18l5 13 3 7 4 2v2l5 1 8 3 3-1 3-7 6 1 4 6 6 14v6l-3 2-10 1-2 15-2 6 1 6 8 8 6 7 8 7 1 5-4 5-5 9-6 11-4 5-3 1-1-2 1-6-7 2-1-3 1-3v-16l-1-8-2-2-2-6-5-9v-2l-4-2-13-12-3-1v-2l-4-2-6-4-9-7-11-8-2-2-9-3-6-4-7-6-10-7-6-3-7-6-7-4v-2l5 2 25 14 23 12v-57z" fill="#434242"/>
<path transform="translate(482,860)" d="m0 0h131l-2 4-11 12-7 8-11 13h-131l2-4 12-13 9-11z" fill="#010001"/>
<path transform="translate(1498,860)" d="m0 0h131l-3 5-7 7-9 11-10 11-2 3h-131l3-5 12-14 10-11z" fill="#010001"/>
<path transform="translate(1125,926)" d="m0 0h14l13 4 6 7 2 5v22l-3 10-6 9-8 11-6 6h-2v2l-8 3-4 1h-15l-15-5-5-6-1-4v-29l3-12 4-9h2l1-3h2v-2l22-9z" fill="#040304"/>
<path transform="translate(946,647)" d="m0 0h28l16 5 8 6 9 20 2 6v15l-3 11h-2v3l-7 5-9 2h-13l-11-3-10-5-10-8-9-7-4-8-1-5v-16l2-9 4-6 5-4z" fill="#020102"/>
<path transform="translate(223,898)" d="m0 0h136l-2 4-33 33h-101l-1-1v-20z" fill="#010001"/>
<path transform="translate(1726,899)" d="m0 0h136l-3 5-16 15-16 16h-101z" fill="#010001"/>
<path transform="translate(674,860)" d="m0 0h107l-2 4-34 34h-105v-3l33-33z" fill="#020102"/>
<path transform="translate(1183,860)" d="m0 0h107l-1 4-8 7-9 11-11 12-2 3h-92v-19l7-8z" fill="#010001"/>
<path transform="translate(868,1106)" d="m0 0 11 2 10 2v2l6 2 1 5-16 2-22 1-3 2 7 2 14 3 37 5 77 8 45 2h30v1l-5 1h-40l-50-1-76-4-40-3-17-2-26-2-39-5-10-2-10-5-1-5 6-4 6-2 11-1 26-1h19l16-1h17l9-1z" fill="#BDBEBE"/>
<path transform="translate(635,900)" d="m0 0h2v106h-38v-64l2-7 11-12z" fill="#050405"/>
<path transform="translate(866,793)" d="m0 0h2v101l-18-6-19-1v-63l12-11 8-7 10-9z" fill="#010001"/>
<path transform="translate(1e3 710)" d="m0 0 3 1 5 6 10 1 16 5-3-5-4-4v-2l4 2 8 6 30 3 4 2 3 16 4 7 1 7-4 4-5 1-14-1h-43l-9 3v-2h2v-9l-5-8-2-6-3-3-6-1v-2h-4v-3l7-5 1-3-2-1 5-6z" fill="#BCBDBD"/>
<path transform="translate(1324,781)" d="m0 0h37l1 38-70 1-1 40-7-6-16-15-11-9-5-6 1-5 38-1 5-5 12-13 9-11z" fill="#020102"/>
<path transform="translate(174,1312)" d="m0 0h34l8 8v2l4 2 13 13v12l-13 1-8 7-5 5h-34l-1-12-10-1-1-1v-11l7-8 4-4 1-12z" fill="#0F0E0F"/>
<path transform="translate(1141,1068)" d="m0 0h6l4 5 9 14 10 10 7 15 3 11 4 9-2 4-6 3-5 1h-11v-1l8-1-7-3-16-9-5-5-5-2v-2l-4-3 1-2h-2l-1-11v-5l-4 3 2-6 7-14 4-5z" fill="#BDBEBE"/>
<path transform="translate(412,825)" d="m0 0 99 1v1h-97l7 8 11 10 11 9 6 6v38h-37l-1-71z" fill="#060506"/>
<path transform="translate(576,751)" d="m0 0h38v38l-71 1-1-2 8-7 13-14 9-11z" fill="#040304"/>
<path transform="translate(782,790)" d="m0 0 4 2 11 10 8 7 12 11 3 2v38h-36l-1-1z" fill="#010001"/>
<path transform="translate(1371,831)" d="m0 0h38v37h-69l2-4 11-12 7-8z" fill="#030203"/>
<path transform="translate(1688,829)" d="m0 0 4 2 11 10 8 7 10 9 4 4v36l-14 1h-23z" fill="#010001"/>
<path transform="translate(184,829)" d="m0 0 5 2 10 9 8 7 10 9 4 3v38h-36l-1-20z" fill="#010001"/>
<path transform="translate(1428,827)" d="m0 0 7 6 15 14 11 9 4 4v37h-37z" fill="#010001"/>
<path transform="translate(1592,751)" d="m0 0h37l1 2-1 35h-68l2-4 7-7 7-8 12-14z" fill="#010001"/>
<path transform="translate(1077,167)" d="m0 0 2 2-1 11-5 5-6 7-8 7-5 7-2 11 6-4 18-18h2v11l-1 3-8 7-13 13-1 2h-3l-1-10-25 25-4-1-5-5-9-10-6-5v-2l-5-2v10l-4-2-23-23v-13h2l7 8 14 14 5 2-2-10h3l7 8 15 14 2 3 5-2 19-19 1-2h2l1-3 1-14z" fill="#0B0A0B"/>
<path transform="translate(896,1117)" d="m0 0 5 5 42 5 15 1 42 1 12-1 5 3v3h-37l-5 1 10 3 37 4 27 2v1h-14l-45-2-77-8-37-5-20-4-2-3 4-2 22-1 16-1z" fill="#7E7F7E"/>
<path transform="translate(870,791)" d="m0 0 52 1v37h-21l-13-15-9-10-8-9z" fill="#010001"/>
<path transform="translate(972,145)" d="m0 0 5 1 3 4 1 12 1 1 12 1 28 28 5-1 27-27 2-1 10-1 2-12 4-5 5 1 2 3-1 5-8 7-3 4h-2l-2 4-24 24-8 7h-2l-4-4-4 1-2 3-4-1-44-44-2-1v-5z" fill="#060506"/>
<path transform="translate(174,1325)" d="m0 0h45l1 1 1 21-3 2h-45v-23z" fill="#E6E6E6"/>
<path transform="translate(1128,1095)" d="m0 0 2 1v16h2l1 3 4 4 5 3 6 5 16 9 5 2v1l-17 1-56-1-3-1v-2l10-7h25l-14-9 2-5 11-19z" fill="#7D7E7D"/>
<path transform="translate(1050,780)" d="m0 0h5l7 10 7 8 10 4v2l5 2 14 10 8 8 8 6 3 1 2 11 4 7-1 4h-5v-2h-2l-1-7-4-2v-2l-4 1-6-9-5-3-6-2v-2h-7l-3-3-5-3-6-5-7-8-8-13-2-10z" fill="#444343"/>
<path transform="translate(1339,867)" d="m0 0 69 1v1h-70v41l-3-2-2-4-11-9-12-11-8-7-3-5v-3l35-1z" fill="#0A090A"/>
<path transform="translate(1472,1328)" d="m0 0h27l11 5 2 2 333 1v1l-127 1h-245l-18-1 2-2 12-5z" fill="#828382"/>
<path transform="translate(1291,818)" d="m0 0 2 1-1 1-1 40-7-6-16-15-11-9-5-6 1-5z" fill="#080708"/>
<path transform="translate(1023,779)" d="m0 0 6 1 3 4 2 11 7 15 4 14 1 16v5l-4 1-6-9-4-24-5-2-10-7-5-7-2-12 1-2h3v2h7l1-5z" fill="#474646"/>
<path transform="translate(214,1312)" d="m0 0h36l3 2v2l4 2 12 12 7 8v24h-12l-1-1-1-36h-36l-12-12z" fill="#080708"/>
<path transform="translate(1120,751)" d="m0 0h37v38h-13l-4-9-6-12-9-10-5-5z" fill="#080708"/>
<path transform="translate(993,722)" d="m0 0h5l-1 2-9 3-8 4-5 5h-2l-2 4-6 10h-2v2h-2l-2 7-2 5h-2v2l-8 7-1 2-6 1-3 3h-2v2l-4 2h-7l1-5 3-6h4v-2h2l2-4 6-3h2l1-3 7-6 1-4 1-7 3-7 5-1v-2l7-3 4-1v-3l-3-3h16z" fill="#434242"/>
<path transform="translate(1e3 948)" d="m0 0h13l1 3 2 18 4 12 2 5 1 8-2 5-5-3-11-10-7-8-3-4 1-7 2-9 1-9z" fill="#E4E4E4"/>
<path transform="translate(221,1327)" d="m0 0 4 2 6 5 2 3v12l-13 1-8 7-3 4h-35v-12l44-1 2-1z" fill="#020102"/>
<path transform="translate(976,677)" d="m0 0h9l1 10-1 3h6l3 1v-4l3 1v7l-8-1-1 2h2l1 4 6 1-4 10-6 3-6-1-6-4-5-5-1-12 2-10z" fill="#434242"/>
<path transform="translate(1174,904)" d="m0 0h8l3 3 2 4 1 8-1 12-5 10-7 2-4-9-3-14v-14z" fill="#BDBEBE"/>
<path transform="translate(972,145)" d="m0 0 5 1 3 4 1 12 1 1 12 1 28 28 3 2-5 5-4 1-45-45-2-1v-5z" fill="#080708"/>
<path transform="translate(1039,730)" d="m0 0h17l5 6v2h2l5 12 1 9-44-1v-1l28-1-11-18-3-6z" fill="#7A7B7A"/>
<path transform="translate(1114,883)" d="m0 0 4 2 3 7 2 14 2 9v5l-4 5-8-1-1-7-5-16-2-7v-5l1-1-2-2h7v-2z" fill="#BBBCBC"/>
<path transform="translate(1011,1124)" d="m0 0 26 13 10 4 4 2-2 1-27-1-37-4-10-3-1-2 13-1h30l-2-3-5-2z" fill="#434242"/>
<path transform="translate(1024,730)" d="m0 0h7l9 6 7 11 4 4 3 6h-29l4-2h2l1-4 1-2-4-8-5-9z" fill="#E5E5E5"/>
<path transform="translate(1472,1328)" d="m0 0h27l11 5 1 4h-56l2-2 12-5z" fill="#040304"/>
<path transform="translate(264,1327)" d="m0 0 4 2 8 9v24h-12z" fill="#040304"/>
<path transform="translate(970,193)" d="m0 0h2l7 8 18 18v12l-4-2-23-23z" fill="#060506"/>
<path transform="translate(970,166)" d="m0 0 7 6 20 20v12l-4-2-23-23z" fill="#080708"/>
<path transform="translate(1077,167)" d="m0 0 2 2-1 11-5 5-6 7-8 7-4 5h-3v-12z" fill="#0B0A0B"/>
<path transform="translate(1076,195)" d="m0 0h2v11l-1 3-8 7-13 13-1 2h-3l1-12 1-3 8-7z" fill="#070607"/>
<path transform="translate(1133,1130)" d="m0 0 6 1 16 6v1h-29l-29-1 1-3 9-3h25z" fill="#434242"/>
<path transform="translate(172,1325)" d="m0 0 2 1v35h33v1h-34l-1-12-10-1-1-1v-11l7-8z" fill="#151415"/>
<path transform="translate(161,181)" d="m0 0h94v3h-94z" fill="#3E3D3D"/>
<path transform="translate(1061,1401)" d="m0 0 8 1 2 4 1-4 7-1h10v12h-11l-1-4 1-3h-2v5l-1 1h-8l-1 1h-6v-2l4-2h3l-1-4-6-1z" fill="#ADAEAD"/>
<path transform="translate(416,1180)" d="m0 0 3 1 2 3v6l-3-3-1-2v9h-13l-2-2-3 2h-8l-2-2v-8l2-3h6l4 2 1 7 5-2v4h5v-9z" fill="#4B4A4A"/>
<path transform="translate(985,1401)" d="m0 0h8l3 2v2h2v-4h10v2l7 2-1 8-5-1-2-6-3-2h-5v6l6-4 1 3-2 4-5 1-5-4-1-5h-5l-1 6 6-1-1 4h-5v-2l-3-1z" fill="#DCDDDD"/>
<path transform="translate(1313,159)" d="m0 0 6 1v2l4 1 4-3h5l2 3 1-3 4 2v8h-3v-5h-2v6l-6 1-6-3-1-4-2-1-1 6-3 1 2-9h-3l-1 10h-4v-5l3-7z" fill="#505050"/>
<path transform="translate(1782,1206)" d="m0 0 6 1 6 5 1 4 3-7h6v10h-11l-2-6v-2h-3v7l-4 2h-3v-2h-3l1-10z" fill="#7C7C7C"/>
<path transform="translate(221,1327)" d="m0 0 4 2 6 5 2 3v12l-14 1-1-2 2-1z" fill="#080708"/>
<path transform="translate(958,1401)" d="m0 0h22l2 2v9l-4 1-1-1v-8h-3v8l-4 1-4-4-1-4-4-1 1 5 4 2-1 2h-6l-1-1z" fill="#DCDCDC"/>
<path transform="translate(1461,1206)" d="m0 0 4 1v2l7 1-1 7-4 2-2-8-3-2v7l-3 5-2 2h-5l-2-2v-10l2-3h9z" fill="#CCCDCD"/>
<path transform="translate(931,713)" d="m0 0 10 1 7 9v9l2 4-1 3-10-11-8-12z" fill="#BDBEBE"/>
<path transform="translate(160,147)" d="m0 0 95 1v2h-95z" fill="#242323"/>
<path transform="translate(1056,765)" d="m0 0 6 1 6 4 4 5v2l3 1 3 5v2l-3 2-4-1-8-7-7-11z" fill="#434242"/>
<path transform="translate(1023,1400)" d="m0 0 6 1 3 3v8l-8 3-5-1-3-8v-5z" fill="#2D2C2D"/>
<path transform="translate(167,1181)" d="m0 0h11l3 3v8l-6 2h-6l-4-3v-8h2z" fill="#3E3E3E"/>
<path transform="translate(1690,1141)" d="m0 0h2v2h7 4l2 2-1 8h-10l-1 1h-5l-2-2v-8z" fill="#C7C7C7"/>
<path transform="translate(941,638)" d="m0 0h8l-3 2-10 4-8 7h-2l-2 4-6 9-5 5-3 2 1-6 6-10 6-7 11-7z" fill="#4A4A49"/>
<path transform="translate(1e3 948)" d="m0 0 2 1-2 15-3 10-7-5v-2h-2l2-4 2-5 2-6 2-2h4z" fill="#7E7F7E"/>
<path transform="translate(1603,1203)" d="m0 0h2v6l8 1-1 8 3-3 1-4 5-2h6l1 2v6l-2 5-6 1v-3l4-3 1-6-5 1-1 6-5 2-4-1v-7h-3l-1 7-4 1z" fill="#454545"/>
<path transform="translate(529,1181)" d="m0 0h2v11l5-2 2-8 2-1h8l1 2v10l-6 1-3-2 1-5h-1l-2 6-1 1h-8z" fill="#484847"/>
<path transform="translate(1017,1250)" d="m0 0 4 1 6 5 1-4 5 1v11l-2 2h-11v-3l3-1 1-4-4-1-3-3z" fill="#D4D4D4"/>
<path transform="translate(1430,160)" d="m0 0h14l-1 11-6 1-8-2v-9z" fill="#B0B0B0"/>
<path transform="translate(261,1180)" d="m0 0 7 1 3 2-1 9-2 2h-8l-2-4v-9z" fill="#3B3B3B"/>
<path transform="translate(1507,1176)" d="m0 0 8 1 2-1h6l1 1v9l-1 1h-5v-2l2-1 1-4-4 1-2 5-8 1-2-1v-6z" fill="#393939"/>
<path transform="translate(465,1180)" d="m0 0h4v12h10l-1-7-2-4 4 2v2h2l1-4 4 1 3 5 1 7-4-1-1-7-3-2v9l-2 1h-16z" fill="#4F4F4F"/>
<path transform="translate(1637,1209)" d="m0 0h8l2 2v8l-5 4h-5l-2-3v-8z" fill="#0F0E0F"/>
<path transform="translate(1486,1206)" d="m0 0h3l1 3 9 2v7l-9 2h-5l-1-1 1-12z" fill="#DFDFDF"/>
<path transform="translate(454,1180)" d="m0 0h6v14h-10l-2-2 1-6 3-5z" fill="#585858"/>
<path transform="translate(1072,145)" d="m0 0 5 1 2 3-1 5-8 7-4 4-10-1v-1l10-1 2-12z" fill="#212021"/>
<path transform="translate(1677,161)" d="m0 0 3 2 1 5h2l4-6h11l-1 6-2-3v-2h-2l1 7h3v2h-7l-2-5-2 5-3 1-4-2-3 1v-10z" fill="#E2E2E2"/>
<path transform="translate(1787,1142)" d="m0 0 5 1 1 1v10l-4 3-5-1-3-3 1-6z" fill="#222"/>
<path transform="translate(518,1331)" d="m0 0h3v13h-10l-2-3-2 1-1-8 3 1 1 4h2l2-5z" fill="#494949"/>
<path transform="translate(428,1180)" d="m0 0 7 1 2 7v4l3-1 1-7v-3h4v9l-4 4-8-1 1-7-3-3-3-1-2 10h2v2l-6-1 3-10z" fill="#484848"/>
<path transform="translate(1024,802)" d="m0 0 10 3 4 5 1 7-5-2-10-6-2-3v-3z" fill="#DEDEDE"/>
<path transform="translate(441,1330)" d="m0 0 2 1 1 4 2 1-1 6-3 3h-6l-2-1v-8z" fill="#393939"/>
<path transform="translate(529,1331)" d="m0 0 5 1 3 4h5l-2 5-3 4h-8l-1-1v-8z" fill="#D9D9D9"/>
<path transform="translate(972,145)" d="m0 0 5 1 3 4 1 14-7-6-5-4v-5z" fill="#0E0E0E"/>
<path transform="translate(764,499)" d="m0 0 6 1 2 3-1 8-2 1h-7l-1-1v-10z" fill="#CFCFCF"/>
<path transform="translate(965,638)" d="m0 0h11l10 4-3 1-7-2-11-1-1 3-4 2v1h-14l2-1v-2h2v-3z" fill="#BDBEBE"/>
<path transform="translate(1061,1401)" d="m0 0 8 1 2 4 1-4h6l-2 9-1 1h-8l-1 1h-6v-2l4-2h3l-1-4-6-1z" fill="#DFDFDF"/>
<path transform="translate(1903,1331)" d="m0 0 4 1 2 11h-6l1-8-4 3-3 5-7-1-1-5 3-5 5 1-4 2-1 6 5-3z" fill="#474646"/>
<path transform="translate(1142,500)" d="m0 0h6l2 2v9l-2 1-9-1v-7z" fill="#595959"/>
<path transform="translate(374,1331)" d="m0 0 3 1v9l-1 3-5 1-7-2 4-8z" fill="#A4A4A4"/>
<path transform="translate(922,500)" d="m0 0h6l3 2v8l-1 1h-10v-8z" fill="#4A4A4A"/>
<path transform="translate(836,500)" d="m0 0 8 2-2 9-5 1 1-7h-3l-2 6h-4l-1-4-1-6 4 1v2h3z" fill="#585858"/>
<path transform="translate(1790,161)" d="m0 0h3v12h-7l-1-3h-5v2h-6l4-4 2-6 5 1 4 7z" fill="#D2D2D2"/>
<path transform="translate(1729,161)" d="m0 0 3 1v2l3 1 2 4 1-7h3v9h4v2h-9l-4-4-5 2v2l-4-1 4-5z" fill="#D8D8D8"/>
<path transform="translate(1667,1239)" d="m0 0h2l1 2 5 3v7h-2v2l-8 1 1-14z" fill="#323232"/>
<path transform="translate(1855,1176)" d="m0 0h10l2 1v9l-5 1-2-2v-7l-2 1-2 7-5 1v-2h2z" fill="#AEAEAE"/>
<path transform="translate(1061,500)" d="m0 0h6l1 1v9l-3 2-7-1v-10z" fill="#4B4B4B"/>
<path transform="translate(117,498)" d="m0 0 10 3 3 2v2l-9 3h-6l-2-3 1-5z" fill="#181717"/>
<path transform="translate(1771,161)" d="m0 0 3 1v4h-2v7h-9l-1-2v-7l2-2z" fill="#828282"/>
<path transform="translate(1645,1240)" d="m0 0h2l-1 9 1-1 2-4 7-1 2 5 1-5 4 1-3 7-2 2h-4v-7h-4v6l-1 1h-5v-9z" fill="#2F2E2E"/>
<path transform="translate(1108,1123)" d="m0 0 5 2 7 1v-2l5 2 4 4h-26l-4 3-2-1 9-8z" fill="#BDBEBE"/>
<path transform="translate(1803,1176)" d="m0 0h5l1 1v9l-1 1-7-1v-2h-3l-1-7z" fill="#404040"/>
<path transform="translate(1464,160)" d="m0 0h11l2 2 1 5 2 1 2-8 4 2 2 5v3h-3v-5l-4 4-2 3-4-1 1-3-2-1-1 3h-2l1-4h2l-1-3h-8z" fill="#565656"/>
<path transform="translate(403,1331)" d="m0 0 5 2 1 1v7l-1 3-5 1v-2h-4l1-8z" fill="#CDCDCD"/>
<path transform="translate(1431,1242)" d="m0 0h6l3 2-1 7-4 2h-6v-9z" fill="#313131"/>
<path transform="translate(1101,1130)" d="m0 0m-1 1m-1 1 1 2-3 3h29l26 1v1h-56l-3-1v-2z" fill="#7E7F7E"/>
<path transform="translate(1522,1242)" d="m0 0h10l1 1v10l-7 1-2-1-1-9z" fill="#999"/>
<path transform="translate(1554,1175)" d="m0 0 4 2 1 1v7l-3 2h-5l-2-2v-8z" fill="#3E3E3E"/>
<path transform="translate(1666,1175)" d="m0 0 6 1 1 7-2 3h-7l-2-1 1-8z" fill="#4C4B4B"/>
<path transform="translate(1713,1138)" d="m0 0h3l-2 13 2-1 2-6 4-1v-2l4 2 1 1v9h-3v-8l-3-1-2 9-5 1-2-1v-9z" fill="#3C3C3C"/>
<path transform="translate(1883,1207)" d="m0 0h7v12h-9l-1-3z" fill="#7F7F7F"/>
<path transform="translate(1818,1176)" d="m0 0h17v10h-3v-8h-4v7l-1 1h-5l1-2h2v-5h-5l-1 6h-2v-8z" fill="#2F2E2E"/>
<path transform="translate(1098,1006)" d="m0 0 8 1 6 3-1 6-5 1-4-3v-2l-3-1z" fill="#BDBEBE"/>
<path transform="translate(1926,493)" d="m0 0h5l3 3v5l-2 2h-5l-8-3v-3h6z" fill="#E1E1E1"/>
<path transform="translate(204,1181)" d="m0 0 5 2v2h2v4h2l2-6 3-2h5l-3 2-2 1-4 10-4-1-3-8-2-1-1 10h-3l1-7z" fill="#232223"/>
<path transform="translate(1542,1242)" d="m0 0h6l2 1v10h-9v-8z" fill="#858585"/>
<path transform="translate(1110,853)" d="m0 0 5 2 4 4 1 6-10-2-2-3v-5z" fill="#434242"/>
<path transform="translate(931,713)" d="m0 0h3v2l3 1 9 12-1 4-5-3-9-13z" fill="#E1E1E1"/>
<path transform="translate(963,500)" d="m0 0h7l1 1v11h-7l-1-2z" fill="#B8B9B9"/>
<path transform="translate(1821,1207)" d="m0 0h4l-1 11 4-2v-6l-1-3 5 2v10l-7 1-4-1z" fill="#3A3A3A"/>
<path transform="translate(1568,1240)" d="m0 0h3l-1 13-9 1-3-2v-7l1-3h6v2l-3 2v5l5-1z" fill="#555554"/>
<path transform="translate(234,1181)" d="m0 0h2v11l4-1-1 3h-20v-3l2-4h2v5l3-1 2-8 2 2 2 7 2-4z" fill="#262526"/>
<path transform="translate(1745,1141)" d="m0 0 1 2 3 1-1 9-1 1-7-1v-8z" fill="#929292"/>
<path transform="translate(335,1330)" d="m0 0h6v3l-4 1-2 10 5-2-1-6 4 1v6l-3 2h-7l-1-4 1-10z" fill="#4D4C4C"/>
<path transform="translate(1451,1209)" d="m0 0 3 1-2 10 4-2 2-9h3v10l-4 4h-5l-2-2v-10z" fill="#232323"/>
<path transform="translate(1700,1142)" d="m0 0 5 2-1 9-9-1-1-8z" fill="#898989"/>
<path transform="translate(1450,1141)" d="m0 0 5 3-1 9h-6l-2-2v-8z" fill="#8A8A8A"/>
<path transform="translate(1888,1140)" d="m0 0h6l3 4-3 9-2-1 1-2v-6l-1-1-2 9-4 2-3-2-1-7 3-1 1 7h1z" fill="#454545"/>
<path transform="translate(416,1180)" d="m0 0 3 1 2 3v6l-3-3-1-2v9h-13v-3l8 1v-9z" fill="#262526"/>
<path transform="translate(169,1182)" d="m0 0h6l3 2v6l-9 1-2-1v-6z" fill="#E0E0E0"/>
<path transform="translate(1497,1175)" d="m0 0 4 1 1 1v8l-4 2-4-1-1-10z" fill="#6C6C6C"/>
<path transform="translate(1772,1142)" d="m0 0 6 1 1 4-3 6-5 1-1-1v-10z" fill="#3E3E3E"/>
<path transform="translate(1692,1209)" d="m0 0h7l1 8 2-1 1-7h4l-2 9-1 1h-6l-1-1-1-7-2 1-2 7-4-1 2-2z" fill="#2D2D2D"/>
<path transform="translate(1633,1143)" d="m0 0h5l2 2v8l-7 1-2-1 1-9z" fill="#666"/>
<path transform="translate(1526,1139)" d="m0 0h2l-1 6-1 9h-5l3-10-4 3-1 6h-3v-10l9-1z" fill="#2F2E2E"/>
<path transform="translate(1452,159)" d="m0 0 7 1 3 3v7l-4 1v-9l-3 1 1 9h-5l-1-11z" fill="#636362"/>
<path transform="translate(306,159)" d="m0 0h3l2 9h3l2-8 4-1-2 8-3 3-9-1z" fill="#2A2A2A"/>
<path transform="translate(1313,159)" d="m0 0 6 1v2l5 2v4h-2l-1-3-2-1-1 6-3 1 2-9h-3l-1 10h-4v-5l3-7z" fill="#3D3D3D"/>
<path transform="translate(1703,162)" d="m0 0h4l2 5 2-4 3 2v7h-5l-2-3h-2l-2 4h-2v-4h2l-1-6z" fill="#B3B4B3"/>
<path transform="translate(1729,1242)" d="m0 0 5 1v9l-1 1h-5l-3-1v-6l1-2z" fill="#919191"/>
<path transform="translate(1495,1239)" d="m0 0h4l5 5-1 8-5 1 1-2v-8h-2l-2 10h-2l1-13z" fill="#474646"/>
<path transform="translate(947,500)" d="m0 0 4 1-1 9 3-1v-7l-1-2 5 1v10l-1 1h-9z" fill="#373737"/>
<path transform="translate(502,1180)" d="m0 0 8 1 3 4-1 9h-6l3-2v-8l-5-2v12h-4l1-13z" fill="#474747"/>
<path transform="translate(194,1181)" d="m0 0 5 2v5h-2l-2 4-2 2h-5l-2-6v-6h3v10l3-1 2-3z" fill="#363535"/>
<path transform="translate(1469,1139)" d="m0 0 3 1 1 8-2 6h-5l1-2h2l2-9h-4l-2 10-3-1v-6l5-5z" fill="#3D3D3D"/>
<path transform="translate(1535,1209)" d="m0 0h6l2 1-1 3-1-2h-4l1 7 4-2 3-5h2l-1 5-8 6h-5z" fill="#242324"/>
<path transform="translate(1044,1402)" d="m0 0h6l3 6v4l-6 1-3-2z" fill="#DDDEDE"/>
<path transform="translate(998,1401)" d="m0 0h10v2l7 2-1 8-5-1-2-6-3-2v-2h-6z" fill="#D4D4D4"/>
<path transform="translate(971,1401)" d="m0 0h9l2 2v9l-4 1-1-1v-8l-3-1-2-1v5l-2-4-2-1z" fill="#C0C0C0"/>
<path transform="translate(1588,1173)" d="m0 0h4l-2 12h6v-6l-1-2 6 1-1 6-4 3h-7l-1-1z" fill="#383838"/>
<path transform="translate(1453,1176)" d="m0 0h8v10l-6 1-1-1z" fill="#9A9A9A"/>
<path transform="translate(1259,500)" d="m0 0 4 1 3 7h3l1-8h3v8l-2 3h-9l-2-6z" fill="#302F30"/>
<path transform="translate(1513,1209)" d="m0 0h7l1 5-2 5-4 1-2-1z" fill="#5B5B5B"/>
<path transform="translate(1578,1209)" d="m0 0 13 1 1 1v7l-4 1v-7l-2 1v-2h-4v8l-4 1z" fill="#4B4A4A"/>
<path transform="translate(1482,1242)" d="m0 0h3l1 2v9l-5 1-2-2 1-9z" fill="#606060"/>
<path transform="translate(1739,1209)" d="m0 0h4l2 5-1 6h-6l-1-2v-7z" fill="#B8B8B8"/>
<path transform="translate(330,1180)" d="m0 0 2 1v8l-1 2h3l-1 3h-7l-2-1v-12l4 1v8l2 1z" fill="#5E5E5E"/>
<path transform="translate(261,1182)" d="m0 0 7 1v8l-7 1-1-2v-7z" fill="#E0E0E0"/>
<path transform="translate(1623,1173)" d="m0 0 4 1 1 2v9l-3 2-8-1v-9l3-1v8l5-1-1-7z" fill="#333233"/>
<path transform="translate(1479,1141)" d="m0 0h2l-2 4v6l4 1 1-8h4l-1 8-4 2h-6l-2-5 1-5z" fill="#3F3E3E"/>
<path transform="translate(1806,1140)" d="m0 0h3l2 4-1 8-2 2-3-1 4-10-4 1-2 9h-3v-8z" fill="#262526"/>
<path transform="translate(1783,1208)" d="m0 0 4 1 3 2h-2v7l-4 2h-3l1-10z" fill="#444"/>
<path transform="translate(504,1181)" d="m0 0 6 3v8l-5 2-2-5v-7z" fill="#DFDFDF"/>
<path transform="translate(1434,1139)" d="m0 0 4 1v4l-3 3-2 6h-3l-2-8v-5h3v6l2-1z" fill="#323132"/>
<path transform="translate(331,159)" d="m0 0 5 1 1 4h-2l-1 6-5 1v-9z" fill="#888887"/>
<path transform="translate(1603,1203)" d="m0 0h2v6l8 1v8l1 2-4-1v-7h-3l-1 7-4 1z" fill="#404040"/>
<path transform="translate(394,1182)" d="m0 0 4 1 2 4-1 5-7-1-1-1v-6z" fill="#E3E3E3"/>
<path transform="translate(744,500)" d="m0 0h5l-3 11 5-2v-7l-1-2 4 1v11h-9l-1-1z" fill="#4F4F4E"/>
<path transform="translate(1016,1401)" d="m0 0h8v3h-2l1 9-5-1-2-6z" fill="#D3D3D3"/>
<path transform="translate(1842,1209)" d="m0 0h5l4 4-1 5-7 1z" fill="#696969"/>
<path transform="translate(282,1181)" d="m0 0h3v13h-11l-1-5 2-4 2 6 4 1z" fill="#3F3E3E"/>
<path transform="translate(1681,1175)" d="m0 0 4 1-2 1-1 8 4-1 1-8h2v6l3-4-1 7-9 2-3-3v-7z" fill="#434343"/>
<path transform="translate(1281,500)" d="m0 0h2v9h5l-2-9 4 1 1 1-1 8-4 2-6-1v-10z" fill="#444443"/>
<path transform="translate(316,1180)" d="m0 0 2 1v13l-5-1v-9l-1 6h-1v-7z" fill="#3E3D3D"/>
<path transform="translate(1574,1175)" d="m0 0 6 1v10h-3v-8l-3-1-1 7-2 2h-3l3-9z" fill="#302F30"/>
<path transform="translate(1314,162)" d="m0 0h3l-1 7-1 2 2-1 2-6 3 1v4l2 1-4 2h-7l-1-5z" fill="#DADADA"/>
<path transform="translate(985,1401)" d="m0 0h8l1 2-6 2-1 6 6-1-1 4h-5v-2l-3-1z" fill="#D0D1D1"/>
<path transform="translate(587,1333)" d="m0 0h3v7l2 1v-6l3 1v7l-8 1-1-1v-7z" fill="#4C4C4C"/>
<path transform="translate(1567,1209)" d="m0 0h2l-1 10 4-1v-7l-1-2 4 1v9l-1 1h-8l-1-5z" fill="#4B4B4B"/>
<path transform="translate(1614,1143)" d="m0 0 3 1v6l2 1v-8h3v9l-4 2-5-4v-6z" fill="#3B3A3A"/>
<path transform="translate(1471,162)" d="m0 0 3 1v3h-2v5l-2 1h-6l3-9z" fill="#B3B3B3"/>
<path transform="translate(476,1333)" d="m0 0 4 1 2 2v9h-3v-9l-5-1v9h-2v-10z" fill="#3D3D3D"/>
<path transform="translate(1461,1242)" d="m0 0 3 1v8h2v-7l4 1-1 5-2 3h-5l-1-1z" fill="#555"/>
<path transform="translate(1825,1141)" d="m0 0h3l-1 14-5 1v-3h2v-8l-2 4h-2v-5z" fill="#2F2E2F"/>
<path transform="translate(1782,1206)" d="m0 0 6 1 5 4-1 3-2-3-7-3-2 10h-3l1-10z" fill="#232223"/>
<path transform="translate(1314,500)" d="m0 0h4l1 12h-5l-1-1v-10z" fill="#525252"/>
<path transform="translate(1072,1402)" d="m0 0h6l-2 9-1 1h-6l-1-2h2l1-4z" fill="#D5D6D6"/>
<path transform="translate(261,1323)" d="m0 0 4 4-1 34h-1l-1-36h-18v-1z" fill="#4D4D4D"/>
<path transform="translate(1430,1209)" d="m0 0h9l1 4-2 6-3-1 2-7h-5l-1 7-3 1 1-9z" fill="#353434"/>
<path transform="translate(1464,1177)" d="m0 0h3v8h4v-8h3l-1 9-1 1-8-1z" fill="#2E2E2E"/>
<path transform="translate(1548,1142)" d="m0 0 10 1v7l-3-3v-2h-3v8l-4 1 1-10-2-1z" fill="#363636"/>
<path transform="translate(454,1182)" d="m0 0 5 1-1 8-6 1v-7z" fill="#E3E3E3"/>
<path transform="translate(1582,1242)" d="m0 0h2l-1 10 3-3-1-6 4 2v6l-2 2h-6l-1-1v-9z" fill="#3C3B3B"/>
<path transform="translate(1486,1206)" d="m0 0h3l1 4h-2v7h5v2l-8 1-1-1 1-12z" fill="#2B2A2B"/>
<path transform="translate(1755,1142)" d="m0 0 6 2-1 5-3 5h-4l-2-4v-5l3-1v8l2-1 1-4z" fill="#2D2C2C"/>
<path transform="translate(1622,1174)" d="m0 0 4 4v5l-2 2-5-1v-9z" fill="#CECECE"/>
<path transform="translate(761,501)" d="m0 0h2v10l5-2v-8l4 2-1 8-2 1h-7l-1-1z" fill="#2F2F2F"/>
<path transform="translate(1096,500)" d="m0 0 3 1 3 10-4-1-1-6h-2l-1 6-4 1 4-10z" fill="#414141"/>
<path transform="translate(1172,500)" d="m0 0 3 1-1 1-1 8h3v-10h2v11l-1 1h-6l-1-1 1-10z" fill="#323131"/>
<path transform="translate(1127,501)" d="m0 0h4l3 10-2 1-2-1-1-6-4 6-3 1 2-5z" fill="#424141"/>
<path transform="translate(357,1333)" d="m0 0h5l2 3-1 8h-2v-9l-3 1-3 8h-2l1-8z" fill="#4B4B4B"/>
<path transform="translate(598,1331)" d="m0 0 5 1v11l-4 1-1-4z" fill="#3A393A"/>
<path transform="translate(1681,1242)" d="m0 0 4 1 2 10h-4v-6h-2v5l-4 1 3-10z" fill="#424242"/>
<path transform="translate(1727,1209)" d="m0 0 3 1-3 1v7l5-2 1-6 2 1v6l-4 3-7-1 1-9z" fill="#2B2A2A"/>
<path transform="translate(1634,1176)" d="m0 0 1 2v5h2l1-6h3v7l-5 3h-4v-9z" fill="#353434"/>
<path transform="translate(1328,161)" d="m0 0 4 2 1 5-3 3-3-1v-2h-2l1-5z" fill="#E1E1E1"/>
<path transform="translate(561,1333)" d="m0 0h3l1 3v8l-4 1-1-2 2-4-1-3-3 5h-2l1-5z" fill="#4B4B4A"/>
<path transform="translate(882,1081)" d="m0 0 4 1h12l1 2-1 2-18-1z" fill="#969796"/>
<path transform="translate(924,501)" d="m0 0 5 2v6l-6 1-1-1v-7z" fill="#E0E0E0"/>
<path transform="translate(852,501)" d="m0 0 5 1 3 7v3l-4-2-1-4h-2l-2 5h-2l1-6z" fill="#353535"/>
<path transform="translate(343,160)" d="m0 0 4 1v7l-2 3h-5l-2-7 4-2v6l2-1z" fill="#252425"/>
<path transform="translate(1653,1206)" d="m0 0h2l-3 12 2-1 3-7h2l-1 7-3 2h-4l-2-9z" fill="#535352"/>
<path transform="translate(1593,1176)" d="m0 0 3 1 1 6-1 2h-6v-8z" fill="#D3D3D3"/>
<path transform="translate(1875,1142)" d="m0 0 4 1 1 2-2 9-4-1 2-3 1-6h-2l-2 8h-2v-6z" fill="#444"/>
<path transform="translate(1752,161)" d="m0 0 5 1v9l-5 1z" fill="#B8B8B8"/>
<path transform="translate(1027,1401)" d="m0 0 4 1 1 2v8l-5 1z" fill="#E3E3E3"/>
<path transform="translate(958,1402)" d="m0 0h6v2h-3l1 5 4 2-1 2h-6l-1-1z" fill="#E2E2E2"/>
<path transform="translate(1429,1176)" d="m0 0h5l-3 9h3l1-6 3-1-1 7-2 1h-6z" fill="#363636"/>
<path transform="translate(1771,161)" d="m0 0 3 2-5 1-2 1-1 7-4-1v-7l2-2z" fill="#DCDCDC"/>
<path transform="translate(302,1182)" d="m0 0h2v9l7-1 1 3-2 1h-10z" fill="#484848"/>
<path transform="translate(1820,1178)" d="m0 0h5l1 3-1 3-2 1 2 2-8-1 2-1v-6z" fill="#BEBEBE"/>
<path transform="translate(1481,1142)" d="m0 0 4 2-2 8-5-1v-6z" fill="#DADADA"/>
<path transform="translate(1498,1139)" d="m0 0 7 1 1 1v13h-3l-1-11z" fill="#363636"/>
<path transform="translate(1022,501)" d="m0 0h4l3 7v3h-3l-2-6-4 6h-2l2-6z" fill="#353535"/>
<path transform="translate(1482,160)" d="m0 0 4 2 2 5v3h-3v-5l-4 4-2 3-4-1 2-3h3z" fill="#393839"/>
<path transform="translate(413,1334)" d="m0 0 5 2 1 1v6l-5 1-1-1z" fill="#717171"/>
<path transform="translate(374,1331)" d="m0 0 3 1v9l-1 3-5 1-1-2 3-1v-7l-3-1z" fill="#444343"/>
<path transform="translate(1833,1143)" d="m0 0h7v9h-1l-1-8h-2l-1 10h-3v-10z" fill="#2D2D2D"/>
<path transform="translate(1143,502)" d="m0 0h5v7l-6 1-1-1v-5z" fill="#E2E2E2"/>
<path transform="translate(1052,1402)" d="m0 0 6 1 2 2-1 5h-4l-3-5z" fill="#DADBDB"/>
<path transform="translate(1635,1238)" d="m0 0h2l-1 15h-6v-2l2-1z" fill="#383838"/>
<path transform="translate(1638,1211)" d="m0 0h5l1 1v5l-4 3h-3z" fill="#D8D8D8"/>
<path transform="translate(1462,1206)" d="m0 0 3 1v2l7 1-1 7-4 2-2-8-3-2z" fill="#403F3F"/>
<path transform="translate(1729,1208)" d="m0 0 5 1-1 7-3 2h-3v-7l2-2z" fill="#C7C7C7"/>
<path transform="translate(1569,1142)" d="m0 0 4 1 1 1v9l-5 1 2-8v-2l-3 3-2 3v-6z" fill="#2A2A2A"/>
<path transform="translate(1805,1143)" d="m0 0h4l-1 6-2 4 1 2h-3l-1-2v-7z" fill="#D9D9D9"/>
<path transform="translate(1765,1138)" d="m0 0h2v13l-1 3h-3l1-8 1-3h-2v-4z" fill="#3B3A3B"/>
<path transform="translate(1214,501)" d="m0 0h4l2 6v4l-3-1-1-5-2 2-2 4h-2l3-9z" fill="#2C2B2C"/>
<path transform="translate(988,1404)" d="m0 0h5l2 6-1 3-1-3-6 1v-6z" fill="#2E2D2E"/>
<path transform="translate(1658,1140)" d="m0 0h4l-1 9-2 4h-6l1-2h4z" fill="#3E3D3D"/>
<path transform="translate(748,501)" d="m0 0 4 1v7l-3 2h-3l1-9z" fill="#DFE0E0"/>
<path transform="translate(1769,1209)" d="m0 0h5l-1 4-3 1 4 3v3l-5-1-1-7z" fill="#3B3B3B"/>
<path transform="translate(1770,1175)" d="m0 0 5 2-1 7h-1l-1-6h-2l-1 8h-3v-8z" fill="#302F30"/>
<path transform="translate(1844,1142)" d="m0 0h2l-1 10h2l1-7h3l-1 6h-2l-1 3-4-1-1-5z" fill="#343434"/>
<path transform="translate(1018,697)" d="m0 0 3 1 2 5v8l-4-1z" fill="#BDBEBE"/>
<path transform="translate(1062,501)" d="m0 0 4 1 1 4-1 3-6 1v-7z" fill="#E1E1E1"/>
<path transform="translate(518,1331)" d="m0 0h3v13h-10l1-4 2 2 4-1z" fill="#272626"/>
<path transform="translate(1456,161)" d="m0 0 3 1v8l1 2-4 1-2-5v-5z" fill="#E1E1E1"/>
<path transform="translate(529,1331)" d="m0 0 5 1-2 4-1 8h-3v-8z" fill="#2D2C2D"/>
<path transform="translate(1711,1206)" d="m0 0h2v12l-2 2h-5l1-2h3v-11z" fill="#393939"/>
<path transform="translate(1844,1176)" d="m0 0 3 1 1 3 1-3h3v3h-2v2h-2l-1 4h-2l-2-9z" fill="#2E2D2D"/>
<path transform="translate(1520,1176)" d="m0 0 4 1v9l-1 1h-5v-2l2-1 1-4h-4v-2z" fill="#333"/>
<path transform="translate(1685,1175)" d="m0 0h2v9l-5 1v-8z" fill="#D4D4D4"/>
<path transform="translate(1598,1142)" d="m0 0h2v12h-4v-11z" fill="#3A3A3A"/>
<path transform="translate(1303,160)" d="m0 0 4 1-1 7-3 3h-3l2-10z" fill="#393939"/>
<path transform="translate(1904,1331)" d="m0 0 3 1 2 11h-6l1-6z" fill="#282728"/>
<path transform="translate(1607,1240)" d="m0 0h2l2 4-1 8-7 1 1-3h3l1-6z" fill="#444"/>
<path transform="translate(1637,1209)" d="m0 0h8l-2 3-5-1-1 9 2 1-3 1-1-2v-8z" fill="#363636"/>
<path transform="translate(289,1181)" d="m0 0h4l1 10 1 3-5-1z" fill="#3D3D3D"/>
<path transform="translate(1539,1143)" d="m0 0 5 1 1 6-4 4 1-8-2-1-1 7h-2v-8z" fill="#363536"/>
<path transform="translate(1787,1144)" d="m0 0h3v8l-2 2h-3v-8z" fill="#D9D9D9"/>
<path transform="translate(1467,1143)" d="m0 0h4v6l-5 5h-1l1-9z" fill="#D6D6D6"/>
<path transform="translate(1031,712)" d="m0 0 4 2 8 6 3 3-3 1-5-3-7-7z" fill="#757675"/>
<path transform="translate(1015,677)" d="m0 0 3 3 7 16-1 2-4-7-5-10z" fill="#B4B5B5"/>
<path transform="translate(1033,1401)" d="m0 0 5 1v10h-3z" fill="#DBDBDB"/>
<path transform="translate(1861,1209)" d="m0 0 6 1 2 5v4h-2l-1-8h-2l-1 8h-2z" fill="#353435"/>
<path transform="translate(441,1181)" d="m0 0h4v9l-2 3h-5l3-4z" fill="#252424"/>
<path transform="translate(167,1181)" d="m0 0h11l3 3v8h-3l-1-8-10-2z" fill="#3F3E3E"/>
<path transform="translate(1760,1176)" d="m0 0h3v11h-5z" fill="#434243"/>
<path transform="translate(1490,161)" d="m0 0h3l1 9h3v2l-6 1-2-3z" fill="#4E4E4E"/>
<path transform="translate(421,1333)" d="m0 0 4 1 1 10-5 1v-9z" fill="#424242"/>
<path transform="translate(1525,1209)" d="m0 0 5 1v8h-2l-1-3-1 4h-3z" fill="#1E1D1D"/>
<path transform="translate(1825,1207)" d="m0 0h2l2 3v6l-2 2h-3z" fill="#DFE0E0"/>
<path transform="translate(234,1181)" d="m0 0h2v11l4-1-1 3h-8l-4-2h6l1-6z" fill="#3A3A3A"/>
<path transform="translate(1479,1173)" d="m0 0 3 1v11l-4 1v-11z" fill="#353434"/>
<path transform="translate(1442,1139)" d="m0 0h2l-1 5-1 8-4 1 1-8z" fill="#323131"/>
<path transform="translate(998,1406)" d="m0 0 1 4 6-4 1 3-2 4-5 1-3-3h2z" fill="#BABABA"/>
<path transform="translate(492,1334)" d="m0 0 5 1-1 7-2 3-4-1v-2l2-1z" fill="#2A2A2A"/>
<path transform="translate(574,1330)" d="m0 0 3 1v13h-3z" fill="#505050"/>
<path transform="translate(1706,1242)" d="m0 0 6 1 2 1v2h2l-1 7h-3v-8h-6z" fill="#373737"/>
<path transform="translate(1490,1210)" d="m0 0 9 1v7l-5-1-1-4z" fill="#313031"/>
<path transform="translate(1748,1209)" d="m0 0h5l-1 11h-4z" fill="#2F2F2F"/>
<path transform="translate(416,1180)" d="m0 0 3 1 2 3v6l-3-3-1-2-1 6h-1l-1-7-2 2 1-4z" fill="#5A5A5A"/>
<path transform="translate(1603,1176)" d="m0 0h5l-1 8-1 3h-4l1-9z" fill="#2C2B2C"/>
<path transform="translate(1582,1140)" d="m0 0 5 1v2l-2 1-2 10h-2z" fill="#3C3B3C"/>
<path transform="translate(976,700)" d="m0 0 1 2 5 2 1 4-4 1-4-3z" fill="#7F807F"/>
<path transform="translate(1246,500)" d="m0 0 5 1-1 9-4 1 1-8h-3v-2z" fill="#464646"/>
<path transform="translate(951,499)" d="m0 0 3 1v2 7l-4 2-1-3z" fill="#DADADA"/>
<path transform="translate(1799,161)" d="m0 0h5l-1 11h-3l-1-4z" fill="#D6D6D6"/>
<path transform="translate(440,1334)" d="m0 0h2v7l-4 1-1 2-1-4 2-5z" fill="#E0E0E0"/>
<path transform="translate(337,1333)" d="m0 0 4 3h-2l1 6-5 2v-8z" fill="#DADADA"/>
<path transform="translate(1625,1242)" d="m0 0 5 1-1 6-1 4h-5l-1-2 4-2z" fill="#343334"/>
<path transform="translate(1821,1207)" d="m0 0h4l-1 11-3 1z" fill="#353535"/>
<path transform="translate(518,1182)" d="m0 0h3v12h-4v-11z" fill="#3D3D3D"/>
<path transform="translate(1464,1176)" d="m0 0h8l-1 9h-4v-8z" fill="#C8C9C8"/>
<path transform="translate(1787,1142)" d="m0 0 5 1 1 1v10l-3-2v-8l-5 2v-3z" fill="#333232"/>
<path transform="translate(1715,161)" d="m0 0h9v4l-4-1v7h-2l-2-7z" fill="#D0D0D0"/>
<path transform="translate(1677,161)" d="m0 0 3 2 1 5 2 2-7 2v-10z" fill="#DDDEDE"/>
<path transform="translate(218,1181)" d="m0 0h5l-3 2-2 1-4 10-4-1 1-2h1l2-6z" fill="#444343"/>
<path transform="translate(483,1181)" d="m0 0 4 1 3 5 1 7-4-1-1-10h-3z" fill="#2B2B2B"/>
<path transform="translate(493,1181)" d="m0 0h3l1 13h-5l1-6z" fill="#292929"/>
<path transform="translate(1702,1176)" d="m0 0 4 1-2 8 5-1-2 3-5-1z" fill="#2A2929"/>
<path transform="translate(1751,1173)" d="m0 0h3l1 4v9h-3z" fill="#2D2D2D"/>
<path transform="translate(1569,1144)" d="m0 0h2l1 4-2 5 1 2h-3l-2-5z" fill="#C5C5C5"/>
<path transform="translate(1028,701)" d="m0 0h2l5 5 10 7-2 1-12-7-3-4z" fill="#616160"/>
<path transform="translate(1738,162)" d="m0 0h3v9h4v2h-5l-3-3z" fill="#BDBEBD"/>
<path transform="translate(1806,161)" d="m0 0 4 1 2 5v5h-4z" fill="#D7D7D7"/>
<path transform="translate(961,1404)" d="m0 0 5 1 2 6 2 2h-5v-2l-4-2z" fill="#333"/>
<path transform="translate(534,1334)" d="m0 0 3 2h5l-2 5-3 3h-2z" fill="#535252"/>
<path transform="translate(516,1334)" d="m0 0h3v7l-2 2h-3v-6z" fill="#E0E0E0"/>
<path transform="translate(395,1333)" d="m0 0h3v9l1 2h-6z" fill="#373737"/>
<path transform="translate(1605,1241)" d="m0 0 1 2-1 3-4 1v5h-2l-1-9z" fill="#4A4A4A"/>
<path transform="translate(1432,1244)" d="m0 0h5v5l-4 3-2-2v-5z" fill="#DFDFDF"/>
<path transform="translate(1563,1207)" d="m0 0 2 1-2 4-4-1v8h-3l1-9 1-1h5z" fill="#2C2B2C"/>
<path transform="translate(1670,1206)" d="m0 0h3v8l-1 5h-3z" fill="#242324"/>
<path transform="translate(431,1183)" d="m0 0 3 1 1 5-2 4 2 1h-3v-3l-3 1z" fill="#B4B4B4"/>
<path transform="translate(1553,1177)" d="m0 0 4 1v6l-5 2v-8z" fill="#ddd"/>
<path transform="translate(1855,1142)" d="m0 0h3l-1 6v3l3-3-1 5-5 1z" fill="#383838"/>
<path transform="translate(1440,160)" d="m0 0h4l-1 11-6 1v-2l3-2z" fill="#3F3E3E"/>
<path transform="translate(1430,160)" d="m0 0h4l-1 10-3 1-1-1v-9z" fill="#4A4A49"/>
<path transform="translate(501,1333)" d="m0 0h3l-2 11h-4l2-10z" fill="#2E2D2D"/>
<path transform="translate(1897,1333)" d="m0 0 4 1-5 6-4 1 1-6z" fill="#D8D9D9"/>
<path transform="translate(1501,1209)" d="m0 0 4 1 1 1-1 7-3 2h-3v-2l4-1z" fill="#383737"/>
<path transform="translate(1770,1177)" d="m0 0 3 1 1 7-3 2-3-1 1-8z" fill="#C1C2C1"/>
<path transform="translate(1793,1176)" d="m0 0h3l-2 9 3 1-3 1-3-2v-8z" fill="#302F2F"/>
<path transform="translate(1534,1173)" d="m0 0 7 1 1 1 1 10-4 1 1-7-6-5z" fill="#383737"/>
<path transform="translate(787,501)" d="m0 0h2v11h-4l1-10z" fill="#3D3C3D"/>
<path transform="translate(1711,163)" d="m0 0 3 2v7h-5l1-8z" fill="#DBDBDB"/>
<path transform="translate(322,159)" d="m0 0 3 1v8l-1 3h-3z" fill="#383738"/>
<path transform="translate(1569,1209)" d="m0 0 4 2-1 7-4 1z" fill="#D9D9D9"/>
<path transform="translate(1537,1211)" d="m0 0 6 1 1 2-2 3-5 2z" fill="#D9DAD9"/>
<path transform="translate(248,1181)" d="m0 0h4v13h-3v-8z" fill="#222"/>
<path transform="translate(1470,1140)" d="m0 0h2l1 8-2 6h-5l1-2h2l1-9z" fill="#282728"/>
<path transform="translate(1866,1142)" d="m0 0h2v12h-3l-1-10z" fill="#2F2E2F"/>
<path transform="translate(1191,500)" d="m0 0h4v12l-3-1z" fill="#424242"/>
<path transform="translate(1173,499)" d="m0 0 4 1v7l-1 3h-3v-8z" fill="#D8D8D8"/>
<path transform="translate(865,500)" d="m0 0 4 1 1 6-3 4h-2z" fill="#3D3C3D"/>
<path transform="translate(1451,160)" d="m0 0 3 1-1 7h2l1 4h-5l-1-11z" fill="#3B3A3A"/>
<path transform="translate(1508,160)" d="m0 0h3l1 3v9h-3z" fill="#3B3B3B"/>
<path transform="translate(552,1333)" d="m0 0 3 1-1 9-4 1v-7z" fill="#444"/>
<path transform="translate(454,1335)" d="m0 0 6 1v8h-3z" fill="#2E2E2E"/>
<path transform="translate(1548,1209)" d="m0 0h5v7l-1 4h-3v-9z" fill="#302F30"/>
<path transform="translate(1446,1205)" d="m0 0h2l-2 14h-3v-7z" fill="#2B2A2B"/>
<path transform="translate(1692,1209)" d="m0 0h7l-1 2-4 1-2 7-4-1 2-2z" fill="#272627"/>
<path transform="translate(1783,1208)" d="m0 0h3v7l-5 3 1-8z" fill="#E3E3E3"/>
<path transform="translate(1670,1177)" d="m0 0 3 1v5l-2 3h-7l-1-3 4 1 2-1z" fill="#303030"/>
<path transform="translate(428,1182)" d="m0 0h3l-1 11-4-1 1-7z" fill="#DFDFDF"/>
<path transform="translate(1861,1177)" d="m0 0h2v8l2-1 1-7h1v9l-5 1-1-1z" fill="#242323"/>
<path transform="translate(1448,1176)" d="m0 0 4 1-1 8-4 1z" fill="#2E2D2E"/>
<path transform="translate(1563,1175)" d="m0 0 4 1-2 10h-3v-10z" fill="#292829"/>
<path transform="translate(1562,1144)" d="m0 0 3 1-2 2-3 9h-3l1-5z" fill="#292828"/>
<path transform="translate(1736,1139)" d="m0 0h2l-1 15h-2v-14z" fill="#201F20"/>
<path transform="translate(1846,1143)" d="m0 0h9l-1 2-3 2v-2h-3l-1 7h-2v-8z" fill="#ADADAD"/>
<path transform="translate(1891,1142)" d="m0 0 3 2v6l-2 3-3-1z" fill="#C9C9C9"/>
<path transform="translate(1650,1141)" d="m0 0h2l-1 3v9l-4-1v-8h2z" fill="#363535"/>
<path transform="translate(1490,1142)" d="m0 0h4l1 3v8h-3v-9l-3-1z" fill="#3D3C3C"/>
<path transform="translate(779,500)" d="m0 0 3 1v6l-4 4v-10z" fill="#3B3A3B"/>
<path transform="translate(1235,501)" d="m0 0h2l1 11h-4v-10z" fill="#303030"/>
<path transform="translate(884,500)" d="m0 0h4v11h-3z" fill="#393939"/>
<path transform="translate(807,500)" d="m0 0h4l-1 11h-3z" fill="#3E3E3E"/>
<path transform="translate(1502,160)" d="m0 0 3 1v9l-1 2h-3z" fill="#464646"/>
<path transform="translate(1352,160)" d="m0 0h4l-1 11h-5l2-4z" fill="#434343"/>
<path transform="translate(974,1404)" d="m0 0h3l1 8 3 2h-6l-2-2z" fill="#2E2D2E"/>
<path transform="translate(1e3 1403)" d="m0 0 4 1 3 3-5 1-4 2v-6z" fill="#353434"/>
<path transform="translate(449,1333)" d="m0 0 4 1-1 7-1 4h-3l2-9h-2z" fill="#353535"/>
<path transform="translate(1892,1332)" d="m0 0 5 1-4 2-1 7h-2l-1-5z" fill="#3D3C3D"/>
<path transform="translate(1668,1243)" d="m0 0 4 1 1 6-4 1-1-1z" fill="#DDDEDE"/>
<path transform="translate(1514,1242)" d="m0 0 5 1v10h-3l-1-9z" fill="#2A292A"/>
<path transform="translate(1454,1242)" d="m0 0h4v10l-3 1z" fill="#424242"/>
<path transform="translate(1739,1209)" d="m0 0h4l2 5-1 5-4-1 2-7h-2v2h-2z" fill="#252424"/>
<path transform="translate(1474,1206)" d="m0 0 3 1v13l-4-1 3-1-2-7-2-2z" fill="#3B3A3A"/>
<path transform="translate(324,1180)" d="m0 0h6v11l-3-1v-8z" fill="#D8D9D9"/>
<path transform="translate(465,1180)" d="m0 0h4l-1 13h-2z" fill="#302F30"/>
<path transform="translate(1743,1175)" d="m0 0 4 2v9h-3z" fill="#282728"/>
<path transform="translate(1719,1176)" d="m0 0 4 1v9h-4z" fill="#272626"/>
<path transform="translate(1709,1176)" d="m0 0h4l3 7v3h-4v-7h-2z" fill="#313131"/>
<path transform="translate(1644,1176)" d="m0 0h3v9l-1 1h-5l1-2h2z" fill="#252424"/>
<path transform="translate(1588,1173)" d="m0 0h4l-1 4v9h-3z" fill="#151515"/>
<path transform="translate(1516,1143)" d="m0 0h4l-1 10h-3z" fill="#181717"/>
<path transform="translate(121,500)" d="m0 0 8 2 1 3-7 1-2-4z" fill="#414040"/>
<path transform="translate(1060,1405)" d="m0 0h7v4l-8 1z" fill="#1E1D1E"/>
<path transform="translate(403,1331)" d="m0 0 2 2h-2v7l-1 3h-3l1-8z" fill="#4F4F4F"/>
<path transform="translate(1729,1242)" d="m0 0 5 1v9l-1 1h-5v-2l3-1 1-6-3-1z" fill="#2D2D2D"/>
<path transform="translate(1696,1242)" d="m0 0h3l-1 9-1 2-4-1z" fill="#2B2B2B"/>
<path transform="translate(1645,1240)" d="m0 0h2l-1 9 2 2 2-2-1 4h-5v-9z" fill="#545453"/>
<path transform="translate(1522,1242)" d="m0 0h4l1 3v8h-3l-1-9z" fill="#282728"/>
<path transform="translate(1683,1209)" d="m0 0 5 1-1 5-2 4-3-1 1-1z" fill="#242324"/>
<path transform="translate(501,1181)" d="m0 0h2l1 13h-4z" fill="#3D3C3D"/>
<path transform="translate(1695,1176)" d="m0 0h4l-1 6-2 4-3-1z" fill="#282727"/>
<path transform="translate(1634,1175)" d="m0 0 7 1-3 1v6h-4z" fill="#C8C8C8"/>
<path transform="translate(1808,1140)" d="m0 0 3 4-1 8-2 2-3-1 3-6-1-6z" fill="#242323"/>
<path transform="translate(1681,1140)" d="m0 0h2l-1 12-4 1 1-8z" fill="#333232"/>
<path transform="translate(1302,500)" d="m0 0h4l1 4v7l-4-1v-8z" fill="#464645"/>
<path transform="translate(907,500)" d="m0 0h5l-1 11h-3v-7z" fill="#444443"/>
<path transform="translate(347,1333)" d="m0 0h3v11l-4 1v-3h2z" fill="#2B2A2B"/>
<path transform="translate(1390,1331)" d="m0 0h3l1 10-4 1z" fill="#414141"/>
<path transform="translate(1568,1240)" d="m0 0h3v7l-2 5h-2z" fill="#2C2C2C"/>
<path transform="translate(1594,1208)" d="m0 0 4 1 1 1v8l-1 2h-4v-2l3-3v-3l-3-1z" fill="#404040"/>
<path transform="translate(282,1181)" d="m0 0h3v11h-3z" fill="#1F1E1F"/>
<path transform="translate(1855,1177)" d="m0 0 4 1-3 8-5 1v-2h2z" fill="#444"/>
<path transform="translate(1125,962)" d="m0 0h5l1 7-5-1z" fill="#434242"/>
<path transform="translate(989,500)" d="m0 0h5l-1 10-3 1z" fill="#393839"/>
<path transform="translate(873,501)" d="m0 0h3v10h-4z" fill="#3E3E3E"/>
<path transform="translate(964,501)" d="m0 0h2l1 9 3-3v5h-6z" fill="#3F3E3E"/>
<path transform="translate(406,1333)" d="m0 0 3 1v7l-1 3h-3z" fill="#343334"/>
<path transform="translate(1437,1243)" d="m0 0 3 1-1 7-4 2-4-1 5-3z" fill="#484848"/>
<path transform="translate(1447,1243)" d="m0 0 4 1v8l-4 1z" fill="#2F2E2E"/>
<path transform="translate(1584,1211)" d="m0 0h4 1v9l-4-1z" fill="#BEBFBF"/>
<path transform="translate(1579,1210)" d="m0 0h3v9l-4 1z" fill="#222121"/>
<path transform="translate(1803,1178)" d="m0 0 4 1v5l-4 1-2-6z" fill="#C9C9C9"/>
<path transform="translate(1666,1177)" d="m0 0 4 1v5l-4 2-1-5z" fill="#E3E3E3"/>
<path transform="translate(1816,1143)" d="m0 0h1v11h-3v-10z" fill="#404040"/>
<path transform="translate(1892,1140)" d="m0 0 3 1 2 5-3 7-2-1 1-2v-6l-2-3z" fill="#5F5F5E"/>
<path transform="translate(1446,1144)" d="m0 0h2v7l6-2v4h-6l-2-2z" fill="#1C1B1B"/>
<path transform="translate(1673,1141)" d="m0 0 3 1-1 11h-3z" fill="#302F30"/>
<path transform="translate(951,700)" d="m0 0 7 6 6 7-5-2-8-8z" fill="#434242"/>
<path transform="translate(1e3 501)" d="m0 0h3v10l-4-1z" fill="#2A2A2A"/>
<path transform="translate(1719,163)" d="m0 0 4 2-1 4 3 4-4 1-3-3h2z" fill="#616161"/>
<path transform="translate(543,1333)" d="m0 0h3v11l-4 1 1-3z" fill="#2C2B2C"/>
<path transform="translate(1548,1244)" d="m0 0 2 4v5h-9l1-4v2h6z" fill="#1C1C1C"/>
<path transform="translate(1501,1243)" d="m0 0 3 1-1 8-5 1 2-3z" fill="#212020"/>
<path transform="translate(1836,1209)" d="m0 0h3v10h-3z" fill="#292929"/>
<path transform="translate(1864,1211)" d="m0 0h2l1 8-6 1 2-1v-6z" fill="#B8B9B8"/>
<path transform="translate(1809,1209)" d="m0 0h3l-1 9-5 1z" fill="#292929"/>
<path transform="translate(1660,1209)" d="m0 0 6 1-1 6-1 3-4-1 2-2v-5z" fill="#1A1A1A"/>
<path transform="translate(1885,1207)" d="m0 0h5l-1 8-2 1-3-8z" fill="#525252"/>
<path transform="translate(1574,1175)" d="m0 0 6 1v10h-3v-8z" fill="#333"/>
<path transform="translate(1623,1173)" d="m0 0 4 1 1 2v7h-2l-2-7zm2 10m-1 1m-2 1 2 1z" fill="#181718"/>
<path transform="translate(1690,1141)" d="m0 0h2v2l-3 2-1 7 4 1h-5l-1-1v-8z" fill="#1C1C1C"/>
<path transform="translate(1587,1143)" d="m0 0 5 3v7l-4 1v-8z" fill="#1F1E1E"/>
<path transform="translate(1614,1143)" d="m0 0 3 1v6l2 3-4-1-2-2v-6z" fill="#272727"/>
<path transform="translate(1270,500)" d="m0 0h3v8l-1 2h-3z" fill="#161516"/>
<path transform="translate(1319,164)" d="m0 0 3 1v4l2 1-6 2-1-2z" fill="#ADAEAE"/>
<path transform="translate(1693,163)" d="m0 0h2l4 10h-9v-1h7v-2h-3z" fill="#616261"/>
<path transform="translate(339,1336)" d="m0 0 4 1v6l-5 1v-2h2z" fill="#323131"/>
<path transform="translate(1380,1330)" d="m0 0h2l-2 10h-3v-6l1-2h2z" fill="#545454"/>
<path transform="translate(1471,1242)" d="m0 0 4 1 1 4-1 6h-3v-9z" fill="#2A2A2A"/>
<path transform="translate(1574,1243)" d="m0 0 3 1v9h-3z" fill="#2D2C2D"/>
<path transform="translate(1584,1242)" d="m0 0 2 1 1 6-2 3h-2v-8z" fill="#ddd"/>
<path transform="translate(1853,1209)" d="m0 0 4 1v8l-1 2h-3l1-8z" fill="#353535"/>
<path transform="translate(1616,1211)" d="m0 0h3v7l-6 1z" fill="#1D1D1D"/>
<path transform="translate(1613,1210)" d="m0 0h5l-2 1-1 6-3 1v-7z" fill="#D0D0D0"/>
<path transform="translate(1533,1177)" d="m0 0h3v8l-4 1z" fill="#3E3E3E"/>
<path transform="translate(1796,1176)" d="m0 0 2 2v7h-4v-6z" fill="#D9DADA"/>
<path transform="translate(1691,1173)" d="m0 0 4 3v3l-4 1-3 4v-6z" fill="#AFAFAF"/>
<path transform="translate(1656,1174)" d="m0 0h3v11l2 1h-5z" fill="#1E1D1D"/>
<path transform="translate(1772,1142)" d="m0 0 4 1-2 1-2 9h-2v-10z" fill="#201F1F"/>
<path transform="translate(1664,1144)" d="m0 0 5 1v6l-4 2v-6z" fill="#393939"/>
<path transform="translate(1074,501)" d="m0 0h3v9l-3 1z" fill="#302F2F"/>
<path transform="translate(317,159)" d="m0 0h3l-2 8-2 2-1-7z" fill="#434242"/>
<path transform="translate(1518,160)" d="m0 0h3v11l-4-1z" fill="#3F3E3E"/>
<path transform="translate(1509,1242)" d="m0 0h2l1 11-3 1z" fill="#212021"/>
<path transform="translate(1592,1242)" d="m0 0h3v11h-3z" fill="#252525"/>
<path transform="translate(1614,1242)" d="m0 0h4l-1 8 1 3h-4z" fill="#212020"/>
<path transform="translate(1626,1216)" d="m0 0 1 3-1 3-6 1v-3z" fill="#151415"/>
<path transform="translate(1545,1211)" d="m0 0h2l-1 5-6 4-2-2 4-2z" fill="#282727"/>
<path transform="translate(1571,1209)" d="m0 0 4 1v9l-4-1 1-7z" fill="#232222"/>
<path transform="translate(448,1189)" d="m0 0h3v3h8v2h-9l-2-2z" fill="#2A292A"/>
<path transform="translate(425,1185)" d="m0 0h1v7h2v2l-6-1 2-7z" fill="#333233"/>
<path transform="translate(314,1183)" d="m0 0h1l1 7 1-5h1v9l-5-1z" fill="#6B6B6A"/>
<path transform="translate(542,1182)" d="m0 0 4 2 1 5-1 2h-3z" fill="#E0E0E0"/>
<path transform="translate(1439,1176)" d="m0 0h5l-1 10h-3v-8z" fill="#363535"/>
<path transform="translate(1510,1177)" d="m0 0 2 1v6l-4 1v-7z" fill="#E1E1E1"/>
<path transform="translate(1745,1141)" d="m0 0v3l-3 8h-2v-7z" fill="#3F3E3E"/>
<path transform="translate(1713,1138)" d="m0 0h3l-2 13h-2z" fill="#393939"/>
<path transform="translate(1875,1144)" d="m0 0h2v6l-4 4-1-2z" fill="#D2D3D2"/>
<path transform="translate(1036,500)" d="m0 0h4l-1 11h-2z" fill="#3A3A3A"/>
<path transform="translate(1185,501)" d="m0 0h3v8l-1 2h-2z" fill="#444"/>
<path transform="translate(1732,164)" d="m0 0 3 1 2 6h2v2l-4-1-3-4z" fill="#DADADA"/>
<path transform="translate(1659,1243)" d="m0 0 4 1-3 7-2 1-2-1 1-2z" fill="#414040"/>
<path transform="translate(546,1189)" d="m0 0h3v4l-6 1-3-2 1-1h5z" fill="#393939"/>
<path transform="translate(1459,1176)" d="m0 0h2v10l-5 1 2-4z" fill="#3D3D3D"/>
<path transform="translate(1687,1176)" d="m0 0h2v6l3-4-1 7-4 1-1-2z" fill="#4C4C4C"/>
<path transform="translate(1778,1177)" d="m0 0h3v9h-3z" fill="#333232"/>
<path transform="translate(1531,1144)" d="m0 0h3v9h-3z" fill="#2E2D2D"/>
<path transform="translate(1753,1143)" d="m0 0 4 1 1 4-2 4h-2z" fill="#D1D2D2"/>
<path transform="translate(1484,1144)" d="m0 0h4l-1 8h-3z" fill="#222122"/>
<path transform="translate(1774,1143)" d="m0 0h2l-1 9-3-1 1-7z" fill="#D3D3D3"/>
<path transform="translate(1127,952)" d="m0 0h5l1 3-2 2-4-1z" fill="#434242"/>
<path transform="translate(1006,722)" d="m0 0 6 1 6 2v1h-8l-4-2z" fill="#7E7F7E"/>
<path transform="translate(1298,500)" d="m0 0 3 1-2 9h-2v-9z" fill="#393939"/>
<path transform="translate(1226,501)" d="m0 0h4l-2 10h-2z" fill="#292828"/>
<path transform="translate(952,500)" d="m0 0 5 1v10l-4-2v-7z" fill="#656665"/>
<path transform="translate(1346,161)" d="m0 0h2l-2 10-5 1 2-3h2v-7z" fill="#3C3B3B"/>
<path transform="translate(331,159)" d="m0 0 5 1 1 4h-2l-1 3h-1z" fill="#302F30"/>
<path transform="translate(592,1335)" d="m0 0 3 1v7h-6l3-5z" fill="#575756"/>
<path transform="translate(356,1334)" d="m0 0h2l-2 9-3 1 1-8z" fill="#373636"/>
<path transform="translate(462,1334)" d="m0 0 4 1 1 9h-3l-1-7z" fill="#060506"/>
<path transform="translate(1801,1209)" d="m0 0h3v10h-4l1-9z" fill="#1A1919"/>
<path transform="translate(1657,1210)" d="m0 0h2l-1 7-5 2z" fill="#343434"/>
<path transform="translate(1429,1210)" d="m0 0 4 1-3 8h-2z" fill="#262525"/>
<path transform="translate(167,1182)" d="m0 0 2 1-2 7h2v3l-4-2v-8z" fill="#2B2A2A"/>
<path transform="translate(1735,1176)" d="m0 0h4v9l-2 1z" fill="#302F2F"/>
<path transform="translate(1701,1143)" d="m0 0 4 2-1 8h-5l2-2z" fill="#191919"/>
<path transform="translate(840,504)" d="m0 0h2v7l-5 1v-2h2v-5z" fill="#393939"/>
<path transform="translate(854,502)" d="m0 0h3l3 7v3l-4-2z" fill="#363636"/>
<path transform="translate(1176,500)" d="m0 0h2v11l-1 1h-6l2-2h3z" fill="#707070"/>
<path transform="translate(1108,500)" d="m0 0 4 1-1 1-1 9-3-1z" fill="#3C3B3B"/>
<path transform="translate(750,500)" d="m0 0 4 1v9l-4 1 1-2v-7z" fill="#242323"/>
<path transform="translate(341,162)" d="m0 0h1l1 7 2 2h-5l-2-7z" fill="#515150"/>
<path transform="translate(1336,161)" d="m0 0 3 1v8h-3z" fill="#282728"/>
</svg>
