<?xml version="1.0" standalone="no"?>
<!DOCTYPE svg PUBLIC "-//W3C//DTD SVG 20010904//EN"
 "http://www.w3.org/TR/2001/REC-SVG-20010904/DTD/svg10.dtd">
<svg version="1.0" xmlns="http://www.w3.org/2000/svg"
 width="564.000000pt" height="423.000000pt" viewBox="0 0 564.000000 423.000000"
 preserveAspectRatio="xMidYMid meet">
<metadata>
Created by potrace 1.16, written by Peter Selinger 2001-2019
</metadata>
<g transform="translate(0.000000,423.000000) scale(0.100000,-0.100000)"
fill="#000000" stroke="none">
<path d="M4575 3890 c-19 -20 -39 -30 -58 -30 -41 0 -87 -46 -87 -86 0 -39 60
-98 90 -89 12 4 30 -5 53 -25 l35 -30 212 0 212 0 30 31 c20 20 39 29 54 27
31 -4 84 47 84 82 0 16 -12 38 -32 57 -26 26 -43 32 -83 35 -43 3 -50 6 -55
28 l-6 25 -210 3 -210 2 -29 -30z"/>
<path d="M5327 3352 c-40 -41 -47 -53 -47 -88 0 -33 -6 -46 -40 -79 l-40 -39
0 -316 0 -317 40 -36 c34 -30 40 -41 40 -77 0 -35 7 -48 43 -85 25 -27 51 -45
65 -45 l22 0 0 565 c0 643 6 607 -83 517z"/>
<path d="M2545 2437 c-45 -45 -54 -94 -29 -166 10 -30 30 -68 43 -84 22 -26
23 -30 8 -39 -10 -5 -17 -21 -17 -38 0 -56 -6 -60 -89 -60 l-77 0 -47 -48 -47
-48 0 -84 c0 -74 -3 -87 -20 -98 -11 -7 -20 -22 -20 -35 0 -34 25 -109 34
-100 4 4 4 0 0 -10 -4 -11 -1 -17 7 -17 7 0 9 -3 6 -7 -12 -11 27 -32 40 -21
9 7 11 5 8 -10 -2 -13 9 -31 32 -53 20 -19 33 -29 30 -24 -3 6 3 11 13 11 15
0 16 -3 8 -14 -8 -10 -4 -20 17 -42 15 -16 33 -26 39 -23 6 3 8 2 3 -2 -8 -9
100 -125 116 -125 5 0 4 7 -3 15 -10 13 -11 18 -1 28 7 7 12 8 11 2 -5 -24 1
-35 19 -35 25 0 37 -18 22 -33 -8 -8 -11 -6 -11 6 0 9 -7 17 -16 17 -8 0 -13
-4 -10 -9 4 -5 -35 -7 -92 -4 -85 5 -100 3 -105 -10 -3 -9 -2 -19 4 -23 6 -4
6 -11 -2 -20 -8 -10 -8 -14 0 -14 6 0 11 -5 11 -10 0 -6 9 -20 20 -32 24 -26
25 -38 3 -38 -9 0 -14 -2 -12 -4 6 -7 51 -16 154 -32 91 -14 347 -28 310 -17
-26 7 -105 61 -127 86 -10 11 -18 16 -18 11 0 -5 -5 -1 -11 9 -5 9 -17 17 -26
17 -9 0 -13 6 -10 14 4 10 1 13 -9 9 -19 -7 -16 25 4 45 6 7 12 28 13 45 1 30
1 30 8 7 4 -15 15 -26 29 -28 18 -3 26 7 47 52 14 30 25 61 25 70 0 8 12 28
26 46 21 24 27 44 30 91 3 42 0 65 -10 74 -7 8 -16 11 -20 8 -3 -4 -6 0 -6 7
0 7 -3 10 -7 6 -4 -4 -13 12 -19 36 -6 24 -15 52 -20 62 -5 13 -4 17 4 12 7
-4 6 6 -3 28 -18 43 -19 49 -2 41 6 -4 5 -1 -3 7 -47 42 -36 45 19 5 35 -26
75 -50 90 -54 40 -11 143 -8 168 5 21 12 53 87 53 127 0 45 -55 159 -87 181
-46 31 -136 47 -208 37 -56 -8 -61 -11 -82 -48 -12 -22 -23 -34 -23 -27 0 7
-4 10 -10 7 -5 -3 -10 3 -10 14 0 11 4 22 9 25 5 3 11 15 14 27 5 18 2 20 -18
17 -21 -5 -23 -3 -13 21 5 14 8 28 7 31 -1 3 8 10 20 16 11 6 18 14 15 17 -4
4 0 9 9 13 27 10 31 77 9 128 -17 37 -27 46 -59 55 -21 6 -56 11 -78 11 -30 0
-36 3 -25 10 13 8 12 10 -3 10 -11 0 -34 -15 -52 -33z m-105 -442 c27 -33 43
-44 70 -47 33 -3 35 -5 52 -68 9 -36 17 -100 17 -143 l1 -79 -92 50 -93 49 -3
141 c-1 78 1 142 5 141 5 0 24 -20 43 -44z m28 -367 c7 -7 12 -8 12 -2 0 5 12
-14 25 -43 18 -37 30 -51 40 -47 8 4 15 12 15 20 0 17 31 18 83 3 29 -8 42
-19 59 -52 12 -23 23 -48 24 -56 5 -25 -46 -100 -69 -103 -12 -2 -21 -9 -20
-16 2 -6 -1 -12 -6 -12 -6 0 -9 8 -8 18 0 10 -12 35 -29 55 -25 32 -31 35 -40
22 -10 -14 -13 -14 -24 0 -11 13 -10 14 3 10 8 -4 18 -2 21 4 11 17 -23 72
-75 125 -27 26 -49 57 -49 67 0 21 20 25 38 7z"/>
<path d="M3600 2025 c-44 -52 -47 -53 -97 -54 -29 -1 -53 -5 -53 -9 0 -9 94
-92 104 -92 3 0 6 23 6 50 l0 50 95 0 95 0 0 55 0 55 -52 -1 c-51 -1 -54 -2
-98 -54z"/>
<path d="M410 2052 c0 -4 23 -29 50 -54 l50 -47 0 -95 0 -96 50 0 50 0 0 -55
0 -55 138 0 138 0 54 55 c52 53 56 55 107 55 l53 0 0 48 0 48 -109 102 -109
102 -236 0 c-130 0 -236 -4 -236 -8z m580 -197 l0 -95 -190 0 -190 0 0 51 c0
48 -3 53 -47 94 l-48 44 238 1 237 0 0 -95z"/>
<path d="M1178 2004 l-48 -55 0 -95 0 -94 238 0 237 1 43 49 44 50 -183 0
-183 0 -43 -47 -42 -48 -1 47 c0 43 -4 50 -51 92 l-51 46 133 0 134 0 43 49
c23 28 42 52 42 55 0 3 -60 6 -132 6 l-133 -1 -47 -55z"/>
<path d="M1735 2008 l-48 -53 188 -3 187 -2 40 45 c22 25 43 45 46 45 4 0 7
-39 7 -87 l0 -88 53 -3 52 -3 0 53 c0 53 -1 54 -56 101 l-56 47 -183 0 -183 0
-47 -52z"/>
<path d="M3976 2004 l-46 -56 0 -94 0 -94 232 0 232 0 43 42 c24 23 43 46 43
50 0 4 -81 8 -179 8 l-179 0 -41 -47 -40 -48 -2 38 c-1 20 -2 42 -3 48 0 6
-23 31 -51 55 l-50 44 132 0 133 0 42 46 c24 25 45 50 46 55 2 5 -56 9 -131 9
l-135 0 -46 -56z"/>
<path d="M4550 2051 c0 -5 23 -29 50 -54 l50 -46 0 -95 0 -96 50 0 50 0 0 -55
0 -55 138 0 138 0 54 55 c52 53 56 55 107 55 l53 0 0 48 0 47 -109 103 -109
102 -236 0 c-130 0 -236 -4 -236 -9z m580 -196 l0 -95 -190 0 -190 0 0 49 c0
46 -3 53 -47 95 l-48 46 238 0 237 0 0 -95z"/>
<path d="M1805 1810 l-49 -50 150 0 150 0 49 50 49 50 -150 0 -150 0 -49 -50z"/>
<path d="M3232 1830 c-12 -16 -22 -38 -22 -50 0 -19 6 -20 128 -20 142 0 127
-6 196 78 l19 22 -150 0 -149 0 -22 -30z"/>
<path d="M3580 1832 c0 -5 22 -30 50 -56 l49 -46 -143 0 -144 0 -47 -55 -47
-55 149 0 149 0 47 57 c45 53 48 59 45 107 l-3 51 -52 3 c-29 2 -53 -1 -53 -6z"/>
<path d="M1697 1701 l-47 -49 0 -96 0 -96 54 0 54 0 1 145 c0 80 -3 145 -7
145 -5 0 -29 -22 -55 -49z"/>
<path d="M3053 1661 c-34 -16 -44 -27 -52 -58 -27 -95 -3 -143 70 -143 35 0
47 6 75 35 41 44 58 100 43 143 -16 46 -66 54 -136 23z"/>
<path d="M2735 961 c-141 -65 -169 -260 -51 -358 92 -76 204 -69 288 17 58 61
77 128 54 202 -20 67 -49 103 -108 132 -62 31 -126 34 -183 7z"/>
<path d="M2464 420 c-32 -33 -48 -41 -84 -44 -37 -3 -50 -10 -88 -50 -24 -26
-42 -52 -39 -59 3 -9 133 -13 570 -15 640 -2 602 -8 523 76 -40 42 -49 46 -90
47 -41 1 -52 7 -89 43 l-43 42 -310 0 -309 0 -41 -40z"/>
</g>
</svg>
