<?xml version="1.0" encoding="UTF-8"?>
<svg version="1.1" viewBox="0 0 1600 1483" width="1280" height="1280" xmlns="http://www.w3.org/2000/svg">
<path transform="translate(0)" d="m0 0h1600v1483h-1600z" fill="#F0F0F0"/>
<path transform="translate(0)" d="m0 0h1600v1483h-1600zm74 221-1 1-1 692v163l1 184h1452l1-1 1-47v-930l-1-61-8-1z" fill="#CCD2E4"/>
<path transform="translate(263,1260)" d="m0 0h1036l162 1-3 2-14 5-5 16-1 8-3 12-3 9-3 8-9 12-8 9-5 2v2h-2l-1 5h-2l-2 4-8 5h-2v2l-11 8-6 5-10 6-7 2-7 4-20 6-10 2-13 3-16 1-16 2-41 2-5 1-37 2h-22l-18-2-25-1-94-1h-498l-69 1-13 1h-69l-38-2-25-1-8-1h-17l-9-1-5-2v-2l-15-2-13-5-9-3-7-3-3-3-12-5-3-3-7-4-3-3v-2l-4-2-5-5-11-9-5-5-6-7v-2h-2l-7-12-3-12-1-15-4-17-6-7-5-3-6-2-5-2v-1z" fill="#A8ACB6"/>
<path transform="translate(1113,622)" d="m0 0 11 2 14 8v5l-2 1 5 2 6 1-2 5h-2l-1 2v13l5 10 14 15 11 16 4 9 1 4v8l-5-2-6-7-5-11-8-19-8-11-5-6v-2l-4-2-6-7-5-4-3-1 4 24-1 11-4 8-3 3-4-2-11-3h-4l5 8 2 6-10-1-2-2-1 1h-10l-7-1-6 1h-15l-16-4-3-3-3-1v3l-4 3-3 5-10 7-14 12-4 4-1 5 1 3 6 1 5-3 4-1h11l5 3v2l6-3 13-11 15-10 7-2-5 6-1 3 16-2h20l15 3 18 6 12 9 10 13 3 6v3h3l1 7-2 8h-8l-5-12-5-6-9-5-3-1-23-1-12-2-10-1-9 2-6 3h-2l1 5 9 4 11 2 25 2 20 4 12 3v6l6 4 3 11v13l-2 10-2 2-8-1 11 5v2l-9-3v7l2 9h2v3h2l5 9 5 12 1 5v9l-2 2-1-12-6-15-6-10-11-9-10-5-9-2h-9l-10 2-9 6-8 7-2 3 1 4 2-2 11-1 11 1 6 2 10 3 17 9 3 2 4 7 7 11 2 13-7 8-8 7-19 9-6 2-4 1h-16l-12 6-4 4-8 7-3 1-1 3-8 6-7 7-8 7-3 3h-2l-2 4h-2l-2 5-8 11-9 11-3 5h5l1 2-16 8-11 8-2 4 9-5 3-1 1-3 5-1v-2l8-5 12-4h17l16 4 6 4-2 1-1 5-2 4-9 6-12 6-10 7-8 6-4 6v7l3 2h26l1 4-11 8-16 8-4 1v2h-2l-2 5-4 5-6 2v2l-7 3-7 5-12 4-2-1-21-2 1 5 5 2 2 4 4 2 13 8 6 3-3 3-17 7-17 3h-4v2l14 2 15-7 19-9 18-7 7-3h8l-3-2 2-1 7 4 3 3v2h2v2l3 1 4 6 2 5-1 11-4 14 1 4 7 1 3 3 3 8-1 6-7 16-7 11-4-1v-18l2-19-4 9-3 6-4 6-6 2-2 14-4 2-1 7-5 1-10-4-9-7-8-10-2-3 1-10-5-10-8-7-9-4-11-1v2l7 1 12 6 8 9 4 8v7l-3 3-3 1h-8l-8-4-5-4v-3l-3-1-4-9-2-10-9-3-15-4-23-4-25-5-14-5-13-7-9-7-6-4-5-6v-2h-2l-7-17v-3l13 1 5-5v-13l-6-17-2-6-2-7-4-1-1-13-1-7-6-2-2-5 9 1 10 6 3 2-4-5-6-3v-2l-15-1-8 2-2 4-2 1 1-8 5-13 5-6 3-1h12l8 3h8l-5-5-4-2v-2l-5-2-5-5v-8l4-9 7-5h10l7 3v2l-11 1-2 3 1 5 6 5v2l15 3h9l5 5 2 7-5 5-2 1h-9v8h2l6 7 2 1h9l7-6 3-7v-17l-5-12-6-9-4-5-12-7-11-3-28-5-16-3-11-7-6-9-2-6v-7l3-6 8-6 9-17v-15l-4-10-5-5-8-3 4 12v7l-3 6-2 2-7-1-7-8-4-10v-18l-17-12-3-1-2 5-7 8-3 1v2l-7 3-12 2-1 7-5 3-4 1h-11l-10-5-1-3 5 2 9 3h7l2-2-16-5-1-3-7-2-1-4 2-5-12-9-10-10-10-13-8-14-7-19-3-12-1-7v-11l3-14 4-10 8-11 7-7 12-7 8-1 1 2h-2v3l5 2v2h2l8 10 2 4-1 8-9 10-8 6-5 2-9-5-2-4v-10l1-6-3 1-6 10-4 13v19l5 20 5 12 7 11 3 3 9 4h7l18-3h9l4 3v5l-5 4-8 2h-12v2l7 4v2l-8-1-16-8-7-4 5 5 14 10 12 7 3 1h12l9-4 10-8 4-5v-5l-7-10-3-6v-14l2-3 5 1 4 6 1 3h2l1 4h2v2l4 2 5 5 9 6 23 10 14 3 13 1 22 1 5-1 5-5 5-3v-6l-30-5-7-3v-1l20-1v-13l2-7 6-6h12l20 4 9 1h10l15-2 7-4-27-1v-3l14-4 5-4h2l2-5 2-4v-11l-2-13-3-9-7-14-5-7v-2l-3-1-1-2-3-1v-2l-4-1-2-1v-2l-4-2-1-2 5 1 5 2-3-3-12-6-7-2h-12l-12 3-9 5 2 1-1 3-6 4-13 13-2 3h-2l-1 5-2 6h-2l-1-2v-6l-4 4-3 4-1-4h-3v2l-5-1-2-3v-6l4-3 7-3 5-4 9-11 4-5 18-10 9-4 2-1 1-4 8-6 4-5 13-3 32 1 10 2 17 2 11 3 14 7 6 4v2l4 2 1 3h2v2l4 2 9 7 5 5 5 4 7 5 1 5-2 5 9-6 7-6 6-9 4-11 3-17 3-8h2l1-6 2-1v10l1 4 6-1 9-10 15-10 11-8 5-7 8-5 9-1 11 2 9 7 5 3 7 7h1l-1-9-4-13z" fill="#A8ACB5"/>
<path transform="translate(931,452)" d="m0 0h27l12 2 20 7 24 13 17 6 9-1-1 4-3 4 8-4 5-7 3-9 5 5 14 22 1 5-3-2-1-5-4-2h-2l6 8 4 4 3 7-2 1-26-3-16-4-12-5-6-4-14-7-6-12-7-6-9-5-19-4h-26l-18 4-8 4-1 2h-2l-1 9 6-5 5-1 4 1v2l4 2 9 4 15 4 18 1h18l3 4-1 5-9 4-12 3h15l9-2 6-2 3 8 5 8 5 6 9 19 3 7v7l-7 12-15 6-6 1-5 3-4-1-5-4-3-3v-2l-3-1v-2l-4-2-11-9v-2l-5-2-16-7-7-2h-15l-17 5-13 7h-2v2l-6 4-4 5-5 5-2 5 11-7 8-6 10-6 17-6 10-2h8l9 2 14 9 14 13 11 14 7 10-2 4-1 1h-7l-12-5-10-3-8-1h-44l-16 2-8 2 2 1h8l14-2h15l16 1 13 3 10 6 2 6-5 5-7 3-11 2-12 1h-15l-11-1-16-4-10-4-10-5-11 2-1 3-9 6-5 3-3 1h-9l-3-5v-23l3-16 8-21 9-11 8-6 13-8 20-8 21-6 13-4 2-4-3-7-1-4h-2l-3-7-8-1-22 6-17 6-13 8-14 13-11 15-5 6-5 11-5 24-2 20 1 34-2-2-3-11-2-8-5-5-10-4-17-4h-10l-8 4-8 7-2 4h-2v3h-2l-1 5-6 10-8 11-13 12-6 7-7 1-11-4-9-6-6-7-4-8-3-13v-14l2-8 2-2 2 12v2l4 2 11 3 9 2h10l10-3 8-4 9-9 5-8 6-12 3-3h2l-3 9-6 7-6 9-10 10h-2v2l-14 7-7 2h-5v2l15-3 12-5 10-9 5-4 4-8h2l1-6 13-29 5-8 4-5 3 6v3h2l6 9 4 3 5 1 7-3 6-8 1-3v-16l-6-15-1-4 3-2 12-2 23-11 11-8 3-3h2l2-4 12-13 10-9 19-10 15-5 21-5z" fill="#A7ABB5"/>
<path transform="translate(1137,895)" d="m0 0h5l1 4-2 3v3l-15 8-11 5-10 1h-12l-12 6-4 4-8 7-3 1-1 3-8 6-7 7-8 7-3 3h-2l-2 4h-2l-2 5-8 11-9 11-3 5h5l1 2-16 8-11 8-2 4 9-5 3-1 1-3 5-1v-2l8-5 12-4h17l16 4 6 4-2 1-1 5-2 4-9 6-12 6-10 7-8 6-4 6v7l3 2h26l1 4-11 8-16 8-4 1v2h-2l-2 5-4 5-6 2v2l-7 3-7 5-12 4-2-1-21-2 1 5 5 2 2 4 4 2 13 8 6 3-3 3-17 7-17 3h-4v2l14 2 15-7 19-9 18-7 7-3h8l-3-2 2-1 7 4 3 3v2h2v2l3 1 4 6 2 5-1 11-4 14 1 4 7 1 3 3 3 8-1 6-7 16-7 11-4-1v-18l2-19-4 9-3 6-4 6-6 2-2 14-4 2-1 7-5 1-10-4-9-7-8-10-2-3 1-10-5-10-8-7-9-4-11-1v2l7 1 12 6 8 9 4 8v7l-3 3-3 1h-8l-8-4-5-4v-3l-3-1-4-9-2-10-9-3-15-4-23-4-25-5-14-5-13-7-9-7-6-4-5-6v-2h-2l-7-17v-3l13 1 5-5v-13l-6-17-2-6-2-7-4-1-1-13-1-7-6-2-2-5 9 1 10 6 3 2-2-3 4 2v2l4 2 8 11 2 3v3h2l1 5h2l10 20 18 33 7 9 13 8 12 6 1 3 9 3h10l2-4 5-2 13-2h5l-2-2h-9l-4-2-4 2h-12l-9-4-2-2 4-2-6-3v-2l4-2 8-1 11 1 3-1 1-11-2-9-6-5-13-7-1-2-5-2-4-5-5-5-6-10-2-5-3-14-3-15-1-4 1-6 5 10v2l3 1 3 7 4 12 4 5 4 8 7 7 7 5 7 4 8 6 11 5 12-2 2-4 5-2 12-4 7-4h2l-2-6-8-2-1 3-4-5-3-6 1-4 1 5h2v-9l16-5 4-4h2l1-3 6-3h2v-3h2l2-5 11-6 7-2 1-3-10 3-10 6-8 3-11 1-6 1-8 7h-1l1-7 5-10 8-9h2v-2l7-5-5 2-5 1 4-5 7-4 1-4h2v-2l7-6 9-11 9-10h2v-2l16-14 5-5 10-9 5-5 4-5h2l1-4 5-5 9-10 12-5 17-5z" fill="#A8ACB5"/>
<path transform="translate(1113,622)" d="m0 0 11 2 14 8v5l-2 1 5 2 6 1-2 5h-2l-1 2v13l5 10 14 15 11 16 4 9 1 4v8l-5-2-6-7-5-11-8-19-8-11-5-6v-2l-4-2-6-7-5-4-3-1 4 24-1 11-4 8-3 3-4-2-11-3h-4l5 8 2 6-10-1-2-2-1 1h-10l-7-1-6 1h-15l-16-4-3-3-3-1v3l-4 3-3 5-6 4-7 3-12 11-10 10-11 17-5 10h-3v-2h-3v-2h-3v-2h-16l-9 1 1-5-4-1-7 4-5 5-5 1-5-3-5-11 1-6 2-6-13-11-12-9-3-2v-2l-3-1-1-2-3-1v-2l-4-1-2-1v-2l-4-2-1-2 5 1 5 2-3-3-12-6-7-2h-12l-12 3-9 5 2 1-1 3-6 4-13 13-2 3h-2l-1 5-2 6h-2l-1-2v-6l-4 4-3 4-1-4h-3v2l-5-1-2-3v-6l4-3 7-3 5-4 9-11 4-5 18-10 9-4 2-1 1-4 8-6 4-5 13-3 32 1 10 2 17 2 11 3 14 7 6 4v2l4 2 1 3h2v2l4 2 9 7 5 5 5 4 7 5 1 5-2 5 9-6 7-6 6-9 4-11 3-17 3-8h2l1-6 2-1v10l1 4 6-1 9-10 15-10 11-8 5-7 8-5 9-1 11 2 9 7 5 3 7 7h1l-1-9-4-13z" fill="#A7ABB5"/>
<path transform="translate(931,452)" d="m0 0h27l12 2 20 7 24 13 17 6 9-1-1 4-3 4 8-4 5-7 3-9 5 5 14 22 1 5-3-2-1-5-4-2h-2l6 8 4 4 3 7-2 1-26-3-16-4-12-5-6-4-14-7-6-12-7-6-9-5-19-4h-26l-18 4-8 4-1 2h-2l-1 6-17 6-6 1 4-4 5-4-7 1-13 6-12 7-13 11-12 18-9 11-3 7-6 7-5 11-5 24-2 20 1 34-2-2-3-11-2-8-5-5-10-4-17-4h-10l-8 4-8 7-2 4h-2v3h-2l-1 5-6 10-8 11-13 12-6 7-7 1-11-4-9-6-6-7-4-8-3-13v-14l2-8 2-2 2 12v2l4 2 11 3 9 2h10l10-3 8-4 9-9 5-8 6-12 3-3h2l-3 9-6 7-6 9-10 10h-2v2l-14 7-7 2h-5v2l15-3 12-5 10-9 5-4 4-8h2l1-6 13-29 5-8 4-5 3 6v3h2l6 9 4 3 5 1 7-3 6-8 1-3v-16l-6-15-1-4 3-2 12-2 23-11 11-8 3-3h2l2-4 12-13 10-9 19-10 15-5 21-5z" fill="#6E848F"/>
<path transform="translate(1137,895)" d="m0 0h5l1 4-2 3v3l-15 8-11 5-10 1h-12l-12 6-4 4-8 7-3 1-1 3-8 6-7 7-8 7-3 3h-2l-2 4h-2l-2 5-8 11-9 11-3 5h5l1 2-16 8-11 8-2 4 9-5 3-1 1-3 5-1v-2l8-5 12-4h17l16 4 6 4-2 1-1 5-2 4-9 6-12 6-10 7-8 6-4 6v7l3 2h26l1 4-11 8-16 8-4 1v2h-2l-2 5-4 5-6 2v2l-7 3-7 5-12 4-2-1-21-2 1 5 5 2 2 4 4 2 13 8 6 3-3 3-17 7-17 3-4-1 7-2h5l-2-2h-9l-4-2-4 2h-12l-9-4-2-2 4-2-6-3v-2l4-2 8-1 11 1 3-1 1-11-2-9-6-5-13-7-1-2-5-2-4-5-5-5-6-10-2-5-3-14-3-15-1-4 1-6 5 10v2l3 1 3 7 4 12 4 5 4 8 7 7 7 5 7 4 8 6 11 5 12-2 2-4 5-2 12-4 7-4h2l-2-6-8-2-1 3-4-5-3-6 1-4 1 5h2v-9l16-5 4-4h2l1-3 6-3h2v-3h2l2-5 11-6 7-2 1-3-10 3-10 6-8 3-11 1-6 1-8 7h-1l1-7 5-10 8-9h2v-2l7-5-5 2-5 1 4-5 7-4 1-4h2v-2l7-6 9-11 9-10h2v-2l16-14 5-5 10-9 5-5 4-5h2l1-4 5-5 9-10 12-5 17-5z" fill="#A8ACB6"/>
<path transform="translate(861,661)" d="m0 0 32 1 10 2 17 2 11 3 14 7 6 4v2l4 2 1 3h2v2l4 2 9 7 5 5 5 4 7 5 1 5-2 5 9-6 7-6 6-9 4-11h1l-1 8-6 10-5 6-11 9-10 7-16 6-15 3h-17l-14-4-6-4-11-9-5-6-6-12-7-7-7-3-4-4-8-3-23-1-15 3-15 6-5 4-5 8-2 5h-2l-2 4-6 5-5 1-6-3 2-2 7-3 5-4 9-11 4-5 18-10 9-4 2-1 1-4 8-6 4-5z" fill="#A7ABB5"/>
<path transform="translate(1282,268)" d="m0 0h135v44h-136v-21z" fill="#E6E6E7"/>
<path transform="translate(886,1026)" d="m0 0 3 4 4 22 2 7 7 14 5 5 5 6 5 2v2l5 2 11 6 4 4 2 10-2 10-4 2-11-1-11 2v2l5 1 2 2-3 3 9 4h12l6-2 2 2h10l1 3-21 4-4 4-3 1h-7l-9-3-2-4-16-8-9-6-8-10-6-12-12-22-8-16v-2h-2l-1-5h-2l-5-9-7-9v-3l8 7 11 14 1 3 5-4 2 1-2-12 1-6 5 1 1 3 4 1 7 4 4-1 2-5 3-16z" fill="#695F74"/>
<path transform="translate(1077,657)" d="m0 0 6 1 4 4 1 2v7l-3 5-3 4v3l3 1 1 4-9 4h-3v2l-10 2-18-1-9-2-7-4 2 10-3 3-3 5-6 4-7 3-12 11-10 10-11 17-5 10h-3v-2h-3v-2h-3v-2h-16l-9 1 1-5-4-1-7 4-5 5-5 1-5-3-5-11 1-6 2-6-13-11-12-9-3-2v-2l-3-1-1-2-3-1v-2l-4-1-2-1v-2l-4-2-1-2 5 1 5 2-3-3-12-6-7-2h-12l-12 3-9 5 2 1-1 3-6 4-13 13-2 3h-2l-1 5-2 6h-2l-1-2v-6l-4 4-3 4-1-4h-3v2l-5-1-2-3v-6l4-1 6 2 7-4 4-5 2-1 3-7 6-8 12-6 14-4 13-1 17 1 10 4 5 5 5 2 7 7 8 15 10 9 9 6 14 4h17l15-3 16-6 10-7 13-11 7-11 2-5 2-18 4-12h3l2 17 3 1v2l5 1 6 2h11l1-3-1-3v-7l7-8 14-8z" fill="#6B808B"/>
<path transform="translate(788,532)" d="m0 0 3 4 4 13v9l-3 9-9 10 4-1 3-1 2-4 4-4h1v18l2 9 2-16h1v9l-1 19 1 26-2-2-3-11-2-8-5-5-10-4-17-4h-10l-8 4-8 7-2 4h-2v3h-2l-1 5-6 10-8 11-13 12-6 7-7 1-11-4-9-6-6-7-4-8-3-13v-14l2-8 2-2 2 12v2l4 2 11 3 9 2h10l10-3 8-4 9-9 5-8 6-12 3-3h2l-3 9-6 7-6 9-10 10h-2v2l-14 7-7 2h-5v2l15-3 12-5 10-9 5-4 4-8h2l1-6 13-29 5-8 4-5 3 6v3h2l6 9 4 3 5 1 7-3 6-8 1-3v-16l-4-10z" fill="#A7ABB5"/>
<path transform="translate(912,411)" d="m0 0h24l26 3 25 6 24 8 7 4 14 5v3l-2 3-7-1-18-7-16-5-16-3-12-1h-13l-24 3-17 4-12 5-17 9-11 8-12 12-5 6-4-4h-9l-14 3-15 6h-8l-2-5-2-1 14-8 17-12 9-6h2v-2l5-2 14-9 11-6 13-8 5-2h3l1-3 11-2z" fill="#A59099"/>
<path transform="translate(844,688)" d="m0 0h12l12 4 10 6v2l-9-2 4 4h-4v2l4 2 10 9 3 5-2 5-13 4-3 1-1 10h2l5 5 8 1 7-2 2-4 2-2 3 9v8l-5 6-12 6-5 1h-23l-18-3-17-6-6-4-6-7-2-4v-3h8v-1l13-1 12-5 6-3 1-2h2v-2l5-5 2-3h2l1-5 1-6-5-3-10-4v-2l4-1 19-1 3 1v-2h-2v-2l-9-2h-13l-5 2-3 5-7 1v2l-8 4-2-1 7-5 1-2-3-1 10-6z" fill="#D0CFD4"/>
<path transform="translate(711,723)" d="m0 0 5 1 3 1v9l-3 12-3 3h-3l-2 5v15l-1 9 5 13v16l-11 6-4 1h-11l-10-6-8-8-7-8-4-5v-2h-2l-2-4v-8l4-6 11-10 10-8 12-16 3 8 4 11-1-9-5-13 1-4 4-1 9 2 4 2z" fill="#A8ACB5"/>
<path transform="translate(191,464)" d="m0 0h25l16 4 9 8 5 10 1 5v13l-3 10-4 6-7 6-10 4-7 1h-26v-66z" fill="#070608"/>
<path transform="translate(653,728)" d="m0 0 3 1-1 6v10l2 4 9 4 8-5 10-9 5-10 1 4-6 10-9 10-14 11-6 7-1 2v8l1 4h2l6 8 14 15 9 5h11l10-4 4-2v-16l-2-6h2v-10l2-1v2h3l4 4 2 5 1 6 5 1 1 4h2l8 15 7 7 9 6 6 3-3 1-11-6-5-4-4-5-2-1v-2h-2l-1-4h-2l-5-7v-2h-5l-1 2v14l6 11 4 5-1 7-7 7-10 7-6 2h-12l-12-6-16-11-6-5-1-3 5 2 14 8 13 4-3-3-5-3 1-3h12l9-3 3-2 1-5-4-2h-9l-18 3h-7l-10-5-6-7-8-16-5-18-1-5v-19l5-15z" fill="#EFEFEF"/>
<path transform="translate(668,705)" d="m0 0 5 1-2 1v3l5 2v2h2l8 10 2 4-1 8-9 10-8 6-5 2-9-5-2-4v-10l1-6-3 1-6 10-4 13v19l5 20 5 12 7 11 3 3 9 4h7l18-3h9l4 3v5l-5 4-8 2h-12v2l7 4v2l-8-1-16-8-7-4-1 2-8-9-10-17-7-19-3-12-1-7v-11l3-14 4-10 8-11 7-7 12-7z" fill="#A8ACB6"/>
<path transform="translate(912,473)" d="m0 0 5 1v2l4 2 9 4 15 4 18 1h18l3 4-1 5-9 4-12 3 9 1v1h-23l-16-3-9-3-9-1 4 7 1 7-4 4-9 2-13 2-16 5-10 3-12 7-11 7-4 4h-2l-2 4-4 4-4 7-3 5-4 14-1 9v23l1 2h10l12-6 2 1-10 7-5 3-3 1h-9l-3-5v-23l3-16 8-21 9-11 8-6 13-8 20-8 21-6 13-4 2-4-3-7-1-4h-2l-3-7-8-1-22 6-17 6-13 8-14 13-7 9v-3l8-10 10-15 5-6 11-9 13-8 15-6h6l-5 5-5 3 5-1 16-5 2 3 5-5z" fill="#D0CFD4"/>
<path transform="translate(190,668)" d="m0 0h18l7 10 13 22 4 6 1-38h14l1 1v59l-1 6h-16l-10-17-7-11-8-13-1 29-1 12h-14z" fill="#070608"/>
<path transform="translate(205,565)" d="m0 0h12l8 4 4 5 1 3v8l-3 7-6 5h-2l7 9 4-1 14-14h1v17l-8 8 6 8 7 7v1h-18l-2-4-4-1-3 3-7 3-11 1-9-4-5-6-2-5v-7l3-7 6-6h2l-3-5-5-10 1-8 4-6 5-4z" fill="#070607"/>
<path transform="translate(891,1024)" d="m0 0 3 4 10 2v2l4 2 4 9 5 6v2h2l7 8 7 1 12-4 9-6 3-1h8l6 3 2 3 3 9 4 6 1-2h5l5 5v3l-9 5-12 4-6 3-3 3-10 2-16-8-7-6-6-3-12-11-5-9-4-6-3-10-3-7-3-3z" fill="#68808B"/>
<path transform="translate(1137,895)" d="m0 0h5l1 4-2 3v3l-15 8-11 5-10 1h-12l-12 6-4 4-8 7-3 1-1 3-8 6-7 7-8 7-3 3h-2l-2 4h-2l-2 5-8 11-9 11-3 5h5l1 2-16 8-11 8-2 4 9-5 3-1 1-3 5-1v-2l8-5 12-4h17v1l-18 2v3l7 4-1 4-16 11-8 4-9 2h-10l-6 4-5 4 1-7 5-10 8-9h2v-2l7-5-5 2-5 1 4-5 7-4 1-4h2v-2l7-6 9-11 9-10h2v-2l16-14 5-5 10-9 5-5 4-5h2l1-4 5-5 9-10 12-5 17-5z" fill="#D0CFD4"/>
<path transform="translate(301,565)" d="m0 0h15l10 4 6 5 6 10-1 4-10 3h-3l-4-7-7-4h-10l-4 2h-3l-2 4-4 6v14l5 8 7 4h12l6-4 5-7 13 3 1 3-5 9-7 7-10 4-5 1h-8l-12-3-10-7-5-7-3-9-1-11 2-10 4-8 6-7 11-6z" fill="#070608"/>
<path transform="translate(932,459)" d="m0 0h26l19 4 12 7 7 8 2 6-1 7-6 9-8 3-6 1h-18l3-2 15-4 6-2v-5l-2-3h-26l-14-2-16-5-8-5v-2l-9 1-6 5-1-4 2-6h2l1-3 8-4z" fill="#F0F0F1"/>
<path transform="translate(771,606)" d="m0 0 5 1 3 5 2 9v14l-3 11-3 5-11 11h-2l-1 3-8 7-8 12-12 6-11 3h-8l-9-3-7-8v-4l7-3 9-3 9-8h2v-2l10-5h10l10 2-2-4-2-1 2-4 3-4 8-16 3-7 1-14z" fill="#A8ACB6"/>
<path transform="translate(738,582)" d="m0 0h2l-3 9-6 7-6 9-10 10h-2v2l-14 7-7 2h-5v2l15-3 6-1-2 2-9 3 10-2 17-10 6-2 1 2-7 12-8 11-13 12-6 7-7 1-11-4-9-6-6-7-4-8-3-13v-14l2-8 2-2 2 12v2l4 2 11 3 9 2h10l10-3 8-4 9-9 5-8 6-12z" fill="#A6919B"/>
<path transform="translate(826,972)" d="m0 0h10l7 3v2l-11 1-2 3 1 5 6 5v2l15 3h9l5 5 2 7-5 5-2 1h-9v6h-2l-1-2-6-1-2 1 1 12-4 1-7-2-6-2-10-3-11 1 10 2-3 1h-7l-8 2-2 4-2 1 1-8 5-13 5-6 3-1h12l8 3h8l-5-5-4-2v-2l-5-2-5-5v-8l4-9z" fill="#B7ACAD"/>
<path transform="translate(395,483)" d="m0 0h10l10 4 7 8 3 8v8l-4 11-9 8-7 2h-11l-10-5-6-7-2-6v-14l4-8 8-7z" fill="#060507"/>
<path transform="translate(360,585)" d="m0 0h15l10 5 6 9 2 6-1 11-5 10-5 4-6 3-13 1-9-4-5-4-5-10-1-9 3-10 7-8z" fill="#070607"/>
<path transform="translate(842,691)" d="m0 0h13l9 3v2h2l1 3-9-1-14 1-2 1-2-1 1 2 12 4 3 3-1 6-2 5-3 3-4 5h-2v2h-2l-1 3-7 4-11 4-12 1v1l-9-1 6 12-6-2-4-5-1-2v-12l4-11 13-13 10-6h3v-2l8-3 2-4z" fill="#F1F1F1"/>
<path transform="translate(1150,1116)" d="m0 0 9 1 8 4 5 5 4 7v12l-3 8-5 6-8 4-4 1h-8l-10-4-7-8-2-6v-13l4-8 7-6z" fill="#070607"/>
<path transform="translate(254,269)" d="m0 0h46v38h-46z" fill="#E3E3E5"/>
<path transform="translate(848,736)" d="m0 0h6l8 9 1 3 11 5 11 3 7-1 2 1-2 4-10 6-8 2h-23l-18-3-17-6-6-4-6-7-2-4v-3l18 1 18-3 3-2z" fill="#A7ABB5"/>
<path transform="translate(851,649)" d="m0 0 8 1v2l6-1 7 1 7 2 14 2 24 4 9 1 10 3 6 2v2h5l1 3 5 1 6 4 4 2 4 5v2l4 2 5 5 11 9 7 1 4 1 1 5-7 7-2 4 2 1-6 3 1-5 1-4-5-5-6-4-2-4-4-2-11-9-2-1v-2h-2l-5-5v-2l-5-2-8-5-9-4-16-3-13-2-7-1-32-1-13 3-7 8-5 2-1 5-8 4-3-1 5-7 7-5v-10l-2-1v-4l6-6z" fill="#D0CFD4"/>
<path transform="translate(468,585)" d="m0 0h14l9 4 6 9 1 3v12h-32l3 6 4 2h7l6-5 5 1 6 2-1 5-5 5-5 3-8 2-10-1-6-3-5-5-3-5-2-7v-8l3-10 5-5 5-4z" fill="#080608"/>
<path transform="translate(498,483)" d="m0 0h11l8 3 6 5 4 10v10h-33l3 5 4 3h8l5-4 8 1 4 2-2 5-5 5-9 4h-12l-8-4-7-8-2-6v-13l3-8 4-5z" fill="#060507"/>
<path transform="translate(1109,580)" d="m0 0h15l7 4 7 8 3 8 2 14v5l-11-3-13-4-9-1-22-1-4-2 1-7 6-12 9-6z" fill="#A7ABB5"/>
<path transform="translate(855,483)" d="m0 0v3l-1 2h-2l-2 4-4 3 2-4zm-11 12 2 1-7 10-8 12-9 11-3 7-6 7-5 11-5 24h-2l-1 17-2-1-2-9v-17l-10 10-4-1 5-5 5-7 2-7v-9l-4-13-1-4h-2l-2-3 1-4 7-2 9-2 21-10 11-8 3-3 5-3z" fill="#697F8B"/>
<path transform="translate(1077,657)" d="m0 0 6 1 4 4 1 2v7l-3 5-3 4v3l3 1 1 4-9 4h-3v2l-10 2-18-1-9-2-7-4 2 10-4 5-3 1 2-4 1-1-1-9-4-6v-2h-3v7l-4 2v-19l3-8h3l2 17 3 1v2l5 1 6 2h11l1-3-1-3v-7l7-8 14-8z" fill="#696176"/>
<path transform="translate(1170,893)" d="m0 0 2 1-5 9-13 15-7 6-7 3-18 6-1 4 8 2 7-1 14-7 3-3h2l1-3 8-7 4-3 4 1-1 5-3 5-9 7-11 7-14 7-23 7h-16l-7-4-2-2v-6l8-7 5-3 27-5 12-4 11-8 11-12 7-8z" fill="#A8ACB6"/>
<path transform="translate(521,585)" d="m0 0h14l10 5 6 9v2l-10 3-4-1-4-4h-9l-4 3-1 3v9l6 6h7l8-6 10 3 1 3-4 6-7 6-9 2-10-1-8-4-6-7-3-10v-8l3-8 6-7z" fill="#070607"/>
<path transform="translate(343,483)" d="m0 0h11l9 4 6 7 1 5-8 3h-5l-5-5h-8l-5 5-1 2 1 9 5 5h8l6-5 7 1 5 2-1 5-6 7-10 4h-9l-9-3-6-5-5-10v-12l3-8 6-7 6-3z" fill="#060506"/>
<path transform="translate(1022,1116)" d="m0 0 7 3 4 4v2h2v2l3 1 4 6 2 5-1 11-4 14 1 4 7 1 3 3 3 8-1 6-7 16-7 11-4-1v-18l2-19-4 9-3 6-4 6-6 2-2 14-4 2-1 7-5 1-4-2-3-14-2-4v-4l5 2 6 5 3-1 2-5 2-9 9-3 1-4 2-3h2l1-5 4-7 2-10v-10l-3-11-2-5-3-9-4-2-1-2-3-2z" fill="#D0CFD4"/>
<path transform="translate(1052,467)" d="m0 0 5 5 14 22 1 5-3-2-1-5-4-2h-2l6 8 4 4 3 7-2 1-26-3-16-4-12-5-6-4-14-7-3-7-1-6 5 1 17 10 6 4v2l4 1 9 3h2l-1-3 6-4 4-6-2-1 4-5z" fill="#A6919A"/>
<path transform="translate(275,666)" d="m0 0h12l1 1v11l-10 1v8l9 1v12h-10v34h-14v-35h-7v-11h7l1-13 6-7z" fill="#060506"/>
<path transform="translate(293,483)" d="m0 0h11l10 5 3 5-1 4-10 1-5-4h-5l-2 6 14 3 6 4 3 4 1 6-3 9-5 4-5 2h-12l-8-4-4-5-1-6 12-1 1 4 8 1 2-1 1-5-13-3-7-4-3-5v-9l4-7z" fill="#070507"/>
<path transform="translate(347,686)" d="m0 0h7l7 2 5 4 3 6v2l-11 2-5-4h-6l-2 5 17 4 5 5 2 3v10l-4 6-5 3-3 1h-13l-7-3-5-7v-4l11-2 2 5h9l1-5-5-2-9-2-7-6-1-3v-10l7-8z" fill="#070607"/>
<path transform="translate(883,1015)" d="m0 0 3 3v2h2v6h-2l-2 15-2 7-3 3-5-1-9-5-3-3-3-1v8l1 10-3 1-4 2-10-13-4-5-4-3v-2l-4 1-5-5-7-4v-2l-7-2-9-1 2-2 10-1 10 3 6 2 9 2h2l-2-12 4-2 6 2v2h2v2h2l8 10 6 5v2h3v2l4-1 2 1v-3h2l1-6 2-11z" fill="#A5919B"/>
<path transform="translate(427,484)" d="m0 0h16l10 27 4-10 6-17h14l-1 6-15 40-1 1h-14l-6-14-10-25-3-6z" fill="#070608"/>
<path transform="translate(888,414)" d="m0 0 2 1-1 2-9 4-14 8-16 9-8 6h-4v2l-21 14-14 9-5 4 2 5 11-2 12-5 14-3h9l4 5-4 4 1-5-1-1-9 1-20 9-15 7-14 4h-15l-1-4-5 1-4 1-7-6-4-7 5-2 2 5 19-3 10-4 16-8 15-9 16-11 13-11 10-8 8-5 17-6z" fill="#D3C4C0"/>
<path transform="translate(302,674)" d="m0 0h13v14h9v12h-9l1 21 7 1 1 1v10l-2 2h-9l-8-3-4-7-1-24-7-1-1-1v-11l7-2 2-2z" fill="#080709"/>
<path transform="translate(950,755)" d="m0 0h12l4 1v2h3v2h3v2h2l5 7v8l-4 6-5 4-2 1h-14l-3-2 1-5-4-1-6-3h-2l-1 4-4-1-2-5v-9l6-7z" fill="#D3C6C3"/>
<path transform="translate(566,572)" d="m0 0h10l1 1v13h9v11l-1 1h-8v22h9v10l-3 3h-10l-6-3-4-6v-26h-8v-12l6-1 2-3 1-9z" fill="#080608"/>
<path transform="translate(842,685)" d="m0 0 23 1 10 4 5 5 5 2 7 7 8 15 10 9 9 6 2 2-7-1-13-11-12-9-3-2v-2l-3-1-1-2-3-1v-2l-4-1-2-1v-2l-4-2-1-2 5 1 5 2-3-3-12-6-7-2h-12l-12 3-9 5 2 1-1 3-6 4-13 13-2 3h-2l-1 5-2 6h-2l-1-2v-6l-4 4-3 4-1-4h-3v2l-5-1-2-3v-6l4-1 6 2 7-4 4-5 2-1 3-7 6-8 12-6 14-4z" fill="#69677A"/>
<path transform="translate(1149,1109)" d="m0 0h8l10 4 1 3 4 1 6 7 4 8 1 4v7l-3 9-6 9-7 6-8 3h-13l-10-4-8-7-5-8-1-4v-14l4-10 6-7 9-5zm1 7-10 3-7 6-4 8v13l4 9 7 6 8 3h8l9-3 7-6 3-6 1-4v-12l-6-10-8-5-7-2z" fill="#DDDEE1"/>
<path transform="translate(901,412)" d="m0 0h11v1l-15 3 6 1v2l-15 7-11 4-11 5-3-1-9 7-20 20-1 2 5-1v3l4-1 4-4 3 1 1 3-3 6-1-1h-9l-14 3-15 6h-8l-2-5-2-1 14-8 17-12 9-6h2v-2l5-2 14-9 11-6 13-8 5-2h3l1-3z" fill="#B6ABAC"/>
<path transform="translate(742,710)" d="m0 0 11 1 6 4 4 9 2 8v7l-4 10-2 3h-2l-2 5-10 14-4 6-5-1-1-2v-10l4-16 5-12v-9l3 1-1-6-4-6-4-2 1-3z" fill="#B6ABAC"/>
<path transform="translate(658,624)" d="m0 0 3 1 5 5 6 4 9 3 11 1 15-4 6-2 4 1-3 5-2 3 6-3-2 4-13 12-6 7-7 1-11-4-9-6-6-7-4-8-2-7z" fill="#D3C4BF"/>
<path transform="translate(1113,622)" d="m0 0 11 2 14 8v5l-2 1 5 2 6 1-2 5h-2l-1 2v13l5 10 14 15 11 16 4 9 1 4v8l-5-2-6-7-5-11-8-19-8-11-5-6v-2l-4-2-6-7-9-7-1-9-4-13z" fill="#A5A9B4"/>
<path transform="translate(428,565)" d="m0 0h15v67h-15z" fill="#0F0D11"/>
<path transform="translate(807,1030)" d="m0 0 9 1 10 6 3 2-2-3 4 2v2l4 2 8 11 2 3v3h2l1 5h2l1 5-4-2-7-10-7-5h-5l-1 7 3 14 4 10 3 8 2 7v8l-3 7-6 3-10-1 2 6 6 10 2 4-5-4-3-4v-2h-2l-7-17v-3l13 1 5-5v-13l-6-17-2-6-2-7-4-1-1-13-1-7-6-2z" fill="#D0CFD4"/>
<path transform="translate(402,565)" d="m0 0h14v67h-14z" fill="#050405"/>
<path transform="translate(1e3 996)" d="m0 0h2l1 2 11 1 1 2-16 8-11 8-2 4 9-5 3-1 1-3 5-1v-2l8-5 12-4h17v1l-18 2v3l7 4-1 4-16 11-8 4-9 2h-10l-6 4-5 4 1-7 5-10 8-9h2v-2l7-5-5 2-5 1 4-5 7-4z" fill="#D3C5C0"/>
<path transform="translate(205,479)" d="m0 0h16l6 4 4 6 1 3v12l-5 8-6 4-4 1h-12z" fill="#EEEEEF"/>
<path transform="translate(826,972)" d="m0 0h10l7 3v2l-11 1-2 3 1 5 6 5-2 1-11-7-3-1 1 8 3 5 4 5 9 5 9 6v1l-11 1v2h-3v3l-3 3-10-1-9-2-12 4h-2l-2 4-2 2 2-9 5-10 3-3 3-1h12l8 3h8l-5-5-4-2v-2l-5-2-5-5v-8l4-9z" fill="#D3C4C0"/>
<path transform="translate(537,484)" d="m0 0h11l1 5 5-3 5-2h6v14l-10 2-4 5-1 26h-14v-46z" fill="#060506"/>
<path transform="translate(1150,1105)" d="m0 0 12 1 10 5 8 8 6 12 1 5v8l-3 10-7 10-7 6-10 4-10 1-12-3-10-7-7-9-3-9v-16l5-10 8-9 9-5zm-1 4-10 3-9 6-6 9-2 6v14l3 7 6 8 9 6 6 2h13l8-3 9-8 6-11 1-5v-7l-3-8-6-9-3-3h-3l-1-3-10-4z" fill="#F0F0F0"/>
<path transform="translate(945,1166)" d="m0 0 1 2 7 1 12 6 8 9 4 8v7l-3 3-3 1h-8l-8-4-5-4v-3l-3-1-4-9-2-11 2-1z" fill="#A7ABB5"/>
<path transform="translate(756,929)" d="m0 0 2 3 1 10 3 8 2-9 5 5 6 5 7 3 11 3 4 4-4 1-19-2-4 1 3 2 5-1 26 3 8 3-2 2-9-1-5 5-5 2h-12l-8-4-6-5-6-10-4-16v-10z" fill="#A8ABB5"/>
<path transform="translate(861,855)" d="m0 0h24l1 4-5 4-11 5-18 4h-25l-1-5-7-1-3-2v-2l2-1 16-1 8-3z" fill="#695F75"/>
<path transform="translate(908,478)" d="m0 0 8 1 20 7 19 3h19l2 2-1 5-8 4-5 1h-15l-21-5-16-9-4-2v-5h2z" fill="#A8ACB6"/>
<path transform="translate(1173,891)" d="m0 0 5 3 2 5v10l-6 12-6 5 1-4 3-6-6 1-8 8-5 4h-2l-1 3-14 7-7 1-6-1v-2h-2l1-5 18-6 7-3 8-7 12-14 4-8-1-2z" fill="#D0CFD4"/>
<path transform="translate(884,474)" d="m0 0h6l-5 5-5 3 5-1 16-5-1 10-20 5-17 6-19 11-15 14-7 9v-3l8-10 10-15 5-6 11-9 13-8z" fill="#A8ACB6"/>
<path transform="translate(895,1066)" d="m0 0h3l7 11 5 4 5 5 2 4-3 3v12l-1 5-3 2h-6v-2l-5-2-3-3-6-12-1-7 4-11z" fill="#050406"/>
<path transform="translate(435,679)" d="m0 0 8 1 8 5 3 4v2h3l-1-9 3 1 1 9-3 3-9-1v-2l2-1 1-3-5-2-4-2h-10l-5 3-5 6-1 5 9 3 7 6 3 5v7l-4 4h-6l-6-5-4-6-3-10v-2l-9 2-5 5-2 4v8l4 8 9 9h-5l-6-5-4-6-1-4v-13l4-6 5-4 10-2 5-10 9-6z" fill="#100E12"/>
<path transform="translate(938,413)" d="m0 0 24 1 25 6 24 8 7 4 14 5v3l-2 3-7-1-18-7-16-5-16-3-1-1-21-2-1-3h4v-2l-16-4z" fill="#718490"/>
<path transform="translate(967,1051)" d="m0 0 4 1 2 3 3 9 5 10-1 3-10 2-12 1-9-2-1-1h-7v-4l5-4 4-6 3-3h2l1-3 5-2v-2z" fill="#695F75"/>
<path transform="translate(757,553)" d="m0 0 3 3 1 6h2l1 6-3 3h-2v2h-2l-2 5h-2l-2 6-4 10-3 7-7 8-2 4h-2v3h-2l-1 2-6 2-17 10-7 2h-7l4-2 11-3v-2l10-6 12-12 3-6h2l1-6 13-29 5-8z" fill="#6F6479"/>
<path transform="translate(994,495)" d="m0 0 1 4 7 10 7 8 12 24 1 5v7l-7 10-5 12-14 5-11 2-10-7-4-5v-2h-2l-7-8-2-3 4 2 5 4 3 3v2l3 1v2l4 2 2 2 5-1 7-3 10-3 7-2 2-5 4-7v-7l-5-12-9-17-6-7-3-5-2-8z" fill="#D0CFD4"/>
<path transform="translate(924,769)" d="m0 0 7 1 1 5h2l3 6 14 9 4 4 4 3v2l-7 3h-10v-2l-5-1-7-8-4-3v-4l-6 1h-13v-3l2-4 5-3h3v-2z" fill="#687F8B"/>
<path transform="translate(257,484)" d="m0 0h14v47h-14z" fill="#070607"/>
<path transform="translate(725,469)" d="m0 0 3 1v7l-4 8-8 9-11 7-8 4-12 2-6-3-2-3 1-9 5-6h2l1-3 7-5 8-1-2 5-3 1-2 4-6 7-1 6 8-1 11-8 12-11 5-10z" fill="#D0CED2"/>
<path transform="translate(878,1112)" d="m0 0 4 2 9 5v2l9 2 7 2 4-2v2l5 1 2 2-3 3 9 4h12l6-2 2 2h10l1 3-21 4-4 4-3 1h-7l-9-3-2-4-2-2 7 1 6 1 2-1v-2l-7-2v2l-8-1-6-2v-2l-6-2-6-4-9-8z" fill="#687F8A"/>
<path transform="translate(317,864)" d="m0 0h12l12 2 12 5 10 8 8 9 6 12 3 15v9l-3 14-7 14-7 8-9 6-10 5-11 3h-16l-14-4-8-4-9-7-7-9-4-5-1-5 3 1 5 9 9 10 11 7 11 4 5 1h13l16-5 10-6 8-7 8-13 3-8 1-4v-19l-3-10-5-10-11-12-11-7-11-4h-21l-12 4-9 5-8 7-1 2h-2l-2 5-5 9-3 9v13l-3-1v-9l3-12 6-11 9-10 9-7 12-5z" fill="#0B090C"/>
<path transform="translate(950,755)" d="m0 0h12l4 1v2h3v2h3v2h2l5 7v8l-4 6-5 4-2 1h-14l-2-1v-2l13-1 7-6 1-7v-2h-14l-15-2 3-3 5-2 9 1 7 2-5-4-6-2h-7l-8 5-3 5-1 10h-3l-2-4v-9l6-7z" fill="#EFEFF0"/>
<path transform="translate(931,452)" d="m0 0h27l12 2 20 7 24 13 17 6 9-1-1 4-3 4 3 1-4 2-7-1-20-13-16-8-15-7-16-4-26-2h-17v-1z" fill="#A8ABB5"/>
<path transform="translate(746,736)" d="m0 0h1l2 12 3-1 2-10 1 2h2l1-2 1 5-1 10-10 15-7 10-5-1-1-2v-10l4-16 5-10z" fill="#A58F99"/>
<path transform="translate(824,784)" d="m0 0 11 2v1l-9 1-3 2h6l-1 4-2 2-2 19-2 1-16 1 3 2-11-1-12-4-8-5v-1l8 1 15 4 13 1-3-6v-11l6-8 4-4z" fill="#D0CFD4"/>
<path transform="translate(738,582)" d="m0 0h2l-3 9-6 7-6 9-10 10h-2v2l-14 7-7 2h-5v2l3 1-11-1-1-3-1-1v-2l-7 1-6-2-3-4-2-5-1 10h-1v-14l2-8 2-2 2 12v2l4 2 11 3 9 2h10l10-3 8-4 9-9 5-8 6-12z" fill="#D3C6C2"/>
<path transform="translate(776,724)" d="m0 0 4 5 4 1v-2h3l2 2 4-6h2l2 8 1 12 4 6 3 2v2h-7l-5-5-13-10-1 6 4 5 10 5v1l-7-1-8-6-5-6v-12z" fill="#A7ABB5"/>
<path transform="translate(1113,622)" d="m0 0 11 2 14 8v5l-2 1 5 2 6 1-2 5h-2l-1 2v16l-7-6-6-7-3-4v-3l4-1 1-4-5-1-8-6-3-6z" fill="#A8ACB6"/>
<path transform="translate(953,1103)" d="m0 0 11 1-3 2 7 6v2l4 2 8 5 10 4 8-1 14-5 1 2-19 8-9 4-13 6-15 7-7-1-7-2v-2l21-4 17-7 2-2-8-4-10-6-5-5-6-4-2-5z" fill="#CCD3E5"/>
<path transform="translate(807,1030)" d="m0 0 9 1 10 6 3 2-2-3 4 2v2l4 2 8 11 2 3v3h2l1 5h2l1 5-4-2-7-10-7-5h-5l-1 7 1 8-3-4-4-9-2-1-3-14-8-5z" fill="#D2C4BF"/>
<path transform="translate(915,735)" d="m0 0 11 1 7 2v2l-5 2 5 3 8 3 1 2-2 2h-3l-6 3-5 5-5 1-5-3-5-11 1-6z" fill="#677D89"/>
<path transform="translate(923,418)" d="m0 0h15l3 3-8 3-22 5-9 2-10 4-9 4-8 4v-3l2-4 3-1v-2l4-1v-2l6-5 10-2 10-3z" fill="#B6ABAC"/>
<path transform="translate(922,563)" d="m0 0h15l7 4 7 8 2 7-3 2-7-1-8-5-17-6-2-2 1-5z" fill="#EDEDEE"/>
<path transform="translate(888,414)" d="m0 0 2 1-1 2-9 4-14 8-16 9-8 6h-4v2l-21 14-14 9-10 6-4 2-3 3-6 1-2-1-18 1 3-2 15-2 10-4 16-8 15-9 16-11 13-11 10-8 8-5 17-6z" fill="#D0CFD4"/>
<path transform="translate(767,603)" d="m0 0 7 1 1 2-6 1-1 16-3 7-8 16-6 8 4 2v3l-10-1h-10l-7 4h-3v2l-13 10-12 4h-2l-1 3-1-7 1-2 12-3 11-6 5-4 9-4 11-1 1-3 6-4 5-8 6-12 2-12v-9z" fill="#D2D1D6"/>
<path transform="translate(691,682)" d="m0 0 4 1 3 3v3l4 2 8 7v3h-2v2l-7 1-2-1v-2l-6-1-4-1h-9l-4 1h-8l-1-4 1-1h7l7-4z" fill="#6B687B"/>
<path transform="translate(396,496)" d="m0 0h8l6 5 1 3v7l-4 6-4 2h-7l-5-4-1-2v-11l4-5z" fill="#E9E9EA"/>
<path transform="translate(364,598)" d="m0 0h8l5 3 2 5v7l-6 7-2 1h-7l-6-7-1-2v-6l4-6z" fill="#EAEAEB"/>
<path transform="translate(1145,1104)" d="m0 0h16l10 4 9 8 6 9 3 12-1 12-6 12-9 9-10 5-5 1h-13l-10-4-8-6-7-8-4-10v-16l5-12 4-5 9-7zm5 1-12 3-9 6-7 8-4 9v16l3 9 7 9 10 7 12 3 14-2 9-5 8-9 5-10 1-5v-8l-3-10-6-9-8-7-8-4z" fill="#A7AAB3"/>
<path transform="translate(1112,816)" d="m0 0 2 1-1 1 4 1v-2l9 1 12 6 4 3 2-2 3 10v3h2v3h2l5 9 5 12 1 5v9l-2 2-1-12-6-15-6-10-11-9-10-5-16-3-4-3z" fill="#AA969E"/>
<path transform="translate(1282,268)" d="m0 0h135v44h-136v-21zm2 1-1 1v40l1 1h131l1-1v-41z" fill="#575161"/>
<path transform="translate(929,1156)" d="m0 0h10l9 5 1 3-4 3-2 4-11-2-15-4-8-1v-2l-6-1v-1l19-3z" fill="#695F75"/>
<path transform="translate(855,434)" d="m0 0 2 1-5 4h-2l-1 3-11 8-3 1-2 4-4 3h-2v2l-6 4-9 9h-2l1 4-3 1h-8l-2-5-2-1 14-8 17-12 9-6h2v-2l5-2z" fill="#A8ACB6"/>
<path transform="translate(712,774)" d="m0 0 1 2h3l4 4 2 5 1 6 5 1 1 4h2l8 15 7 7 9 6 6 3-3 1-11-6-5-4-4-5-2-1v-2h-2l-1-4h-2l-5-7v-2h-5l-2 2-1-5-4-1 2 8-3 5-2-2v-13l-2-6h2v-10z" fill="#D0CFD4"/>
<path transform="translate(821,696)" d="m0 0 4 2-1 3-6 4-13 13-2 3h-2l-1 5-2 6h-2l-1-2v-6l-4 4-3 4-1-4h-3v2l-5-1-2-3v-6l4-1 9 3 7-4 19-19z" fill="#6C838E"/>
<path transform="translate(1108,589)" d="m0 0h11l6 3 6 8 3 7-1 3-14-6-13-4-4-4 1-4z" fill="#F0F0F0"/>
<path transform="translate(901,560)" d="m0 0 5 1-2 1 1 3h-2l-2 4-9 11-3 3-1 5-17 4-4-1 10-8 6-8 5-6z" fill="#696377"/>
<path transform="translate(1088,833)" d="m0 0m-2 1 2 1-4 3zm-4 4 2 1-4 3zm3 2h11l11 2 7 2 7 4 17 8 6 4 6 13 4 8 1 3 2 2-3 5-2-2-3-12-9-13v-3l-4-2-19-9-16-4-13-1-7 2h-3l1-5 5-1z" fill="#D0CFD4"/>
<path transform="translate(975,461)" d="m0 0 6 1 24 11 23 15 7 1 4-1v-2l6-4h2l-2 5-7 6v2l-4 1-11-5v-2l-5-2-16-10-6-2v3l-6-5-4-4-11-6z" fill="#6A6076"/>
<path transform="translate(1063,1006)" d="m0 0 5 2 2 3-8 9-10 6-16 8-12 9-3 5-1 7h15l11-2h6v4l-5 5-1-3h-26l-4-3v-7l6-8 14-10 11-6 13-8 4-9z" fill="#D0CFD4"/>
<path transform="translate(255,269)" d="m0 0h45v38h-46l1-30h13v4h-9v5h9v4h-9v5h9v4h-12v7h43v-36h-44z" fill="#262129"/>
<path transform="translate(750,662)" d="m0 0 12 1-5 5-7 8-5 8-12 6-11 3h-8l-9-3-2-3 6 2h10l10-4 5-4h2v-2l9-5 3-7z" fill="#D3C5C0"/>
<path transform="translate(1114,814)" d="m0 0h18l16 6 6 3v2l-9-3-2 6-10-6-7-3-9-2v2h-5v-2l-5 4 4 2-3 2-10 2-15 10 2-4 8-8 12-7h3v-2z" fill="#A6939C"/>
<path transform="translate(226,277)" d="m0 0 5 1 4 8 1 5 2-1 5-12 1-1h5v22h-4v-14l-6 14h-4l-5-13-1-1v14h-4v-21z" fill="#09080A"/>
<path transform="translate(196,277)" d="m0 0 6 1 5 12 2-3 4-9 6-1 1 1v21h-4l-1-15-5 14-5 1-5-13-1 13h-4z" fill="#0A090B"/>
<path transform="translate(1009,1031)" d="m0 0 2 1-1 2h-2v3l-8 4-1 2h-2l-1 3-9 4-10 2v9h-2l-1-5h2v-7l3-8 7-5 13-1z" fill="#A58F99"/>
<path transform="translate(1029,1017)" d="m0 0 3 1-4 4-9 4-14 8-12 3h-7l-7 5-3 14h-2l-1-5v-7l3-10 2 4 8-7 7-1 10-1 8-3 10-6z" fill="#B5ABAC"/>
<path transform="translate(821,984)" d="m0 0 5 1 9 6 6 3 11 2h9l5 5 2 7-3 4h-2l-3-6-6-4-12-3-13-6-3-1v6l-4-4-2-5z" fill="#A8ACB6"/>
<path transform="translate(892,738)" d="m0 0 2 1 2 8v8l-5 1-8 1-16-6-6-3 1-2 14 1 10-2 3-1 2-4z" fill="#D4C5C0"/>
<path transform="translate(924,1092)" d="m0 0 6 2 7 6 2 10-2 10-4 2-16-1 1-3 6-2 3-10 1-4-1-6z" fill="#6B828D"/>
<path transform="translate(853,699)" d="m0 0h10l10 7 3 3v10l-5 3-9-1-1-1v-7l2-4v-2l-5-2-6-4z" fill="#A8ACB6"/>
<path transform="translate(1111,812)" d="m0 0h13v1l-13 3h-3v2l-12 6-10 9-10 10v-3h-3l-2-6 9-7 14-8 14-6z" fill="#E7E7E9"/>
<path transform="translate(1110,573)" d="m0 0h12l6 3 5 5 4 5 2 3v5l-4-5-8-7-3-1h-15l-11 4-5 2h-2l2-5 8-6z" fill="#EAE9EB"/>
<path transform="translate(871,691)" d="m0 0 5 1 4 3 5 2 7 7 8 15 10 9 9 6 2 2-7-1-13-11-12-9-3-2v-2l-3-1-1-2-3-1v-2l-4-1-1-3 5 1 5 2v-4l-5-2-5-4z" fill="#645E71"/>
<path transform="translate(832,823)" d="m0 0 9 1 1 1v6l-9 6-2 3-6 1-27-1-18-3-8-3 3-1 11 3 13 1 22-2 4-2h4v-2l4-2 1-4z" fill="#D1D0D4"/>
<path transform="translate(742,710)" d="m0 0 11 1 6 4 3 6-1 3-1-4-4-1-2 9-1 5v5h-3l-1-5h-3l-1 2-1-8 3 1-1-6-4-6-4-2 1-3z" fill="#D3C4BF"/>
<path transform="translate(658,612)" d="m0 0 3 4 3 6 6 2h7v2l3-1v2h-2l1 3-9-2-4-1 5 4 10 4 10 1 13-3 13-5 4 2-3 6 2 1-6 5-3-1 4-5v-3l-5 1-13 4-11 1-10-2-10-6-5-4v-2l-3-1z" fill="#B6ABAC"/>
<path transform="translate(376,904)" d="m0 0h2l2 11v9l-3 14-7 14-7 8-9 6-10 5-11 3h-16l-14-4-8-4-9-7-7-9-4-5-1-5 3 1 5 9 9 10 11 7 11 4 5 1h13l16-5 10-6 8-7 8-13 3-8 1-4v-19z" fill="#080709"/>
<path transform="translate(940,1133)" d="m0 0 4 2h10l1 3-21 4-4 4-3 1h-7l-9-3-2-4-2-2 7 1 6 1 2-1v-4h14z" fill="#68808B"/>
<path transform="translate(274,277)" d="m0 0h10l4 3 1 6-3 3 1 6 1 4h-5l-3-7-3-1v8h-4v-21z" fill="#09080A"/>
<path transform="translate(873,808)" d="m0 0 12 2 6 4 5 5v2l-21-3-20-4 2-2z" fill="#F1F1F1"/>
<path transform="translate(983,733)" d="m0 0v3l-11 8-5 3-16 2h-6l-2 1-14-6-2-3 11 1h22l10-3 7-3z" fill="#A8ACB6"/>
<path transform="translate(834,490)" d="m0 0 3 1-1 4-1 2-5 1-1 3-11 6-3 2-15 3-2-1v-2l5-1v-3l-4-1-2-4h8l2 3 7-1 7-4 8-5z" fill="#D0CFD4"/>
<path transform="translate(1022,1116)" d="m0 0 7 3 4 4v2h2v2l3 1 4 6 2 5-1 11-4 14-2 1v-17l-3-11-2-5-3-9-4-2-1-2-3-2z" fill="#D0CFD4"/>
<path transform="translate(765,917)" d="m0 0 3 3v10l-1 5h-2l2 6-1 2-1-1-2 9-3-3-2-6-1-10-2-1 1-9 5-2 3-1z" fill="#D0CFD4"/>
<path transform="translate(844,688)" d="m0 0h12l12 4 10 6v2l-9-2 2 3-4-2-1-3h-2v-2l-9-2h-13l-5 2-3 5-7 1v2l-8 4-2-1 7-5 1-2-3-1 10-6z" fill="#AAACB5"/>
<path transform="translate(739,586)" d="m0 0 1 3-4 8-1 4-3 3-3 6-8 7-7 6-12 5-8 2h-7v-2l15-4 9-5h2v-2l8-7h2l2-4 8-12h2l2-5z" fill="#ECECEC"/>
<path transform="translate(768,858)" d="m0 0 5 1 3 2 5 17v8l-5 1-4-5-4-10z" fill="#EFEFEF"/>
<path transform="translate(995,474)" d="m0 0 5 1 17 10 6 4v2l4 1 2 2-4-1-4-2-7 1-4 1-8-5-4-2-2-9z" fill="#A8AAB4"/>
<path transform="translate(1e3 426)" d="m0 0 5 1 10 5 14 5v3l-2 3-7-1-18-7-16-5-10-2v-1l11 1 11 3h5v-2h-2z" fill="#6F848F"/>
<path transform="translate(1043,752)" d="m0 0h5v4l-9 6-6 2-17 1-3-1 1-4 11-4z" fill="#696579"/>
<path transform="translate(819,282)" d="m0 0 6 1 2 4-7-2h-2v9l10-4 4-4 3 1v3l4 1v-7h3l1-2h3v13l-5 1-6-1-2 2h-3v-4h-4v2l-4 2-5-1-3-5 1-6z" fill="#D0D0D5"/>
<path transform="translate(1059,423)" d="m0 0 7 1 11 7 10 9 8 9 8 10v2l3 1 5 7h-3l-5-4v-2h-2l-11-14-5-6-11-9-3-1-1-2-11-6z" fill="#ACADB6"/>
<path transform="translate(687,529)" d="m0 0v3l-18 18-7 10h-2l-1 5-6 12h-3l1-8 8-14 12-13 11-10z" fill="#81919C"/>
<path transform="translate(861,855)" d="m0 0h24l1 4-3 2v-3h-17l-15 1-20 4-3 3 4 2v4h-5l-1-5-7-1-3-2v-2l2-1 16-1 8-3z" fill="#68808B"/>
<path transform="translate(944,767)" d="m0 0 13 1 4 2h10l2 5-4 5-4 1-5-4-6-2h-6l-6-5z" fill="#A8ACB6"/>
<path transform="translate(261,462)" d="m0 0h7l4 5v7l-5 4h-7l-4-5v-7z" fill="#060506"/>
<path transform="translate(936,783)" d="m0 0 6 1 10 7 3 3 4 3v2l-10 2-6-2-5-6-2-6z" fill="#696277"/>
<path transform="translate(882 1e3)" d="m0 0h1v20l-4 14h-2v3h-6v-2h-3v-2l-3-1-5-6h11l7-6 3-7z" fill="#B2ABAE"/>
<path transform="translate(725,474)" d="m0 0h2v6l-7 10-8 7-15 8h-6l5-4 10-7 10-9 7-8z" fill="#BAAFAF"/>
<path transform="translate(946,1166)" d="m0 0h11l12 6 8 9 3 7-1 7-2 2-3-10-7-9-9-6-12-4z" fill="#eee"/>
<path transform="translate(738,582)" d="m0 0h2l-3 9-6 7-6 9-10 10h-2v2l-14 7-3 1h-15l1-2 11-2h4v-2l10-3 8-4 9-9 5-8 6-12z" fill="#ACAFB9"/>
<path transform="translate(1135,283)" d="m0 0 3 1 4 8v2h2v-10l4 1v2l8 2 2-3 4 1v3h-4v3h5l-1 3-5-1-4-3-3 5-9-1-4-4v-5h-2v6l-3 3h-2l3-9z" fill="#78797E"/>
<path transform="translate(842,685)" d="m0 0 23 1 10 4 1 2h-4l12 8 1 5-10-3-2 1v-2l-4-2-1-2 5 1 5 2-3-3-12-6-7-2h-17l3-1z" fill="#6A7C88"/>
<path transform="translate(731,671)" d="m0 0h4l1 4-7 8-3 3h-2v2h-8l-2-3 5-6h2v-2l7-5z" fill="#B5ABAC"/>
<path transform="translate(740,747)" d="m0 0h2v17l6 1-2 5-5 7-5-1-1-2v-10l4-16z" fill="#72677B"/>
<path transform="translate(1159,646)" d="m0 0h2l2 16 7 2 8 3 2 2v4l-4 1-9-2-7-8-2-8v-9z" fill="#A8ACB6"/>
<path transform="translate(989,282)" d="m0 0h4v2l4 2 4 3-2 6-13 1-3-5 1-6z" fill="#C1C0C2"/>
<path transform="translate(922,1120)" d="m0 0 10 2 8 5-1 5-4 3h-6l-1-2 7-1-1-2-13-3-7-3 1-3z" fill="#ECEDEF"/>
<path transform="translate(854,604)" d="m0 0 7 2 9 5 13 4 9 2 11 1h27v1l-10 1h-26l-25-4-7-5-1-2-3-1h-13l2-2z" fill="#D0CFD4"/>
<path transform="translate(919,549)" d="m0 0h8l9 2 6 5-2 1-10-3h-12l-14 4-12 7-2-1 8-7 12-6z" fill="#E8E7E9"/>
<path transform="translate(687,719)" d="m0 0h11l5 1h9l6 4-2 1-5-1-2 5-4-1-2 1v-2l-10-1-3 3-3-7z" fill="#D0CFD4"/>
<path transform="translate(691,682)" d="m0 0 4 1-3 1v7h-3l1 5 5 3-2 1-4-1h-9l-4 1h-8l-1-4 1-1h7l7-4z" fill="#7E8F9A"/>
<path transform="translate(1052,467)" d="m0 0 5 5 14 22 1 5-3-2-1-5-4-2h-2l2 5-7-6-3-7-2-10-1-2z" fill="#D4C5C0"/>
<path transform="translate(1123,1117)" d="m0 0 2 1-2 4-4 9v16l3 9 7 9 9 6 12 3 14-2 4-1v2l-10 3h-13l-10-4-8-6-7-8-4-10v-16l5-12z" fill="#A6ABB5"/>
<path transform="translate(988 1e3)" d="m0 0h5v3l-1 2 6-3 3 1-6 5h-2v2l-5 5-5 6-3 3v-5l-2-1 1-5 8-10z" fill="#B6ABAC"/>
<path transform="translate(187,1108)" d="m0 0h9l3 5-1 7-2 2-9 1-1-1v-13z" fill="#0E0C0F"/>
<path transform="translate(888,714)" d="m0 0 5 3 4 5 7 6 2 9-1 10-1 5-2-3-3-13-8-16-3-4z" fill="#B5AAAC"/>
<path transform="translate(1018,1078)" d="m0 0 2 1-2 3-2 6-4 5h-2v2h-3v2l-6 3-4 3-5 1h-7l4-3 10-6h3v-2l6-3 6-9h2v-2z" fill="#D2D1D5"/>
<path transform="translate(771,672)" d="m0 0 4 2 1 1v6l-7 8-2 7-3-1-1-5 1-2v-11z" fill="#A8ACB6"/>
<path transform="translate(978,1016)" d="m0 0 1 2-1 3 3 1-2 10-1 2h-2l-3 17h-1l-2-13 1-12 4-7z" fill="#A59099"/>
<path transform="translate(877,591)" d="m0 0h42l19 2 12 6 5 4 1 5-4 4-2-1 2-4-2-5-12-6-10-2-16-1h-15l-14 2h-8l-3-2z" fill="#D0CFD4"/>
<path transform="translate(1052,490)" d="m0 0 4 1 6 7 2 1 1-4 6 5 4 9-2 1-19-2 6-3-3-8-5-6z" fill="#D4C5C0"/>
<path transform="translate(1117,817)" d="m0 0 9 1 12 6 4 3 2-2 3 12-4-4-8-4-13-6-10-3v-1h5z" fill="#B9AEAE"/>
<path transform="translate(950,758)" d="m0 0h7l8 3 5 5-9-2-9-1-7 3-2 4 1 2h-2v5h-2l-1 4-4-1 3-1v-10l4-6z" fill="#CBD2E4"/>
<path transform="translate(421,701)" d="m0 0 7 3 8 7 1 7-2 2-5-1-6-7-3-6z" fill="#EAEAEB"/>
<path transform="translate(1119,633)" d="m0 0 12 6-1 5-2 1-2-1 4 7 8 9v2l-4-1-4-5-9-7-1-9z" fill="#5F5A6C"/>
<path transform="translate(948,1181)" d="m0 0 5 1 8 5 3 7-1 5-5-1-6-5-4-7z" fill="#EDEDED"/>
<path transform="translate(725,469)" d="m0 0 3 1v7l-1-3-5 5-7 8-11 10-11 7v2l-8 1v-4l10-4 11-8 12-11 5-10z" fill="#D3C5C0"/>
<path transform="translate(893,1045)" d="m0 0 2 4 4 12 6 10 9 10 11 8v1h-5l-4-4-5-2-4-5-5-5-6-10-2-5-1-6z" fill="#E0E0E3"/>
<path transform="translate(679,856)" d="m0 0 1 3 7 2 1 2 16 5v3l-2 1h-7l-9-3-5-2-3-3z" fill="#E8E8E9"/>
<path transform="translate(1159,692)" d="m0 0 5 5 5 10 6 1 2 7v8l-5-2-4-4-5-13-4-10z" fill="#6D828D"/>
<path transform="translate(190,1137)" d="m0 0 4 2v4h2l1-5 1-1h5l3 3v2l4-1v6l3-1-1-7 3 1 2 6-2 3-9-1-1-2-4 2-1-1v-5h2v-3h-4l-2 9h-3v-4h-3z" fill="#424047"/>
<path transform="translate(878,1116)" d="m0 0h2l5 5 8 7 8 4v2l9 2 5 1v-2l7 1v4l-5 1-15-4-16-9-7-8z" fill="#696A7C"/>
<path transform="translate(888,414)" d="m0 0 2 1-1 2-9 4-14 8-16 9-4 3-2-1 6-5h2v-2h2l1-3 13-8 13-5h2v-2z" fill="#D2C4C0"/>
<path transform="translate(1019,665)" d="m0 0h3l2 15 4 9-1 2-4-6v-2h-3v7l-4 2v-19z" fill="#746F82"/>
<path transform="translate(729,895)" d="m0 0 6 1 6 5 3 6-2 4-6-1-7-8-1-6z" fill="#A8ACB6"/>
<path transform="translate(1342,725)" d="m0 0h8l3 3v2h3l-1 5-5 2-9-1-1-8z" fill="#CCCCCF"/>
<path transform="translate(207,607)" d="m0 0 4 2 7 7v3l-7 3-5-1-3-4 1-7z" fill="#E8E8EA"/>
<path transform="translate(1013,493)" d="m0 0 6 1 6 3v2l4-1h7l12 4 1 3h2v2l-10-1-13-4-12-6z" fill="#BAAFAF"/>
<path transform="translate(779,766)" d="m0 0 8 8 8 7 1 4-10-1-4-4-5-7v-5z" fill="#A9ACB6"/>
<path transform="translate(758,536)" d="m0 0 1 4-1 9 1 5-5 4v-2l-4 1-2-4 1-6 5-8h2v-2z" fill="#CBCBD0"/>
<path transform="translate(929,1156)" d="m0 0h10l9 5 1 3-4 2-9-6h-22l-1 4h-4v-2l-6-1v-1l19-3z" fill="#68808B"/>
<path transform="translate(1267,1157)" d="m0 0 7 2 1 4-3 5-5-2-1 2h-3l2-7h-3l-2 5-3 2h-3l-1-3-1 2h-2v-7l6-1 2 6 4-6 5 2z" fill="#909099"/>
<path transform="translate(875,784)" d="m0 0 3 1v1l27 1 1 2-8 4-15 2h-10v-1l14-2 2-3-16-1-4-2z" fill="#CCD3E5"/>
<path transform="translate(307,912)" d="m0 0h2l2 13v4l-4-1-7-8 1 10h-3l-2-7v-9l5 1 4 5v2h2z" fill="#0D0B0E"/>
<path transform="translate(858,697)" d="m0 0h5l10 4-4 2-5-2-1-1h-10l3 3 7 4 1 3h-4l-4-4-9-2-7-3v-2l4-1z" fill="#D3C5C1"/>
<path transform="translate(1080,629)" d="m0 0h11l11 3 14 10 3 3 1-5h1l1 10-4-2-7-7-7-4-5-4-11-2-9 1-9 6-4 6-2-1 3-6 3-3z" fill="#D0CFD4"/>
<path transform="translate(767,603)" d="m0 0 7 1 1 2-6 1-1 16-3 7-7 13h-2l2-6 5-10 2-12v-9z" fill="#D0CFD4"/>
<path transform="translate(1150,781)" d="m0 0 4 2 3 10 1 15-2 11-1 2-5 1-9-4 3-1 7 1 2-5 1-6v-13l-3-11z" fill="#D0CED3"/>
<path transform="translate(1108,619)" d="m0 0h8l7 3 13 4 5 5 1 5-2 4-5-1 1-2h2l-1-5-6-3-7-4-11-2z" fill="#D0CFD4"/>
<path transform="translate(1313,283)" d="m0 0 8 1 3 5-1 4-4 2h-6l-2-3v-7z" fill="#E4E5E6"/>
<path transform="translate(1039,1182)" d="m0 0 5 1 2 3v8l-2 4-5 1-2-5v-7z" fill="#A8ACB6"/>
<path transform="translate(741,839)" d="m0 0 2 1-1 7-7 8-3 1v2l-7 3h-17l-1-2 15-2 12-6 7-7z" fill="#6D6C7E"/>
<path transform="translate(471,596)" d="m0 0h8l6 5v3h-19l1-4z" fill="#DCDDE0"/>
<path transform="translate(891,755)" d="m0 0 3 1-2 4-7 4v-2h-12l-5-2 3-2 8-2h9z" fill="#B6ABAC"/>
<path transform="translate(1075,711)" d="m0 0h3v2l-8 4h-2v4l19-2 17 1 11 3-4 1-11-2h-20l-14 2-2-1 1-5 4-4 3-2z" fill="#D0CFD4"/>
<path transform="translate(209,1112)" d="m0 0h6l1 1v11l-3 3-5-1-1-12z" fill="#131115"/>
<path transform="translate(843,995)" d="m0 0 14 1 6 1 3 4 2 7-3 4h-2l-1-7-8-5-1-2-3 1-7-3z" fill="#D0CED3"/>
<path transform="translate(1036,738)" d="m0 0 4 1 3 1v2h2l-1 3-15 5-5-1 2-1 1-3z" fill="#68808B"/>
<path transform="translate(852,286)" d="m0 0 4 1 5 2 1-3h3v10h-4v-2l-6 1v2l-4-1-1-3z" fill="#8D8E94"/>
<path transform="translate(1094,819)" d="m0 0 3 1-10 6-4 2-2 4-3 10-2 1v-3h-3l-2-6 9-7z" fill="#D0CFD4"/>
<path transform="translate(1052,471)" d="m0 0 2 4 2 11 7 8 2 3-1 3-8-7-1-2h-4l-1-6v-12z" fill="#B6ABAC"/>
<path transform="translate(1269,1113)" d="m0 0 3 1 1 6 2-1 1-5h3l4 5 1-5h3l-3 12h-4v-7l-3 1-2 6h-4l-3-12z" fill="#0D0B0E"/>
<path transform="translate(948,720)" d="m0 0h7l4 4-1 4-4 2-7-1-2-4h-2l2-4z" fill="#F0EFF0"/>
<path transform="translate(1367,643)" d="m0 0 7 1 1 3-1 8-2 2h-5l-2-3v-9z" fill="#88888D"/>
<path transform="translate(501,494)" d="m0 0h6l6 4v4h-18l1-4z" fill="#DCDDE0"/>
<path transform="translate(208,576)" d="m0 0h6l3 3-1 7-3 3-5-1-2-3v-6z" fill="#E2E3E5"/>
<path transform="translate(912,411)" d="m0 0h24l19 2v1h-10l-7-1v2l7 1v1l-18-1-8-3-7-1z" fill="#A8ACB6"/>
<path transform="translate(1321,684)" d="m0 0h6l3 2v8l-2 2h-7l-1-1v-10z" fill="#E0E0E2"/>
<path transform="translate(262,923)" d="m0 0 5 1 2 3v6l-3 1v2l-6-1-2-4 1-5z" fill="#161318"/>
<path transform="translate(823,534)" d="m0 0v3l-6 10-1 4-3 3 1 2-3 7-2-4 1-4h-2l-1 2 1-5 6-12 1 2-2 5 1-1 5-9z" fill="#C2C3CA"/>
<path transform="translate(1328,603)" d="m0 0h6l5 6 5-1-2 6-3 3-5-1v-7l-1-5h-3l1 10-1 2-3-1 1-7-1-4z" fill="#0D0B0D"/>
<path transform="translate(660,816)" d="m0 0 5 1 3 1 2-1h7l4 1 15 1-4 2-14 2h-7l-10-5z" fill="#D0CFD4"/>
<path transform="translate(260,1108)" d="m0 0 5 1 3 9v4l-9-3-1 3h-3l3-10z" fill="#242326"/>
<path transform="translate(249,1139)" d="m0 0h5l1 7-2 3-4-1-5-2-1 3h-4l1-3 3 1-1-5-3-1-1 5-2-1 1-4 1-1h6l1 4h2z" fill="#807E83"/>
<path transform="translate(316,916)" d="m0 0h6l2 3v7l-4 2-4-1-3-5 1-4z" fill="#131115"/>
<path transform="translate(687,529)" d="m0 0v3l-18 18-4 2-6 5 2-4 9-10 12-11z" fill="#8E9AA4"/>
<path transform="translate(727,821)" d="m0 0 6 2 12 9 1 5-4 1-13-12z" fill="#E4E4E6"/>
<path transform="translate(787,922)" d="m0 0 4 1 7 9v5l-6-1-5-5-1-7z" fill="#D0CFD4"/>
<path transform="translate(340,913)" d="m0 0h3l-2 12-3-1-4-4-1 6h-3l-5-10 3-1 3 4 1-5 4 1 4 4z" fill="#111013"/>
<path transform="translate(880,416)" d="m0 0 3 1-10 4-10 5-8 5-1 2h-2v2l-7 5-3 4h-4v2l-5 2 4-5 10-8 11-9 8-5z" fill="#D0CFD4"/>
<path transform="translate(979,427)" d="m0 0 11 1 20 6 16 6 3-1-3-2-4-2 2-1 9 4-3 5-7-1-18-7-16-5-10-2z" fill="#A8ACB6"/>
<path transform="translate(1148,1133)" d="m0 0 5 1 7 6-4 4-5 4h-2z" fill="#E4E5E7"/>
<path transform="translate(775,969)" d="m0 0 16 2 4 1 2 1-6 3h-12l-5-2-1-4z" fill="#B7ADAE"/>
<path transform="translate(683,781)" d="m0 0 4 2 2 4 1 8-1 2-4-2-5-4 1-8z" fill="#68808B"/>
<path transform="translate(978,746)" d="m0 0v3l-3 4-1 8-5-1v-2h-3v-2l-6-1v-2l8-1 7-5z" fill="#6B6378"/>
<path transform="translate(819,282)" d="m0 0 6 1 2 4-7-2h-2v9l10-4 4-4 3 1-1 4-3-1-3 3h-2v2l-4 2-5-1-3-5 1-6z" fill="#1D1A20"/>
<path transform="translate(1225,1113)" d="m0 0 4 1v2l-4 2v2h5l-1 6-7 1-2-4v-7l1-2z" fill="#3D3C42"/>
<path transform="translate(1410,687)" d="m0 0 3 1v10l-4 2-5-1-2-3v-6h2v7l2-1v-8z" fill="#727078"/>
<path transform="translate(1110,573)" d="m0 0h12l4 3-18 1-9 4-1 2-5 3-2 1 2-5 8-6z" fill="#A8ACB6"/>
<path transform="translate(1345,1117)" d="m0 0 7 1v9l-2 3h-6v-12z" fill="#39373B"/>
<path transform="translate(297,1136)" d="m0 0h2l4 7-1 5-4 1-4-1-4 1 2-6h2l1-4h2z" fill="#8C8A90"/>
<path transform="translate(840 1e3)" d="m0 0h8l5 5-2 4-3 1-9-5-1-4z" fill="#A6929B"/>
<path transform="translate(862,814)" d="m0 0h17l16 4 1 3-21-3-13-3z" fill="#CCD3E5"/>
<path transform="translate(821,512)" d="m0 0 2 1-19 10-15 6-2 3-2-3 1-4 7-2 9-2z" fill="#A8ACB6"/>
<path transform="translate(416,1128)" d="m0 0h2l1 2 4-2h5l1 5h-2v2l-2 1h-10v-7z" fill="#57565B"/>
<path transform="translate(368,797)" d="m0 0h3v2l4 1 1 5 2-3h2l-2 5-3 2h-5l-2-7-2 6h-1v-6l1-2h2z" fill="#A9A8AE"/>
<path transform="translate(764,531)" d="m0 0 3 2 1 17-4-2-4-11 1-4z" fill="#D0CFD4"/>
<path transform="translate(187,277)" d="m0 0h3v22h-5l1-21z" fill="#070607"/>
<path transform="translate(268,1137)" d="m0 0h4l5 6-1 5h-2v-7h-2l-1 6-4 1 3-7-3 3-3 5-2-1v-8h5z" fill="#232126"/>
<path transform="translate(748,848)" d="m0 0 10 5 2 4v5l-4-1-7-6z" fill="#D4C5C0"/>
<path transform="translate(876,709)" d="m0 0 7 6 3 5-1 3-8-1-2-1v-7z" fill="#D4C5C0"/>
<path transform="translate(350,870)" d="m0 0 4 2 9 7 8 9 6 12 1 4h-2l-7-14-11-12-8-5z" fill="#19161B"/>
<path transform="translate(1033,696)" d="m0 0 4 1 2 2 16 4h17l1 2-11 2-10-1-18-6z" fill="#D0CFD4"/>
<path transform="translate(938,413)" d="m0 0 17 1 10 2 1 2-8 1-18-3-2-1z" fill="#696277"/>
<path transform="translate(274,940)" d="m0 0 3 1 5 9 9 10 11 7 4 2-1 2-10-5-9-7-7-9-4-5z" fill="#1C1A1F"/>
<path transform="translate(1408,767)" d="m0 0h6l1 2v7l-5 3h-3v-11z" fill="#828088"/>
<path transform="translate(717,628)" d="m0 0 4 2-3 6 2 1-6 5-3-1 4-5v-3l-5 1-9 2 3-3z" fill="#B6ABAC"/>
<path transform="translate(945,417)" d="m0 0h6l3 2v2h-4l1 2 21 2v1h-34l4-3h3v-2l2-2z" fill="#A8ACB6"/>
<path transform="translate(657,764)" d="m0 0 3 1-5 6-1 2v8l1 4h2l3 6h-5l-4-10v-10l3-5z" fill="#D0CFD4"/>
<path transform="translate(653,736)" d="m0 0h1l1 9 2 4 9 4 2 1-7 3-8-5-1-4v-8z" fill="#D0CFD4"/>
<path transform="translate(892,720)" d="m0 0 4 4 6 9 2 5 1 9-1 5-2-3-3-13-7-14z" fill="#D3C5C0"/>
<path transform="translate(842,685)" d="m0 0 23 1 3 2-3 1 5 3-2 1-12-4h-17l3-1z" fill="#68808B"/>
<path transform="translate(1311,603)" d="m0 0h7l-4 2-1 3 6 2-1 5-1 1h-7v-12z" fill="#464549"/>
<path transform="translate(1103,592)" d="m0 0 2 4 13 5 11 3h3l2 3-1 3-14-6-13-4-4-4z" fill="#D0CFD4"/>
<path transform="translate(751,509)" d="m0 0 7 1 5 5-9 1-9-1 2-4z" fill="#BBACAD"/>
<path transform="translate(883,1119)" d="m0 0 4 1 11 7 11 6-4 1-10-4-6-4z" fill="#A8ACB6"/>
<path transform="translate(708,815)" d="m0 0 5 1 1 2-2 7-2 3-2-1 1-5-4-2-9-1v-1z" fill="#D0CFD4"/>
<path transform="translate(429,797)" d="m0 0 4 1-2 9-2 2h-4l-1-2v-8l3-1 2 1z" fill="#838288"/>
<path transform="translate(901,560)" d="m0 0 5 1-2 1 1 3h-2l-2 4-9 11-3 3-1 5h-3l1-6 7-6 6-9-1-5z" fill="#68808B"/>
<path transform="translate(580,1110)" d="m0 0h9l1 5-3 4h-6v-3h-3v-3h2z" fill="#7B7A83"/>
<path transform="translate(1151,843)" d="m0 0 4 4 6 15 1 5v9l-2 2-1-12-6-15-4-7z" fill="#CBBDBA"/>
<path transform="translate(235,1112)" d="m0 0h5l2 2v6l-3 3h-5v-10z" fill="#464449"/>
<path transform="translate(832,1053)" d="m0 0 7 4v2l4 1 1 5-10-5-1 4-2-1-1-8z" fill="#B5ABAC"/>
<path transform="translate(1369,687)" d="m0 0 4 1 2 2-1 5-5 4h-3v-9z" fill="#55525B"/>
<path transform="translate(1287,606)" d="m0 0h5l2 2v6l-1 1h-7l-2-3 1-5z" fill="#0B090C"/>
<path transform="translate(942,772)" d="m0 0 5 1 8 3 6 3v2l-9-1-7-1-3-3z" fill="#F0F0F0"/>
<path transform="translate(821,692)" d="m0 0 2 1-10 8-7 7h-2l-2 4-3 2 2-5 7-9 7-5z" fill="#050405"/>
<path transform="translate(1380,687)" d="m0 0 5 1 1 1v6l-7 4h-2l1-9z" fill="#7B7A80"/>
<path transform="translate(216,799)" d="m0 0 5 1 2 2-1 4-2 3h-4l-1-2-3 1 1-7h3z" fill="#83808A"/>
<path transform="translate(1370,764)" d="m0 0 6 1 2 4-2 1-1 4h-3l-1 2h-3l1-11z" fill="#7B7A81"/>
<path transform="translate(989,282)" d="m0 0h4v2l4 2-2 1-7-1-1 1v5l1 1h5l3-1-1 3-2 1h-7l-3-5 1-6z" fill="#232026"/>
<path transform="translate(1374,727)" d="m0 0 5 3 1 4h-2l-2 4-5-1-1-6z" fill="#A3A2A9"/>
<path transform="translate(498,1149)" d="m0 0h3v6l2-4-1-2 7 2v3h2v-4h2v7h-5l-3-2-3 2-4-1-1-6z" fill="#323037"/>
<path transform="translate(190,1137)" d="m0 0 4 2v4h2l1-5 1-1h5l4 5-2 1v-2l-3 1v-3h-4l-2 9h-3v-4h-3z" fill="#151317"/>
<path transform="translate(228,773)" d="m0 0 4 1 1 1v7l-2 2h-4v-2h-2v-6z" fill="#CACCD1"/>
<path transform="translate(1167,287)" d="m0 0h5l2 7-1 3h-5v-2h-2l-1-4-2-1z" fill="#6D6C71"/>
<path transform="translate(708,286)" d="m0 0 4 1 1 1v6l-1 2-7-1-1-4 1-3z" fill="#57555A"/>
<path transform="translate(279,921)" d="m0 0h7l2 3 1 8-4-1-1-8h-3v10h-2l-1-11z" fill="#0F0D10"/>
<path transform="translate(1025,682)" d="m0 0 2 1v2l5 1 2 1 1 4-5-2 2 10-4 5-3 1 2-4 1-1-1-11-2-4z" fill="#6A7886"/>
<path transform="translate(775,681)" d="m0 0h1l-1 10-2 5-3 1-1-3h-2l2-6z" fill="#D0CFD4"/>
<path transform="translate(251,921)" d="m0 0h3l1 2v12l-2 2h-6l-2-3v-3h2v2l5 1z" fill="#100E11"/>
<path transform="translate(263,772)" d="m0 0h3v10l-1 2-5-1-1-5 2-5z" fill="#808085"/>
<path transform="translate(1367,606)" d="m0 0 4 1 2 4-2 5h-5l-2-2v-5z" fill="#38373B"/>
<path transform="translate(763,728)" d="m0 0 2 4v7l-4 10-3 3v-8l2-7h2z" fill="#D1C2BE"/>
<path transform="translate(1112,670)" d="m0 0h1v9l-2 9-4-2-1-5z" fill="#696075"/>
<path transform="translate(1290,1117)" d="m0 0 5 1 1 1v6l-4 2-4-1v-6z" fill="#3D3C41"/>
<path transform="translate(404,799)" d="m0 0 4 1 2 4-2 5h-6l-1-5z" fill="#86848B"/>
<path transform="translate(1392,606)" d="m0 0 4 1 1 1v6l-1 2h-5l-2-3v-5z" fill="#2F2F33"/>
<path transform="translate(828,513)" d="m0 0 3 1-7 8-7 7h-3v-3h2l2-4z" fill="#A8ACB6"/>
<path transform="translate(1325,1157)" d="m0 0h6l4 4-1 5-3 2h-5l4-9-4 1-1 6-2-3z" fill="#75757B"/>
<path transform="translate(902,1134)" d="m0 0 13 3v-2l7 1v4l-5 1-15-4z" fill="#696176"/>
<path transform="translate(880,1020)" d="m0 0 1 4-5 9h-2l-2 3-5-2-4-3 10-2 6-7z" fill="#D2C8C6"/>
<path transform="translate(1398,646)" d="m0 0 4 2 1 4-4 5h-3v-4h-2l1-5z" fill="#84858A"/>
<path transform="translate(197,773)" d="m0 0 4 1 1 5-3 5h-3v-2h-2v-6z" fill="#7F7D85"/>
<path transform="translate(830,762)" d="m0 0 9 1 11 2 23 1v1h-30l-13-3z" fill="#728791"/>
<path transform="translate(822,699)" d="m0 0h2v2l-6 4-9 9-4-1 6-7z" fill="#736E81"/>
<path transform="translate(1158,286)" d="m0 0 4 1v3h-4v3h5l-1 3-5-1-4-3-3 5h-2l2-4 1-4-3-1 3-1 2 2h3z" fill="#221E25"/>
<path transform="translate(839,284)" d="m0 0h2l-1 11h-5l-2 2h-3v-4l-2-1h2l1-3 8 2z" fill="#626167"/>
<path transform="translate(281,1139)" d="m0 0 4 2 3 1 1-2v7h-4l-1 2h-4v-9z" fill="#515056"/>
<path transform="translate(841,974)" d="m0 0 2 1v2l-11 1-2 3 1 5 6 5-2 1-5-3-4-10 2-3z" fill="#D0CED2"/>
<path transform="translate(197,799)" d="m0 0 4 1v9l-5 1-2-2v-6z" fill="#949299"/>
<path transform="translate(1098,691)" d="m0 0 9 1 7 2 4 3v2l-5-1-4-2h-6v3l-3-3z" fill="#D0CFD4"/>
<path transform="translate(1135,283)" d="m0 0 3 1 5 10v2l-4-2-2-2v-5h-2v6l-3 3h-2l3-9z" fill="#19161B"/>
<path transform="translate(1449,1140)" d="m0 0h3l1 4h2v2l-3 1-1 2h-2v-4l-3 4h-3l-3-7 4 2 3-1z" fill="#888B97"/>
<path transform="translate(1241,1117)" d="m0 0 5 1 1 1v7l-7 1-1-2z" fill="#3A3A3E"/>
<path transform="translate(1049,1097)" d="m0 0 4 4 4 9 1 3-2 1-5-5-3-9z" fill="#A8ACB6"/>
<path transform="translate(255,799)" d="m0 0h4l2 3v6l-6 1-2-3 1-5z" fill="#817E85"/>
<path transform="translate(318,799)" d="m0 0 5 1 1 1v7l-7 1v-8z" fill="#88878E"/>
<path transform="translate(234,799)" d="m0 0 4 1 1 9-7-1-1-1v-5h2z" fill="#C5C5CB"/>
<path transform="translate(452,773)" d="m0 0 5 2v7l-2 2-6-1z" fill="#86848C"/>
<path transform="translate(336,773)" d="m0 0 5 1v9l-4 1-3-2 1-7z" fill="#7F7E86"/>
<path transform="translate(361,773)" d="m0 0 5 1v7l-2 3h-3v-2h-2v-6z" fill="#828287"/>
<path transform="translate(642,739)" d="m0 0h1l-3 27-2 1v-19z" fill="#687382"/>
<path transform="translate(883,287)" d="m0 0h5l2 5-2 4h-5l-2-4z" fill="#0A090B"/>
<path transform="translate(954,758)" d="m0 0 9 2 7 5-3 1-16-4v-3z" fill="#A8ACB6"/>
<path transform="translate(1099,631)" d="m0 0 9 5 10 8 1 1 1-5h1l1 10-4-2-7-7-7-4-5-4z" fill="#CCCBD1"/>
<path transform="translate(697,622)" d="m0 0h5v3l-6 2h-15l1-2z" fill="#B2AEB3"/>
<path transform="translate(662,612)" d="m0 0 1 2 4 2 11 3 9 2 10 1v1h-15l-15-4-5-4z" fill="#D0CED2"/>
<path transform="translate(784,534)" d="m0 0h3l3 16v7l-2 4h-1l-1-16z" fill="#CCD3E5"/>
<path transform="translate(1100,821)" d="m0 0 3 1-5 5-15 10 2-4 8-8z" fill="#1D1C21"/>
<path transform="translate(517,799)" d="m0 0h3l3 1v7l-2 2-5-1v-8z" fill="#94929A"/>
<path transform="translate(1380,646)" d="m0 0 5 2 1 5-3 3-5-1 1-7z" fill="#7A797E"/>
<path transform="translate(1345,606)" d="m0 0 4 1 1 3h2l1-3h2v7l-10 2 1-8z" fill="#313034"/>
<path transform="translate(670,1111)" d="m0 0 14 1v5h-3l-1-3-4-1v4l-3-1-2 2-3-1z" fill="#0B090C"/>
<path transform="translate(351,774)" d="m0 0 5 1v8l-5 1-2-2 1-7z" fill="#8C8B91"/>
<path transform="translate(1336,765)" d="m0 0h3l1 2v6l-3 4-4-2 1-8h2z" fill="#88868F"/>
<path transform="translate(1313,1139)" d="m0 0h2v9l4-2 3-5 4 1v7l-3 1 1-7h-2l-2 6-5 1-2-2z" fill="#666670"/>
<path transform="translate(1308,1117)" d="m0 0 4 1v9l-5-1-2-1v-6z" fill="#454348"/>
<path transform="translate(1145,1104)" d="m0 0h12v1l-17 3-10 6-4 4h-2l1-3 9-7z" fill="#8B8C9A"/>
<path transform="translate(277,891)" d="m0 0 3 1-4 7-3 9v13l-3-1v-9l3-12z" fill="#2C2830"/>
<path transform="translate(319,773)" d="m0 0h4v9l-2 2-4-1v-7z" fill="#939199"/>
<path transform="translate(1013,690)" d="m0 0h1l-1 8-6 10-5 6-7 6-2-1 13-13 4-8z" fill="#A8ACB6"/>
<path transform="translate(1021,665)" d="m0 0h1l2 15 4 9-1 2-6-10-2-7 1-7z" fill="#050405"/>
<path transform="translate(1313,283)" d="m0 0 8 1 3 5-1 4-4 2h-6l-2-3v-7zm0 2-1 7 1 1h6l3-2-2-5-1-1z" fill="#2B2830"/>
<path transform="translate(447,1129)" d="m0 0h2v2l7-1v7l-4 1-4-1z" fill="#58585E"/>
<path transform="translate(1316,1113)" d="m0 0h2l1 4 4 1 1 1v8h-2l-2-8-2-1v9l-3-1z" fill="#0D0B0E"/>
<path transform="translate(392,1108)" d="m0 0h3l-1 7 3-5 5 1v5l-3 2v-5l-5 5-3-1v-8z" fill="#36353B"/>
<path transform="translate(460,1149)" d="m0 0 4 2 5-1v7l-4-1-5 1z" fill="#57565C"/>
<path transform="translate(1351,766)" d="m0 0 3 2v8l-5 1v-2h-2v-4h2l1-4z" fill="#85848C"/>
<path transform="translate(190,1110)" d="m0 0 4 1 2 2-1 5-5 2-1-1v-8z" fill="#D1D2D6"/>
<path transform="translate(862,1087)" d="m0 0 5 5 5 8 3 11-3-3-10-19z" fill="#050405"/>
<path transform="translate(826,972)" d="m0 0h10l5 2v1l-17 2v-3z" fill="#A9ADB6"/>
<path transform="translate(793,521)" d="m0 0h9l-2 2-12 2-2 1-1 3-4 1v-5l2-2z" fill="#D0CFD4"/>
<path transform="translate(1097,453)" d="m0 0 5 5 1 3 3 1 5 7h-3l-5-4v-2h-2l-5-7z" fill="#B8B9C0"/>
<path transform="translate(1312,764)" d="m0 0h5l2 3v8l-4 1 1-2v-7l-3-2 1 5 2 1-5 4v-10z" fill="#57565F"/>
<path transform="translate(871,691)" d="m0 0 5 1 9 7 7 8v2l-3-1-5-6v-2l-5-2-5-4z" fill="#050405"/>
<path transform="translate(1321,684)" d="m0 0h6l3 2v8l-2 2h-7l-1-1v-10zm1 1v9l5 1 1-1v-8l-1-1z" fill="#1D191F"/>
<path transform="translate(444,799)" d="m0 0 4 1v8l-5 1-1-1v-7z" fill="#BABABF"/>
<path transform="translate(1078,748)" d="m0 0h6l-2 2-11 4 1 4 6 3-3 1-6-3-2-3 1-3z" fill="#D0CFD4"/>
<path transform="translate(691,734)" d="m0 0 3 1 4 11v7l-2-1-5-15z" fill="#DDDCDF"/>
<path transform="translate(1320,644)" d="m0 0h3v12h-2l-1-6-3 6h-2l-1-9 5 1z" fill="#504E56"/>
<path transform="translate(797,500)" d="m0 0h8l4 5-1 3-5-2-5-3z" fill="#A8ACB6"/>
<path transform="translate(238,1140)" d="m0 0h6l1 4h2l1-3h1v6l-5-1-1 3h-4l1-3 3 1-1-5-3-1-1 5-2-1 1-4z" fill="#2A292E"/>
<path transform="translate(525,1111)" d="m0 0h10l1 1v5h-3l1-4-3 1-1 4h-3l-1-4-1 3h-2z" fill="#423F47"/>
<path transform="translate(939,544)" d="m0 0 6 1 9 5v2l4 2 1 2-6-2-14-9z" fill="#D0CFD4"/>
<path transform="translate(280,1110)" d="m0 0 5 1v12l-4-1-2-11z" fill="#121114"/>
<path transform="translate(910,424)" d="m0 0 2 1v2l-3 2-13 3v-3l9-4z" fill="#D4C5C0"/>
<path transform="translate(1305,1140)" d="m0 0h2l1 2v8h-3l1-7h-2l-1 5-2 2-4-1 1-7h1l1 6z" fill="#5C5A65"/>
<path transform="translate(438,1111)" d="m0 0 3 1v2h3v-3l5 1v5l-4 1-5-1z" fill="#444249"/>
<path transform="translate(684,832)" d="m0 0 10 1-4 2-1 2 6 2 1 2-7 1 2-1-3-3-5-3z" fill="#D0CFD4"/>
<path transform="translate(702,692)" d="m0 0 8 6v3h-2v2l-7 1 3-2z" fill="#A8ACB6"/>
<path transform="translate(1127,638)" d="m0 0 4 1-1 5-2 1-2-1 4 7v3l-5-5-1-8h3z" fill="#68808B"/>
<path transform="translate(962,588)" d="m0 0 6 5 7 2v3l-5-1-9-3-1-3h2z" fill="#686878"/>
<path transform="translate(437,1149)" d="m0 0 4 1 1 1v5h-2l-1-3-1 2-2-1zm7 0 4 2-1 5-4 1 2-6-3-1z" fill="#413F48"/>
<path transform="translate(663,1128)" d="m0 0 5 2 2 6-5-2-1 3h-3v-7z" fill="#46464B"/>
<path transform="translate(372,943)" d="m0 0h2l-2 5-4 6-5 6-6 4 1-4 7-6z" fill="#1B191E"/>
<path transform="translate(1108,817)" d="m0 0 3 1-4 3 4 2-3 2-8 1 2-4-1-2z" fill="#6F6479"/>
<path transform="translate(538,799)" d="m0 0 4 1v8l-5 1-1-4z" fill="#878490"/>
<path transform="translate(1390,683)" d="m0 0 2 4v2l8-1-1 8h-2l1-7-3 3-3 5-2-1 2-5h-2z" fill="#64626B"/>
<path transform="translate(1186,1149)" d="m0 0 1 3-6 10-8 8-5 2 5-5 7-8z" fill="#A2A6B1"/>
<path transform="translate(573,1128)" d="m0 0 2 1-2 7-5 2-1-1v-6l4-1 2 1z" fill="#65646C"/>
<path transform="translate(226,1110)" d="m0 0 4 1v12h-3l-2-12z" fill="#19171B"/>
<path transform="translate(859,477)" d="m0 0 2 1-11 11-4 6-7 5 2-4 12-13z" fill="#8E97A2"/>
<path transform="translate(852,286)" d="m0 0 4 1 4 3v3h-3l-1-3-3-1v5l3 1-1 2-4-1-1-3z" fill="#25232A"/>
<path transform="translate(407,1109)" d="m0 0h2v5l3-3h4v6l-3 1v-3l-5 4-2-1z" fill="#413F48"/>
<path transform="translate(855,999)" d="m0 0 7 2 4 4 1 5-4 2-1-7-7-5z" fill="#D3C5C1"/>
<path transform="translate(785,743)" d="m0 0 4 2 9 7v2h7l1-2 5 3-2 1-13-1-5-6-6-5z" fill="#CCD3E5"/>
<path transform="translate(863,688)" d="m0 0h8l5 3-4 1 6 4 1 2-6-2-6-5z" fill="#696C7D"/>
<path transform="translate(738,582)" d="m0 0h2l-3 9-4 4-3 1 2-5 5-8z" fill="#CDCCD2"/>
<path transform="translate(773,563)" d="m0 0 4 1 2 3v5l-4-1-4-4z" fill="#CFD1DB"/>
<path transform="translate(943,1174)" d="m0 0 2 3 2 9h2l2 4-1 3-4-4-3-7z" fill="#828594"/>
<path transform="translate(795,872)" d="m0 0 2 1 4 10v15l-2 1v-10z" fill="#D0CFD4"/>
<path transform="translate(1343,608)" d="m0 0 1 2-3 5-2 2-4-1 2-7z" fill="#6B6B6F"/>
<path transform="translate(762,562)" d="m0 0 2 2-1 5-4 2v2h-2l-2 5-1-3 3-6z" fill="#6D838E"/>
<path transform="translate(540,1130)" d="m0 0 4 1v6l-3-1 1-4h-2l-1 3-3 2-3-1 1-5z" fill="#46464C"/>
<path transform="translate(201,1107)" d="m0 0h3v15h-3z" fill="#161418"/>
<path transform="translate(770,959)" d="m0 0 17 1-1 3h-10l-4 1-3-4z" fill="#D0CFD4"/>
<path transform="translate(456,797)" d="m0 0 6 2 1 5-4-4-1 8h4l1-3 1 2-1 2h-6l-1-1z" fill="#4B4552"/>
<path transform="translate(1342,725)" d="m0 0h8v3l-6-1-1 1v5l5 2 2-1v3l-9-1-1-8z" fill="#1D1A20"/>
<path transform="translate(1007,286)" d="m0 0 4 1 1 4-3 6-3-1 4-7h-3l-1 5h-2v-5z" fill="#1F1D23"/>
<path transform="translate(1016,287)" d="m0 0 5 1 2 1-1 6-2 2-5-1-2-5 4 2v2l2-1v-4l-3-1z" fill="#141216"/>
<path transform="translate(679,856)" d="m0 0 1 3 7 2 1 2 3 2-5-1-4-1-1 4-3-3z" fill="#CECDD2"/>
<path transform="translate(1112,816)" d="m0 0 2 1-2 3 4 1v2l4 2-10-1-4-3z" fill="#A79FA9"/>
<path transform="translate(310,800)" d="m0 0h2v11l-1 1h-6v-11h2v9l3-1z" fill="#47444D"/>
<path transform="translate(1330,1141)" d="m0 0 4 1-1 7-4 1-1-1 1-7z" fill="#8E8E95"/>
<path transform="translate(1338,1141)" d="m0 0 4 1 1 5-3 3-3-1v-6z" fill="#86868D"/>
<path transform="translate(369,798)" d="m0 0 6 2 1 5 2-3h2l-2 5-3 2h-5l-1-2h4v-5l-3 3z" fill="#46444C"/>
<path transform="translate(999,728)" d="m0 0 1 2v7l9-1-5 4-7-2-1-5z" fill="#D1D0D5"/>
<path transform="translate(816,692)" d="m0 0 2 1-3 1-1 3-8 6-4 6-1-2 7-10z" fill="#687483"/>
<path transform="translate(801,636)" d="m0 0h1l-1 9-4 8-1-4 3-10z" fill="#A8ACB6"/>
<path transform="translate(712,623)" d="m0 0 2 1-5 5-9 3h-7l4-2 11-3v-2z" fill="#71657A"/>
<path transform="translate(1048,287)" d="m0 0h6l1 9-5-1v-6h-2z" fill="#26252A"/>
<path transform="translate(1256,1140)" d="m0 0h5l1 6-1 3h-2v-6l-4 6h-3l1-3 2-1z" fill="#5B5B65"/>
<path transform="translate(326,1140)" d="m0 0h6l2 3-1 5h-2v-6l-4 1-2 5-2-1 1-6z" fill="#44424A"/>
<path transform="translate(268,1137)" d="m0 0 4 1h-3l-1 4-4 7-2-1v-8h5z" fill="#53545C"/>
<path transform="translate(487,1129)" d="m0 0 6 1 4 4-1 3-2-1-2-4-4-1v3l2-1v4l-5-1v-5z" fill="#222024"/>
<path transform="translate(1334,1117)" d="m0 0h5l2 3v6h-2l-1-6-3-1v8h-2v-9z" fill="#09080A"/>
<path transform="translate(1258,1115)" d="m0 0 4 1v11h-3l-2-8z" fill="#070607"/>
<path transform="translate(245,1108)" d="m0 0h3v14h-3z" fill="#050405"/>
<path transform="translate(858,1049)" d="m0 0h1l1 10-3 1-4 2-3-5 4 1 1-3h3z" fill="#A8ACB6"/>
<path transform="translate(1015,733)" d="m0 0h10l5 4v2l2 1h-3l-3-3-2-1h-15l3-2z" fill="#D0CFD4"/>
<path transform="translate(1383,604)" d="m0 0h3l1 12h-3l-2-5v-6z" fill="#0C0A0D"/>
<path transform="translate(1131,580)" d="m0 0 5 4 3 5v5l-4-5-6-5z" fill="#D0CFD4"/>
<path transform="translate(823,534)" d="m0 0v3l-8 13-1-4 5-9z" fill="#A8ACB6"/>
<path transform="translate(1225,1120)" d="m0 0h5l-1 6-7 1-2-4 2-1 1 2 3 1z" fill="#0E0D10"/>
<path transform="translate(840,1052)" d="m0 0 3 1 2 3v3h2l1 5h2l1 5-4-2-3-7-4-6z" fill="#D8D5D7"/>
<path transform="translate(294,873)" d="m0 0v3l-8 7-1 2h-2l-2 5h-3l6-8 7-7z" fill="#131115"/>
<path transform="translate(308,799)" d="m0 0 3 1v9l-4 1-1-10z" fill="#D6D8DC"/>
<path transform="translate(711,721)" d="m0 0 4 1 3 3-7-1-2 5-4-1-2 1v-2h-3l1-2h7l1-3z" fill="#D3C5C0"/>
<path transform="translate(828,509)" d="m0 0 3 1-11 9-4-1v-2z" fill="#69677A"/>
<path transform="translate(882 1e3)" d="m0 0h1v20l-1 4-5 3 2-5 2-9z" fill="#BBB6BA"/>
<path transform="translate(957,768)" d="m0 0 16 1 1 7-5 5 2-4 1-4-1-2h-10l-4-2z" fill="#D2C8C6"/>
<path transform="translate(1308,724)" d="m0 0h11v2h-4v11h-2v-7l1-4h-6z" fill="#47454C"/>
<path transform="translate(951,577)" d="m0 0 2 4-3 3-7-1-6-4 2-1 9 3h2z" fill="#D0CFD4"/>
<path transform="translate(867,562)" d="m0 0h2l-2 4 4 1-9 6-1-2 4-7z" fill="#D0CFD4"/>
<path transform="translate(754,542)" d="m0 0h3l1 6h-2v4l-3 1-1-5z" fill="#D3C5C0"/>
<path transform="translate(1034,286)" d="m0 0 4 1 2 2-1 6-5 1 3-3v-4l-3-1v6h-2v-6z" fill="#110F13"/>
<path transform="translate(465,1130)" d="m0 0h3l-1 6 4-2 2-3h2v5l-7 2-3-2z" fill="#37363E"/>
<path transform="translate(1022,1116)" d="m0 0 7 3 4 4v3l-4-1v-2l-4-2-1-2-3-2z" fill="#DDDDE0"/>
<path transform="translate(1299,1114)" d="m0 0h2l1 2v11l-3-1-1-11z" fill="#1C191E"/>
<path transform="translate(1233,1115)" d="m0 0h3v12h-3l-1-11z" fill="#19161B"/>
<path transform="translate(657,1111)" d="m0 0h2l1 3 2-3 4 1 1 3h-3l-4 2-2 2-4-1 3-2z" fill="#1B191E"/>
<path transform="translate(1043,752)" d="m0 0h5v4l-6 4-2-1 2-3-3-3z" fill="#68808B"/>
<path transform="translate(950,732)" d="m0 0h6l-4 3-10 1-4-2 2-1z" fill="#68808B"/>
<path transform="translate(709,617)" d="m0 0 4 2-9 5h-2v-2h-5v-1l10-3z" fill="#BFBBBE"/>
<path transform="translate(998,486)" d="m0 0 8 3-4 2-6 4-1-2z" fill="#D1CACB"/>
<path transform="translate(278,281)" d="m0 0h5l1 5-1 1h-6v-5z" fill="#D7D5D8"/>
<path transform="translate(631,1129)" d="m0 0 4 1 2 6-4 1v-6h-2l-1 5-2-1 2-5z" fill="#2C2C32"/>
<path transform="translate(272,1112)" d="m0 0h4l-2 10-3 1v-10z" fill="#0F0D10"/>
<path transform="translate(1392,767)" d="m0 0h5v10l-2-1v-7h-3l-1 7h-2l1-7z" fill="#49464F"/>
<path transform="translate(680,626)" d="m0 0 12 1v1h-5v2l3 1-11-1-1-3z" fill="#D3C7C4"/>
<path transform="translate(800,610)" d="m0 0h1l1 22-2-2-2-6 1-4z" fill="#A8ACB6"/>
<path transform="translate(798,606)" d="m0 0 2 3v13l-3-3v-11z" fill="#708590"/>
<path transform="translate(1376,604)" d="m0 0 3 1 1 11h-4l-1-11z" fill="#120F13"/>
<path transform="translate(894,287)" d="m0 0h5l2 3v5h-2l-1-5-3-1v7h-2v-8z" fill="#1F1D23"/>
<path transform="translate(1358,1160)" d="m0 0h5v3h-2v-2h-2l-1 7h-7l2-7h1l1 5z" fill="#58565C"/>
<path transform="translate(595,1129)" d="m0 0h1v7l-5 2h-4l1-8h2l1 5 4-1z" fill="#313035"/>
<path transform="translate(601,1130)" d="m0 0 3 1 1 4h3l-1 3h-3v-3h-3v2l-3-1z" fill="#4F4E56"/>
<path transform="translate(1369,689)" d="m0 0h5l1 4-2 3h-4z" fill="#A0A0A2"/>
<path transform="translate(1318,603)" d="m0 0 2 2v7l-1-2-6-2 1-4z" fill="#B3B3BC"/>
<path transform="translate(576,1150)" d="m0 0 4 2 2-1v6h-6l-1-3z" fill="#45444B"/>
<path transform="translate(418,1109)" d="m0 0 8 2 1 7h-3v-6h-2l-1 5h-2v-5z" fill="#484952"/>
<path transform="translate(220,1107)" d="m0 0h2v16h-2l-1-15z" fill="#26252A"/>
<path transform="translate(342,800)" d="m0 0h2v7h3v-7h2v6l-3 3-4-1z" fill="#46444B"/>
<path transform="translate(290,799)" d="m0 0 5 1-1 9-3-1 1-1v-5l-4 6v-6z" fill="#45424B"/>
<path transform="translate(739,711)" d="m0 0h7l-1 4 1 3-8-4z" fill="#C0B3B2"/>
<path transform="translate(858,697)" d="m0 0h5l10 4-4 2-5-2-1-1-11-1v-1z" fill="#CECBD0"/>
<path transform="translate(667,624)" d="m0 0h10v2l3-1v2h-2l1 3-6-1v-2l-6-2z" fill="#A9ABB4"/>
<path transform="translate(913,1158)" d="m0 0h3v2h-2l-1 4h-4v-2l-6-1v-1z" fill="#6F858F"/>
<path transform="translate(851,1068)" d="m0 0 3 4 5 10-1 4-8-15z" fill="#BEBAC1"/>
<path transform="translate(458,799)" d="m0 0 5 3 1 3-2 3h-4z" fill="#E0E1E3"/>
<path transform="translate(186,799)" d="m0 0h4l1 9-4 1v-2l2-1v-5h-2l-1 7h-1v-8z" fill="#64616E"/>
<path transform="translate(521,774)" d="m0 0 3 1v8h-5l-3-5v-3h2l2 6h1z" fill="#2F2A33"/>
<path transform="translate(668,705)" d="m0 0 5 1-2 1v3l-11-1 4-3z" fill="#D1CBCD"/>
<path transform="translate(1339,685)" d="m0 0h3l2 5 3 1-1 5-4-5-1-2-1 7h-2z" fill="#232127"/>
<path transform="translate(1458,1143)" d="m0 0h2v2l2 1v4h-6v-5z" fill="#7E808B"/>
<path transform="translate(295,1140)" d="m0 0h2v7l-4 2-3-1 2-5h2z" fill="#4C4A53"/>
<path transform="translate(1328,1112)" d="m0 0h1l1 13-1 2h-2v-14z" fill="#252129"/>
<path transform="translate(651,1109)" d="m0 0 2 1v2l4-1 1 6-6 1z" fill="#88868E"/>
<path transform="translate(1159,859)" d="m0 0 2 3 1 5v9l-2 2-1-12-1-5z" fill="#D4C5C0"/>
<path transform="translate(1116,821)" d="m0 0 9 2 5 3-4 1-10-4z" fill="#A6919A"/>
<path transform="translate(216,799)" d="m0 0 3 1-2 9-2-2-3 1 1-7h3z" fill="#A1A0A8"/>
<path transform="translate(1322,603)" d="m0 0h3v10l-2 3h-2l1-8z" fill="#222225"/>
<path transform="translate(1013,493)" d="m0 0 6 1 6 3v2h2l-1 2-10-5z" fill="#C2B8B8"/>
<path transform="translate(848,434)" d="m0 0m-1 1m-1 1m-1 1v3l-3 4h-4v2l-5 2 4-5z" fill="#D0CDD0"/>
<path transform="translate(734,287)" d="m0 0h5l1 7-2 2-5-1v-2l5 1-1-4h-3z" fill="#161418"/>
<path transform="translate(1253,1159)" d="m0 0 3 1-1 1 1 7h-2l-1-3-1 2h-2v-7z" fill="#A5A3AC"/>
<path transform="translate(203,1141)" d="m0 0h2v2h2l-1 4h-2-4v-5z" fill="#868892"/>
<path transform="translate(712,785)" d="m0 0 6 1 1 3-1 2-5-1z" fill="#A8ACB6"/>
<path transform="translate(228,773)" d="m0 0 4 1 1 1v7l-5 1 2-2v-6l-2 1-1 5h-1v-6z" fill="#2F2A34"/>
<path transform="translate(876,282)" d="m0 0h2v13l-5 1 2-3z" fill="#42414A"/>
<path transform="translate(1326,1159)" d="m0 0h4l-1 5-4 4-1-2z" fill="#E2E2E4"/>
<path transform="translate(1355,1141)" d="m0 0h2l1 7 2-6 2 4-1 3-6 1z" fill="#4F5055"/>
<path transform="translate(892,1129)" d="m0 0 5 1 4 2 1 4-6-2-4-3z" fill="#696E7F"/>
<path transform="translate(639,1111)" d="m0 0 5 1v5l-6 1v-6z" fill="#53515B"/>
<path transform="translate(791,788)" d="m0 0 3 1-1 4-7-1-1-3z" fill="#C6C6CC"/>
<path transform="translate(1057,491)" d="m0 0 4 1 4 5-1 3-6-5z" fill="#AD9DA2"/>
<path transform="translate(881,468)" d="m0 0h2v2l-8 5h-4v-2z" fill="#A8ACB6"/>
<path transform="translate(966,458)" d="m0 0 7 1 4 2h-2v2l-12-2z" fill="#7A8390"/>
<path transform="translate(1158,289)" d="m0 0 5 1 3 3-3 1h-5l-1-4z" fill="#C4C5CB"/>
<path transform="translate(526,1150)" d="m0 0h5l-1 5-5 2-1-4z" fill="#4E4E52"/>
<path transform="translate(307,1137)" d="m0 0h2v11l-4 1 1-8z" fill="#151217"/>
<path transform="translate(634,1109)" d="m0 0 2 1-1 8h-5l-1-4 2-1 1 3z" fill="#2D2C32"/>
<path transform="translate(291,801)" d="m0 0 2 1v5 3l-6-1 1-3z" fill="#D2D2D5"/>
<path transform="translate(234,799)" d="m0 0 4 1v8l-2-1 1-6h-3v7l-3-1v-5h2z" fill="#797884"/>
<path transform="translate(435,774)" d="m0 0 3 3v2l2-1 2-4 1 2-3 8-2 1z" fill="#45414B"/>
<path transform="translate(518,773)" d="m0 0 4 1v7h-3l-2-7z" fill="#C1C1C8"/>
<path transform="translate(1312,685)" d="m0 0h3l2 10-4 2h-3l1-3h3z" fill="#221E25"/>
<path transform="translate(1017,680)" d="m0 0h2v10l-3 2v-10z" fill="#050405"/>
<path transform="translate(662,612)" d="m0 0 1 2 4 2 10 4-3 1-7-2-5-4z" fill="#D0CFD4"/>
<path transform="translate(912,473)" d="m0 0 5 1v2h2v2l-9-1-2-1v-2z" fill="#DDDCDF"/>
<path transform="translate(864,450)" d="m0 0 2 1-4 6-4 1-1-3 4-4z" fill="#B6ABAC"/>
<path transform="translate(692,284)" d="m0 0 3 3 4 2-2 1-2-1-2 6h-2z" fill="#0B090C"/>
<path transform="translate(190,1137)" d="m0 0 4 2 1 5-2 4v-4h-3z" fill="#5A5A61"/>
<path transform="translate(1123,1117)" d="m0 0 2 1-7 14-1-3z" fill="#A9ACB6"/>
<path transform="translate(1055,1106)" d="m0 0 4 4 4 5v2l-5-1-2-2 1-2-2-3z" fill="#D0CFD4"/>
<path transform="translate(279,921)" d="m0 0 3 1-1 11h-2l-1-11z" fill="#0B0A0C"/>
<path transform="translate(283,774)" d="m0 0h2v6l-2 5-7 1v-3l5-1 1-1z" fill="#403D46"/>
<path transform="translate(478,771)" d="m0 0h1v11l-1 1h-5v-9l3-1-2 9 3-1z" fill="#1D1B1F"/>
<path transform="translate(1359,606)" d="m0 0 2 1v9h-6v-2l3-2z" fill="#121013"/>
<path transform="translate(1034,288)" d="m0 0 4 1-1 5-2 1 2 2h-4l-1-3h2z" fill="#C5C5CB"/>
<path transform="translate(442,1151)" d="m0 0h3l-1 5-1 1h-6l-1-2h2l1-3 1 4h2z" fill="#BFC0C7"/>
<path transform="translate(398,1130)" d="m0 0 5 1v5h-2v-4l-2 1-1 4h-3l2-6z" fill="#302C35"/>
<path transform="translate(416,1128)" d="m0 0h2l2 4-2 4h-3v-7z" fill="#6D6D72"/>
<path transform="translate(1250,1117)" d="m0 0h4l-1 9h-3z" fill="#26272D"/>
<path transform="translate(670,1111)" d="m0 0h4v5l-3 2-3-1z" fill="#65656B"/>
<path transform="translate(788,924)" d="m0 0 5 5 1 4-5-2-2-5z" fill="#F2F2F2"/>
<path transform="translate(1161,825)" d="m0 0h2l-2 6-1 2h-2l-1-6z" fill="#D3C7C4"/>
<path transform="translate(477,771)" d="m0 0h1v10l-4 1v-6l2-1z" fill="#D5D4D8"/>
<path transform="translate(1365,724)" d="m0 0h3v8l-1 5h-2z" fill="#57585E"/>
<path transform="translate(1028,691)" d="m0 0 4 5-1 4-5 5v-3l2-2z" fill="#403B48"/>
<path transform="translate(1023,658)" d="m0 0h1l-1 18h-1l-1-15z" fill="#858B98"/>
<path transform="translate(1124,589)" d="m0 0 4 2 5 7-1 3-5-5-2-5z" fill="#7B8692"/>
<path transform="translate(754,592)" d="m0 0 3 3-7 4-3-1h2l2-4z" fill="#A5919B"/>
<path transform="translate(1102,578)" d="m0 0 2 1-2 4-7 4h-2l2-4h3l1-3z" fill="#E0DFE2"/>
<path transform="translate(844,507)" d="m0 0 4 1-8 6-2 3h-2l1-4z" fill="#DADADD"/>
<path transform="translate(837,500)" d="m0 0 2 1-8 8-6 3-2-1 11-8z" fill="#9AA2AD"/>
<path transform="translate(904,287)" d="m0 0 4 1 1 8h-4v-5z" fill="#1D1920"/>
<path transform="translate(725,287)" d="m0 0 4 1 4 2v3l-3-1-2 4z" fill="#27252D"/>
<path transform="translate(1177,285)" d="m0 0h3l1 11h-3z" fill="#080708"/>
<path transform="translate(1254,1160)" d="m0 0 3 1 1 4 3-5 2 1-4 6-3 1-2-7z" fill="#5D5A65"/>
<path transform="translate(1293,1160)" d="m0 0h2l1 7-4 1-1-3z" fill="#73727D"/>
<path transform="translate(553,1150)" d="m0 0 1 3-1 3h-5v-5z" fill="#53535B"/>
<path transform="translate(599,1150)" d="m0 0 3 1v5l-4 1-1-5z" fill="#29262D"/>
<path transform="translate(348,1141)" d="m0 0 5 1 1 1v5h-2l-1-5-2-1-1 6-3-1z" fill="#050405"/>
<path transform="translate(935,1130)" d="m0 0 4 2-4 3h-6l-1-2 7-1z" fill="#CCD3E5"/>
<path transform="translate(580,1110)" d="m0 0 8 1-4 3-2-1v3h-4v-3h2z" fill="#4B4A51"/>
<path transform="translate(577,1108)" d="m0 0 3 1-4 4-1 5h-3l1-7z" fill="#151317"/>
<path transform="translate(262,926)" d="m0 0 4 1v5l-3 1-2-2z" fill="#D5D7DB"/>
<path transform="translate(1075,844)" d="m0 0 2 2-2 12-2 1v-9z" fill="#D3D2D5"/>
<path transform="translate(830,762)" d="m0 0 9 1 4 1v2l-10-1-3-1z" fill="#85949E"/>
<path transform="translate(945,725)" d="m0 0h6l1 2 2-1 1 3-5 1-5-3z" fill="#D1D0D5"/>
<path transform="translate(1325,603)" d="m0 0 3 2 1 8-4-1z" fill="#C2C5CB"/>
<path transform="translate(687,529)" d="m0 0v3l-7 6-2-2 7-6z" fill="#9EA5AF"/>
<path transform="translate(1059,501)" d="m0 0h2l4 7h-11l6-3z" fill="#BCB0B0"/>
<path transform="translate(996,478)" d="m0 0 3 1v2l6 2 1 2-3 1-5-3z" fill="#6A5F75"/>
<path transform="translate(1038,478)" d="m0 0h4l-1 8-6 2 4-8-3-1z" fill="#CFCDD1"/>
<path transform="translate(1349,287)" d="m0 0h3v4h3l-1 3-5 1z" fill="#3E3C44"/>
<path transform="translate(819,282)" d="m0 0 6 1 2 4-7-2h-2l-1 2h-2l2-4z" fill="#252129"/>
<path transform="translate(210,1139)" d="m0 0 3 1 1 6-4 1z" fill="#CECDD2"/>
<path transform="translate(1405,1139)" d="m0 0h3v9h-3z" fill="#6E7179"/>
<path transform="translate(471,1111)" d="m0 0 3 1v2l2-1v4l-4 2-2-1v-6z" fill="#3B3A41"/>
<path transform="translate(210,1114)" d="m0 0h3v9h-3z" fill="#CDCED3"/>
<path transform="translate(781,930)" d="m0 0h1l5 15-3-1-3-6z" fill="#808795"/>
<path transform="translate(270,801)" d="m0 0h3v6l-5 1v-6z" fill="#CACACF"/>
<path transform="translate(526,796)" d="m0 0h3v12h-2z" fill="#616169"/>
<path transform="translate(1155,752)" d="m0 0 6 5 1 6-1-2h-3z" fill="#D0CFD4"/>
<path transform="translate(1374,727)" d="m0 0 5 3 1 4h-2l-2 4-3-1 4-2-1-5-3-2z" fill="#3B3641"/>
<path transform="translate(1358,689)" d="m0 0h3l1 8-5 1z" fill="#C5C6CC"/>
<path transform="translate(1311,603)" d="m0 0h7l-4 2-3 7h-1v-8z" fill="#0C0A0D"/>
<path transform="translate(885,288)" d="m0 0 3 1-1 5-4 1v-5z" fill="#C5C6CC"/>
<path transform="translate(1344,1161)" d="m0 0h1v5h2l1-4 1 3-2 3-5-1 1-5z" fill="#56535D"/>
<path transform="translate(316,1138)" d="m0 0h2l1 3 2 1-1 5-3 1z" fill="#050405"/>
<path transform="translate(392,1108)" d="m0 0h3l-1 10-3-1v-8z" fill="#66656E"/>
<path transform="translate(272,922)" d="m0 0 2 1 1 4v7h-2l-2-11z" fill="#050405"/>
<path transform="translate(316,919)" d="m0 0h5v6l-4-1z" fill="#D3D3D8"/>
<path transform="translate(444,799)" d="m0 0 4 1v8l-2-1v-6l-2 1-1 6h-1v-7z" fill="#36353A"/>
<path transform="translate(716,744)" d="m0 0 1 3-3 6-4-2v-2l5-3z" fill="#D0CFD4"/>
<path transform="translate(844,698)" d="m0 0h6l-4 2 1 3-7-2v-2z" fill="#D0CFD4"/>
<path transform="translate(758,536)" d="m0 0 1 4-1 5-1-3-4-1 1-2h2v-2z" fill="#D0CFD4"/>
<path transform="translate(1326,287)" d="m0 0h2v6h2l1-4 1 3-2 3h-5z" fill="#343337"/>
<path transform="translate(1357,287)" d="m0 0h3l-1 6 4-1-1 3h-5z" fill="#58585F"/>
<path transform="translate(844,283)" d="m0 0 2 1v11l-3 1z" fill="#0C0B0D"/>
<path transform="translate(215,283)" d="m0 0h1v16h-1l-1-9-2 1 2-7z" fill="#A4A4AF"/>
</svg>
